<svg version="1.1" xmlns="http://www.w3.org/2000/svg" viewBox="0 0 408.33998107910156 217" width="408.33998107910156" height="217">
  <!-- svg-source:excalidraw -->
  
  <defs>
    <style class="style-fonts">
      @font-face {
        font-family: "Virgil";
        src: url("https://excalidraw.com/Virgil.woff2");
      }
      @font-face {
        font-family: "Cascadia";
        src: url("https://excalidraw.com/Cascadia.woff2");
      }
      @font-face {
        font-family: "Assistant";
        src: url("https://excalidraw.com/Assistant-Regular.woff2");
      }
    </style>
    
  </defs>
  <rect x="0" y="0" width="408.33998107910156" height="217" fill="#ffffff"></rect><g stroke-linecap="round"><g transform="translate(31.66999053955078 150) rotate(0 81 -49)"><path d="M0 0 C29.71 -29.78, 58.3 -55.87, 127 -125 M0 0 C50.5 -50.97, 100 -99.69, 127 -125 M127 -125 C138.93 -112.38, 148.88 -97.41, 162 -87 M127 -125 C139.44 -112.05, 150.97 -99.6, 162 -87 M162 -87 C129.66 -61.31, 102.23 -37.51, 21 27 M162 -87 C121.22 -54.94, 82.43 -24.37, 21 27 M21 27 C14.27 20.91, 10.53 15.91, 0 0 M21 27 C13.76 17.41, 7 10.18, 0 0" stroke="#e03131" stroke-width="2" fill="none"></path></g></g><mask></mask><g stroke-linecap="round"><g transform="translate(41.66999053955078 162) rotate(0 85.5 -72.5)"><path d="M0 0 C40.91 -32.53, 79.79 -65.45, 171 -145 M0 0 C44.8 -38.68, 87.85 -75.95, 171 -145" stroke="#2f9e44" stroke-width="2" fill="none"></path></g><g transform="translate(41.66999053955078 162) rotate(0 85.5 -72.5)"><path d="M158.46 -123.37 C162.5 -127.21, 165.29 -132.03, 171 -145 M158.46 -123.37 C162.39 -129.79, 164.06 -134.95, 171 -145" stroke="#2f9e44" stroke-width="2" fill="none"></path></g><g transform="translate(41.66999053955078 162) rotate(0 85.5 -72.5)"><path d="M147.49 -136.49 C153.91 -137.38, 159.19 -139.21, 171 -145 M147.49 -136.49 C154.3 -139.53, 158.82 -141.28, 171 -145" stroke="#2f9e44" stroke-width="2" fill="none"></path></g></g><mask></mask><g stroke-linecap="round"><g transform="translate(36.66999053955078 137) rotate(0 16 15)"><path d="M0 0 C11.48 0.53, 24.32 -1.25, 32 -1 M0 0 C10.51 -0.14, 20.66 -0.21, 32 -1 M32 -1 C31.56 5.96, 31.83 12.98, 32 30 M32 -1 C32.16 7.91, 31.97 17.42, 32 30 M32 30 C25.62 30.2, 16.67 31.34, 1 31 M32 30 C23.98 30.31, 16.3 30.87, 1 31 M1 31 C0.89 19.7, -0.75 9.46, 0 0 M1 31 C0.66 20.61, 0.32 10.84, 0 0" stroke="#1971c2" stroke-width="2" fill="none"></path></g></g><mask></mask><g stroke-linecap="round"><g transform="translate(70.7331955747054 107.98081538267661) rotate(0 16 15)"><path d="M0 0 C9.91 0.04, 19.6 0.47, 32 -1 M0 0 C7.88 -0.15, 15.7 -0.64, 32 -1 M32 -1 C32.47 7.64, 32.13 14.49, 32 30 M32 -1 C32.5 7.78, 32.01 17.38, 32 30 M32 30 C21.44 29.68, 12.71 30.89, 1 31 M32 30 C25.18 30.42, 19.56 30.45, 1 31 M1 31 C1.53 22.2, -0.5 14.96, 0 0 M1 31 C0.99 20.09, -0.04 9.1, 0 0" stroke="#1971c2" stroke-width="2" fill="none"></path></g></g><mask></mask><g stroke-linecap="round"><g transform="translate(103.58942204770028 78) rotate(0 16 15)"><path d="M0 0 C8.26 0.25, 16.81 -1.34, 32 -1 M0 0 C12.22 -0.13, 23.34 -0.47, 32 -1 M32 -1 C31.31 11.79, 32.37 23.36, 32 30 M32 -1 C31.66 6.51, 32.09 14.6, 32 30 M32 30 C24.61 30.51, 18.87 29.46, 1 31 M32 30 C25.19 29.92, 18.56 30.1, 1 31 M1 31 C0.36 22.49, 0.33 13.07, 0 0 M1 31 C1.17 24.95, 0.21 18.59, 0 0" stroke="#1971c2" stroke-width="2" fill="none"></path></g></g><mask></mask><g stroke-linecap="round"><g transform="translate(136.62888802659836 50.02356732208568) rotate(0 16 15)"><path d="M0 0 C6.96 -0.23, 14.38 0.69, 32 -1 M0 0 C9.44 -0.81, 19.43 -0.26, 32 -1 M32 -1 C32.64 8.5, 32.06 18.54, 32 30 M32 -1 C32.04 8.07, 31.97 16.81, 32 30 M32 30 C22.12 29.89, 11.86 31.53, 1 31 M32 30 C24.18 29.65, 16.84 30.88, 1 31 M1 31 C-0.14 23.76, -0.6 15.63, 0 0 M1 31 C0.85 20.2, 0.46 9.23, 0 0" stroke="#1971c2" stroke-width="2" fill="none"></path></g></g><mask></mask><g stroke-linecap="round"><g transform="translate(321.6699905395508 57) rotate(0 27 65)"><path d="M0 0 C-1.74 25.62, -2.33 54.56, -3 130 M0 0 C-1.46 32.69, -1.07 65.14, -3 130 M-3 130 C14.51 130.84, 31.13 128.96, 56 129 M-3 130 C13.05 130.4, 30.57 130.19, 56 129 M56 129 C57.33 95.12, 55.57 61.5, 57 1 M56 129 C57.65 96.16, 57.13 65.11, 57 1 M57 1 C42.47 1.36, 25.34 1.02, 0 0 M57 1 C36.9 0.85, 17.17 -0.06, 0 0" stroke="#e03131" stroke-width="2" fill="none"></path></g></g><mask></mask><g stroke-linecap="round"><g transform="translate(346.6699905395508 184) rotate(0 1.5 -87)"><path d="M0 0 C3.85 -43.15, 1.52 -87.24, 3 -174 M0 0 C2.26 -66.78, 3.19 -133.64, 3 -174" stroke="#2f9e44" stroke-width="2" fill="none"></path></g><g transform="translate(346.6699905395508 184) rotate(0 1.5 -87)"><path d="M11.47 -150.48 C11.11 -155.08, 5.85 -160.71, 3 -174 M11.47 -150.48 C8.5 -159.09, 5 -167.86, 3 -174" stroke="#2f9e44" stroke-width="2" fill="none"></path></g><g transform="translate(346.6699905395508 184) rotate(0 1.5 -87)"><path d="M-5.63 -150.54 C-1.62 -155.25, -2.5 -160.87, 3 -174 M-5.63 -150.54 C-2 -159.25, 1.1 -168, 3 -174" stroke="#2f9e44" stroke-width="2" fill="none"></path></g></g><mask></mask><g stroke-linecap="round"><g transform="translate(320.6699905395508 133) rotate(0 28.5 25)"><path d="M0 0 C20.08 1.32, 37.77 -1.01, 56 -2 M0 0 C19.48 -0.59, 39.93 -1.86, 56 -2 M56 -2 C55.03 18, 56.66 35.62, 57 50 M56 -2 C56.19 11.4, 55.39 24.59, 57 50 M57 50 C44.01 50.14, 34.3 49.34, 1 52 M57 50 C45.54 50.74, 34.27 49.46, 1 52 M1 52 C-0.69 39.55, 0.49 24.61, 0 0 M1 52 C-0.16 37.82, 1.15 23.12, 0 0" stroke="#1971c2" stroke-width="2" fill="none"></path></g></g><mask></mask><g stroke-linecap="round"><g transform="translate(320.1699905395508 69) rotate(0 28.5 25)"><path d="M0 0 C17.68 -1.69, 32.48 -0.07, 56 -2 M0 0 C21.5 0.06, 44.12 -0.78, 56 -2 M56 -2 C55.5 11.45, 57.08 28.57, 57 50 M56 -2 C56.12 12.26, 56.21 25.52, 57 50 M57 50 C44.18 52.17, 26.97 50.76, 1 52 M57 50 C46.25 51.11, 33.92 51.7, 1 52 M1 52 C1.82 35.74, 0.47 18.03, 0 0 M1 52 C1.3 39.9, 0.51 26.87, 0 0" stroke="#1971c2" stroke-width="2" fill="none"></path></g></g><mask></mask><g transform="translate(52.66999053955078 182) rotate(0 6.669990539550781 12.5)"><text x="0" y="17.52" font-family="Virgil, Segoe UI Emoji" font-size="20px" fill="#1971c2" text-anchor="start" style="white-space: pre;" direction="ltr" dominant-baseline="alphabetic">a</text></g><g transform="translate(10 132.5) rotate(0 5.079994201660156 12.5)"><text x="0" y="17.52" font-family="Virgil, Segoe UI Emoji" font-size="20px" fill="#1971c2" text-anchor="start" style="white-space: pre;" direction="ltr" dominant-baseline="alphabetic">b</text></g><g transform="translate(205.64999389648438 63.5) rotate(0 5.689994812011719 12.5)"><text x="0" y="17.52" font-family="Virgil, Segoe UI Emoji" font-size="20px" fill="#1971c2" text-anchor="start" style="white-space: pre;" direction="ltr" dominant-baseline="alphabetic">d</text></g><g transform="translate(385 179.5) rotate(0 6.669990539550781 12.5)"><text x="0" y="17.52" font-family="Virgil, Segoe UI Emoji" font-size="20px" fill="#1971c2" text-anchor="start" style="white-space: pre;" direction="ltr" dominant-baseline="alphabetic">a</text></g><g transform="translate(295.5899963378906 179.5) rotate(0 5.079994201660156 12.5)"><text x="0" y="17.52" font-family="Virgil, Segoe UI Emoji" font-size="20px" fill="#1971c2" text-anchor="start" style="white-space: pre;" direction="ltr" dominant-baseline="alphabetic">b</text></g><g transform="translate(298.6499938964844 32.5) rotate(0 5.019996643066406 12.5)"><text x="0" y="17.52" font-family="Virgil, Segoe UI Emoji" font-size="20px" fill="#1971c2" text-anchor="start" style="white-space: pre;" direction="ltr" dominant-baseline="alphabetic">c</text></g><g transform="translate(385.97999572753906 33.5) rotate(0 5.689994812011719 12.5)"><text x="0" y="17.52" font-family="Virgil, Segoe UI Emoji" font-size="20px" fill="#1971c2" text-anchor="start" style="white-space: pre;" direction="ltr" dominant-baseline="alphabetic">d</text></g></svg>