<svg version="1.1" xmlns="http://www.w3.org/2000/svg" viewBox="0 0 226.02934312706088 227.5" width="226.02934312706088" height="227.5">
  <!-- svg-source:excalidraw -->
  
  <defs>
    <style class="style-fonts">
      @font-face {
        font-family: "Virgil";
        src: url("https://excalidraw.com/Virgil.woff2");
      }
      @font-face {
        font-family: "Cascadia";
        src: url("https://excalidraw.com/Cascadia.woff2");
      }
      @font-face {
        font-family: "Assistant";
        src: url("https://excalidraw.com/Assistant-Regular.woff2");
      }
    </style>
    
  </defs>
  <rect x="0" y="0" width="226.02934312706088" height="227.5" fill="#ffffff"></rect><g stroke-linecap="round"><g transform="translate(31.56605773120765 160.7733812949641) rotate(0 80.61151079136691 -48.764988009592344)"><path d="M0 0 C51.09 -47.33, 99.64 -99.38, 126.39 -124.4 M0 0 C49.72 -49.19, 100.18 -100.34, 126.39 -124.4 M126.39 -124.4 C135.88 -113.46, 142.89 -103.78, 161.22 -86.58 M126.39 -124.4 C136.66 -114.13, 145.41 -103.8, 161.22 -86.58 M161.22 -86.58 C132.44 -63.55, 106.5 -41.04, 20.9 26.87 M161.22 -86.58 C125.74 -56.5, 87.32 -27.46, 20.9 26.87 M20.9 26.87 C13.46 15.44, 5.19 8.41, 0 0 M20.9 26.87 C16.47 20.44, 10.51 14.06, 0 0" stroke="#e03131" stroke-width="2" fill="none"></path></g></g><mask></mask><g stroke-linecap="round"><g transform="translate(41.518096100512196 172.71582733812943) rotate(0 85.08992805755396 -72.15227817745802)"><path d="M0 0 C55.55 -50.34, 113.71 -96.02, 170.18 -144.3 M0 0 C58.33 -51.22, 116.49 -100.69, 170.18 -144.3" stroke="#2f9e44" stroke-width="2" fill="none"></path></g><g transform="translate(41.518096100512196 172.71582733812943) rotate(0 85.08992805755396 -72.15227817745802)"><path d="M157.49 -122.77 C161.29 -131.68, 167.79 -136.52, 170.18 -144.3 M157.49 -122.77 C161.55 -130.77, 165.87 -138.29, 170.18 -144.3" stroke="#2f9e44" stroke-width="2" fill="none"></path></g><g transform="translate(41.518096100512196 172.71582733812943) rotate(0 85.08992805755396 -72.15227817745802)"><path d="M146.61 -135.96 C154.03 -140.62, 164.13 -141.1, 170.18 -144.3 M146.61 -135.96 C154.35 -139.56, 162.38 -142.57, 170.18 -144.3" stroke="#2f9e44" stroke-width="2" fill="none"></path></g></g><mask></mask><g stroke-linecap="round"><g transform="translate(36.54207691585992 147.83573141486818) rotate(0 15.92326139088729 14.928057553956819)"><path d="M0 0 C13.26 0.04, 24.96 -1, 31.85 -1 M0 0 C12.51 -0.65, 25.65 -0.56, 31.85 -1 M31.85 -1 C31.5 10.73, 30.79 21.55, 31.85 29.86 M31.85 -1 C31.28 6.83, 31.43 13.91, 31.85 29.86 M31.85 29.86 C20.78 31.01, 10.26 31.18, 1 30.85 M31.85 29.86 C21.52 29.67, 11 30.47, 1 30.85 M1 30.85 C0.11 24.68, 1.2 18.33, 0 0 M1 30.85 C1.01 22.7, 0.8 14.75, 0 0" stroke="#1971c2" stroke-width="2" fill="none"></path></g></g><mask></mask><g stroke-linecap="round"><g transform="translate(70.44190926499465 118.9557275391146) rotate(0 15.92326139088729 14.928057553956819)"><path d="M0 0 C7.26 -0.62, 14.68 -0.82, 31.85 -1 M0 0 C8.16 0.01, 16.13 -0.77, 31.85 -1 M31.85 -1 C30.87 10.08, 31.26 19.88, 31.85 29.86 M31.85 -1 C31.36 5.82, 31.93 13.5, 31.85 29.86 M31.85 29.86 C21.75 30.9, 12.49 29.77, 1 30.85 M31.85 29.86 C24.25 29.95, 15.28 30.06, 1 30.85 M1 30.85 C1.33 20.5, -0.02 8.55, 0 0 M1 30.85 C0.91 23.51, 0.46 16.45, 0 0" stroke="#1971c2" stroke-width="2" fill="none"></path></g></g><mask></mask><g stroke-linecap="round"><g transform="translate(103.14055191797513 89.11870503597129) rotate(0 15.92326139088729 14.928057553956819)"><path d="M0 0 C11.45 -0.62, 20.41 -0.97, 31.85 -1 M0 0 C7.72 -0.66, 15.09 -0.63, 31.85 -1 M31.85 -1 C31.15 9.67, 30.98 20.48, 31.85 29.86 M31.85 -1 C31.98 10.29, 31.85 20.58, 31.85 29.86 M31.85 29.86 C20.65 29.48, 8.17 31.35, 1 30.85 M31.85 29.86 C25.05 29.88, 19.39 29.9, 1 30.85 M1 30.85 C0.14 19.91, -0.46 10.87, 0 0 M1 30.85 C0.66 22.83, -0.04 15.25, 0 0" stroke="#1971c2" stroke-width="2" fill="none"></path></g></g><mask></mask><g stroke-linecap="round"><g transform="translate(136.02155523030777 61.27645189128452) rotate(0 15.92326139088729 14.928057553956819)"><path d="M0 0 C7.87 -0.58, 16.11 0.02, 31.85 -1 M0 0 C10.75 -0.32, 21.35 -1.01, 31.85 -1 M31.85 -1 C31.04 8.4, 32.29 19.07, 31.85 29.86 M31.85 -1 C32.02 6.69, 32.31 14.64, 31.85 29.86 M31.85 29.86 C20.34 30.74, 8.67 31.36, 1 30.85 M31.85 29.86 C22.93 29.73, 13.67 30.68, 1 30.85 M1 30.85 C0.01 20.66, -0.11 10.26, 0 0 M1 30.85 C0.29 23.23, 0.61 16, 0 0" stroke="#1971c2" stroke-width="2" fill="none"></path></g></g><mask></mask><g transform="translate(52.46533830674724 192.61990407673852) rotate(0 6.6334991455078125 12.44004796163074)"><text x="0" y="17.435971223021586" font-family="Virgil, Segoe UI Emoji" font-size="19.904076738609113px" fill="#1971c2" text-anchor="start" style="white-space: pre;" direction="ltr" dominant-baseline="alphabetic">a</text></g><g transform="translate(10 143.3573141486811) rotate(0 5.0522003173828125 12.44004796163074)"><text x="0" y="17.43597122302158" font-family="Virgil, Segoe UI Emoji" font-size="19.90407673860911px" fill="#1971c2" text-anchor="start" style="white-space: pre;" direction="ltr" dominant-baseline="alphabetic">b</text></g><g transform="translate(150.91090762643796 10) rotate(0 4.992530822753906 12.44004796163074)"><text x="0" y="17.435971223021586" font-family="Virgil, Segoe UI Emoji" font-size="19.904076738609113px" fill="#1971c2" text-anchor="start" style="white-space: pre;" direction="ltr" dominant-baseline="alphabetic">c</text></g><g transform="translate(204.7116246212015 74.68824940047966) rotate(0 5.6588592529296875 12.44004796163074)"><text x="0" y="17.435971223021586" font-family="Virgil, Segoe UI Emoji" font-size="19.904076738609113px" fill="#1971c2" text-anchor="start" style="white-space: pre;" direction="ltr" dominant-baseline="alphabetic">d</text></g><g transform="translate(51.85010234519649 164.4457651923044) rotate(0 0.00004999999998744897 0.00004999999998744897)" stroke="none"><path fill="#f08c00" d="M 3.14,-3.14 Q 3.14,-3.14 3.55,-2.55 3.97,-1.97 4.18,-1.28 4.40,-0.59 4.38,0.11 4.36,0.83 4.11,1.51 3.86,2.18 3.41,2.74 2.96,3.30 2.36,3.69 1.75,4.07 1.05,4.25 0.36,4.42 -0.35,4.36 -1.07,4.30 -1.73,4.02 -2.39,3.74 -2.92,3.26 -3.46,2.78 -3.81,2.15 -4.16,1.53 -4.30,0.82 -4.43,0.11 -4.34,-0.59 -4.24,-1.30 -3.92,-1.94 -3.60,-2.59 -3.09,-3.09 -2.59,-3.60 -1.94,-3.92 -1.30,-4.24 -0.59,-4.34 0.12,-4.43 0.82,-4.30 1.53,-4.16 2.15,-3.81 2.78,-3.46 3.26,-2.92 3.74,-2.39 4.02,-1.73 4.31,-1.07 4.36,-0.35 4.42,0.36 4.25,1.05 4.07,1.75 3.69,2.36 3.30,2.96 2.74,3.41 2.18,3.86 1.51,4.11 0.83,4.36 0.11,4.38 -0.60,4.40 -1.28,4.18 -1.97,3.97 -2.55,3.55 -3.14,3.13 -3.14,3.14 -3.14,3.14 -3.47,2.71 -3.80,2.29 -4.02,1.80 -4.24,1.32 -4.33,0.79 -4.43,0.26 -4.40,-0.26 -4.36,-0.80 -4.20,-1.31 -4.04,-1.82 -3.77,-2.28 -3.49,-2.73 -3.11,-3.11 -2.73,-3.49 -2.28,-3.77 -1.82,-4.05 -1.31,-4.20 -0.80,-4.36 -0.26,-4.40 0.26,-4.43 0.79,-4.33 1.32,-4.24 1.80,-4.02 2.29,-3.80 2.71,-3.47 3.14,-3.14 3.14,-3.14 L 3.14,-3.14 Z"></path></g><g transform="translate(88.68007891753001 132.92953300778595) rotate(0 0.00004999999998744897 0.00004999999998744897)" stroke="none"><path fill="#f08c00" d="M 3.14,-3.14 Q 3.14,-3.14 3.55,-2.55 3.97,-1.97 4.18,-1.28 4.40,-0.59 4.38,0.11 4.36,0.83 4.11,1.51 3.86,2.18 3.41,2.74 2.96,3.30 2.36,3.69 1.75,4.07 1.05,4.25 0.36,4.42 -0.35,4.36 -1.07,4.30 -1.73,4.02 -2.39,3.74 -2.92,3.26 -3.46,2.78 -3.81,2.15 -4.16,1.53 -4.30,0.82 -4.43,0.11 -4.34,-0.59 -4.24,-1.30 -3.92,-1.94 -3.60,-2.59 -3.09,-3.09 -2.59,-3.60 -1.94,-3.92 -1.30,-4.24 -0.59,-4.34 0.12,-4.43 0.82,-4.30 1.53,-4.16 2.15,-3.81 2.78,-3.46 3.26,-2.92 3.74,-2.39 4.02,-1.73 4.31,-1.07 4.36,-0.35 4.42,0.36 4.25,1.05 4.07,1.75 3.69,2.36 3.30,2.96 2.74,3.41 2.18,3.86 1.51,4.11 0.83,4.36 0.11,4.38 -0.60,4.40 -1.28,4.18 -1.97,3.97 -2.55,3.55 -3.14,3.13 -3.14,3.14 -3.14,3.14 -3.47,2.71 -3.80,2.29 -4.02,1.80 -4.24,1.32 -4.33,0.79 -4.43,0.26 -4.40,-0.26 -4.36,-0.80 -4.20,-1.31 -4.04,-1.82 -3.77,-2.28 -3.49,-2.73 -3.11,-3.11 -2.73,-3.49 -2.28,-3.77 -1.82,-4.05 -1.31,-4.20 -0.80,-4.36 -0.26,-4.40 0.26,-4.43 0.79,-4.33 1.32,-4.24 1.80,-4.02 2.29,-3.80 2.71,-3.47 3.14,-3.14 3.14,-3.14 L 3.14,-3.14 Z"></path></g><g transform="translate(120.06126537029024 105.08982496417957) rotate(0 0.00004999999998744897 0.00004999999998744897)" stroke="none"><path fill="#f08c00" d="M 3.14,-3.14 Q 3.14,-3.14 3.55,-2.55 3.97,-1.97 4.18,-1.28 4.40,-0.59 4.38,0.11 4.36,0.83 4.11,1.51 3.86,2.18 3.41,2.74 2.96,3.30 2.36,3.69 1.75,4.07 1.05,4.25 0.36,4.42 -0.35,4.36 -1.07,4.30 -1.73,4.02 -2.39,3.74 -2.92,3.26 -3.46,2.78 -3.81,2.15 -4.16,1.53 -4.30,0.82 -4.43,0.11 -4.34,-0.59 -4.24,-1.30 -3.92,-1.94 -3.60,-2.59 -3.09,-3.09 -2.59,-3.60 -1.94,-3.92 -1.30,-4.24 -0.59,-4.34 0.12,-4.43 0.82,-4.30 1.53,-4.16 2.15,-3.81 2.78,-3.46 3.26,-2.92 3.74,-2.39 4.02,-1.73 4.31,-1.07 4.36,-0.35 4.42,0.36 4.25,1.05 4.07,1.75 3.69,2.36 3.30,2.96 2.74,3.41 2.18,3.86 1.51,4.11 0.83,4.36 0.11,4.38 -0.60,4.40 -1.28,4.18 -1.97,3.97 -2.55,3.55 -3.14,3.13 -3.14,3.14 -3.14,3.14 -3.47,2.71 -3.80,2.29 -4.02,1.80 -4.24,1.32 -4.33,0.79 -4.43,0.26 -4.40,-0.26 -4.36,-0.80 -4.20,-1.31 -4.04,-1.82 -3.77,-2.28 -3.49,-2.73 -3.11,-3.11 -2.73,-3.49 -2.28,-3.77 -1.82,-4.05 -1.31,-4.20 -0.80,-4.36 -0.26,-4.40 0.26,-4.43 0.79,-4.33 1.32,-4.24 1.80,-4.02 2.29,-3.80 2.71,-3.47 3.14,-3.14 3.14,-3.14 L 3.14,-3.14 Z"></path></g><g transform="translate(152.14100578863173 78.80031084205712) rotate(0 0.00005000000000165983 0.00004999999998744897)" stroke="none"><path fill="#f08c00" d="M 3.14,-3.14 Q 3.14,-3.14 3.55,-2.55 3.97,-1.97 4.18,-1.28 4.40,-0.59 4.38,0.11 4.36,0.83 4.11,1.51 3.86,2.18 3.41,2.74 2.96,3.30 2.36,3.69 1.75,4.07 1.05,4.25 0.36,4.42 -0.35,4.36 -1.07,4.30 -1.73,4.02 -2.39,3.74 -2.92,3.26 -3.46,2.78 -3.81,2.15 -4.16,1.53 -4.30,0.82 -4.43,0.11 -4.34,-0.59 -4.24,-1.30 -3.92,-1.94 -3.60,-2.59 -3.09,-3.09 -2.59,-3.60 -1.94,-3.92 -1.30,-4.24 -0.59,-4.34 0.12,-4.43 0.82,-4.30 1.53,-4.16 2.15,-3.81 2.78,-3.46 3.26,-2.92 3.74,-2.39 4.02,-1.73 4.31,-1.07 4.36,-0.35 4.42,0.36 4.25,1.05 4.07,1.75 3.69,2.36 3.30,2.96 2.74,3.41 2.18,3.86 1.51,4.11 0.83,4.36 0.11,4.38 -0.60,4.40 -1.28,4.18 -1.97,3.97 -2.55,3.55 -3.14,3.13 -3.14,3.14 -3.14,3.14 -3.47,2.71 -3.80,2.29 -4.02,1.80 -4.24,1.32 -4.33,0.79 -4.43,0.26 -4.40,-0.26 -4.36,-0.80 -4.20,-1.31 -4.04,-1.82 -3.77,-2.28 -3.49,-2.73 -3.11,-3.11 -2.73,-3.49 -2.28,-3.77 -1.82,-4.05 -1.31,-4.20 -0.80,-4.36 -0.26,-4.40 0.26,-4.43 0.79,-4.33 1.32,-4.24 1.80,-4.02 2.29,-3.80 2.71,-3.47 3.14,-3.14 3.14,-3.14 L 3.14,-3.14 Z"></path></g></svg>