<svg version="1.1" xmlns="http://www.w3.org/2000/svg" viewBox="0 0 282.47996520996094 243" width="564.9599304199219" height="486">
  <!-- svg-source:excalidraw -->
  
  <defs>
    <style class="style-fonts">
      @font-face {
        font-family: "Virgil";
        src: url("https://excalidraw.com/Virgil.woff2");
      }
      @font-face {
        font-family: "Cascadia";
        src: url("https://excalidraw.com/Cascadia.woff2");
      }
      @font-face {
        font-family: "Assistant";
        src: url("https://excalidraw.com/Assistant-Regular.woff2");
      }
    </style>
    
  </defs>
  <rect x="0" y="0" width="282.47996520996094" height="243" fill="#ffffff"></rect><g transform="translate(10 30) rotate(0 7.639991760253906 12.5)"><text x="0" y="17.52" font-family="Virgil, Segoe UI Emoji" font-size="20px" fill="#2f9e44" text-anchor="start" style="white-space: pre;" direction="ltr" dominant-baseline="alphabetic">p1</text></g><g transform="translate(182.5 208) rotate(0 12.04998779296875 12.5)"><text x="0" y="17.52" font-family="Virgil, Segoe UI Emoji" font-size="20px" fill="#2f9e44" text-anchor="start" style="white-space: pre;" direction="ltr" dominant-baseline="alphabetic">p2</text></g><g transform="translate(249 10) rotate(0 11.739982604980469 12.5)"><text x="0" y="17.52" font-family="Virgil, Segoe UI Emoji" font-size="20px" fill="#2f9e44" text-anchor="start" style="white-space: pre;" direction="ltr" dominant-baseline="alphabetic">p3</text></g><g stroke-linecap="round"><g transform="translate(169 191) rotate(0 -62.5 -67.5)"><path d="M0 0 C-35.99 -38.87, -71.98 -77.73, -125 -135 M0 0 C-45.32 -48.94, -90.64 -97.89, -125 -135" stroke="#2f9e44" stroke-width="1" fill="none"></path></g><g transform="translate(169 191) rotate(0 -62.5 -67.5)"><path d="M-22.23 -11.43 C-15.83 -8.14, -9.43 -4.85, 0 0 M-22.23 -11.43 C-14.17 -7.29, -6.11 -3.14, 0 0" stroke="#2f9e44" stroke-width="1" fill="none"></path></g><g transform="translate(169 191) rotate(0 -62.5 -67.5)"><path d="M-9.69 -23.05 C-6.9 -16.41, -4.11 -9.78, 0 0 M-9.69 -23.05 C-6.17 -14.69, -2.66 -6.34, 0 0" stroke="#2f9e44" stroke-width="1" fill="none"></path></g></g><mask></mask><g stroke-linecap="round"><g transform="translate(222 25) rotate(0 -89 14.75)"><path d="M0 0 C-55.25 9.16, -110.5 18.31, -178 29.5 M0 0 C-66.06 10.95, -132.12 21.9, -178 29.5" stroke="#2f9e44" stroke-width="1" fill="none"></path></g><g transform="translate(222 25) rotate(0 -89 14.75)"><path d="M-21.78 12.28 C-15.02 8.47, -8.26 4.66, 0 0 M-21.78 12.28 C-13.7 7.72, -5.61 3.16, 0 0" stroke="#2f9e44" stroke-width="1" fill="none"></path></g><g transform="translate(222 25) rotate(0 -89 14.75)"><path d="M-24.57 -4.59 C-16.95 -3.17, -9.32 -1.74, 0 0 M-24.57 -4.59 C-15.45 -2.89, -6.33 -1.18, 0 0" stroke="#2f9e44" stroke-width="1" fill="none"></path></g></g><mask></mask><g stroke-linecap="round"><g transform="translate(168.5 189) rotate(0 27 -82.75)"><path d="M0 0 C13.16 -40.32, 26.31 -80.64, 54 -165.5 M0 0 C13.58 -41.62, 27.16 -83.24, 54 -165.5" stroke="#2f9e44" stroke-width="1" fill="none"></path></g></g><mask></mask></svg>