<svg version="1.1" xmlns="http://www.w3.org/2000/svg" viewBox="0 0 392 436.5" width="392" height="436.5">
  <!-- svg-source:excalidraw -->
  
  <defs>
    <style class="style-fonts">
      @font-face {
        font-family: "Virgil";
        src: url("https://excalidraw.com/Virgil.woff2");
      }
      @font-face {
        font-family: "Cascadia";
        src: url("https://excalidraw.com/Cascadia.woff2");
      }
      @font-face {
        font-family: "Assistant";
        src: url("https://excalidraw.com/Assistant-Regular.woff2");
      }
    </style>
    
  </defs>
  <rect x="0" y="0" width="392" height="436.5" fill="#ffffff"></rect><g stroke-linecap="round"><g transform="translate(142 11.5) rotate(0 -2 207.5)"><path d="M0 0 C-1.18 104.34, -2.95 211, -4 415 M0 0 C0.06 101.15, -0.6 202.92, -4 415" stroke="#e03131" stroke-width="2" fill="none"></path></g></g><mask></mask><g stroke-linecap="round"><g transform="translate(34 277.8488519211082) rotate(0 174 -1)"><path d="M0 0 C84.1 -2.99, 167.48 -3.85, 348 -2 M0 0 C73.82 -0.31, 148.69 -0.68, 348 -2" stroke="#e03131" stroke-width="2" fill="none"></path></g></g><mask></mask><g stroke-linecap="round"><g transform="translate(294.99817061169324 10) rotate(0 -2 207.5)"><path d="M0 0 C0.16 97.05, -1.9 194.61, -4 415 M0 0 C-1.87 163.98, -3.9 327.64, -4 415" stroke="#e03131" stroke-width="2" fill="none"></path></g></g><mask></mask><g stroke-linecap="round" transform="translate(142 127.5) rotate(0 75.5 74)"><path d="M0 0 C48.22 -0.73, 94.62 -1.6, 151 0 M0 0 C43.58 0.76, 86.13 1.09, 151 0 M151 0 C151.77 35.66, 151.65 68.04, 151 148 M151 0 C151.43 40.01, 150.79 79.4, 151 148 M151 148 C117.51 147.73, 84.01 147.78, 0 148 M151 148 C93.96 149.63, 34.95 149.57, 0 148 M0 148 C-1.49 92.12, -0.5 34.34, 0 0 M0 148 C2.08 108.97, 1.28 68.87, 0 0" stroke="#2f9e44" stroke-width="2" fill="none"></path></g><g stroke-linecap="round"><g transform="translate(219 195.5) rotate(0 -104.5 58)"><path d="M0 0 C-75.99 41.54, -152.37 82.48, -209 116 M0 0 C-63.41 34.64, -126.53 69.75, -209 116" stroke="#e03131" stroke-width="2" fill="none"></path></g><g transform="translate(219 195.5) rotate(0 -104.5 58)"><path d="M-192.67 97.07 C-199.13 103.58, -205.33 108.88, -209 116 M-192.67 97.07 C-197.89 102.37, -202.19 107.85, -209 116" stroke="#e03131" stroke-width="2" fill="none"></path></g><g transform="translate(219 195.5) rotate(0 -104.5 58)"><path d="M-184.32 111.99 C-193.93 113.05, -203.18 112.91, -209 116 M-184.32 111.99 C-192.16 112.73, -199.01 113.67, -209 116" stroke="#e03131" stroke-width="2" fill="none"></path></g></g><mask></mask><g transform="translate(138 237.5) rotate(0 0.00004999999998744897 0.00004999999998744897)" stroke="none"><path fill="#e03131" d="M 3.14,-3.14 Q 3.14,-3.14 3.55,-2.55 3.97,-1.97 4.18,-1.28 4.40,-0.59 4.38,0.11 4.36,0.83 4.11,1.51 3.86,2.18 3.41,2.74 2.96,3.30 2.36,3.69 1.75,4.08 1.05,4.25 0.36,4.42 -0.35,4.36 -1.07,4.31 -1.73,4.02 -2.39,3.74 -2.92,3.26 -3.46,2.78 -3.81,2.15 -4.16,1.53 -4.30,0.82 -4.43,0.11 -4.34,-0.59 -4.24,-1.30 -3.92,-1.94 -3.60,-2.59 -3.09,-3.09 -2.59,-3.60 -1.94,-3.92 -1.30,-4.24 -0.59,-4.34 0.12,-4.43 0.82,-4.30 1.53,-4.16 2.15,-3.81 2.78,-3.46 3.26,-2.92 3.74,-2.39 4.02,-1.73 4.31,-1.07 4.36,-0.35 4.42,0.36 4.25,1.05 4.07,1.75 3.69,2.36 3.30,2.96 2.74,3.41 2.18,3.86 1.51,4.11 0.83,4.36 0.11,4.38 -0.60,4.40 -1.28,4.18 -1.97,3.97 -2.55,3.55 -3.14,3.13 -3.14,3.14 -3.14,3.14 -3.47,2.71 -3.80,2.29 -4.02,1.80 -4.24,1.32 -4.33,0.79 -4.43,0.26 -4.40,-0.26 -4.36,-0.80 -4.20,-1.31 -4.04,-1.82 -3.77,-2.28 -3.49,-2.73 -3.11,-3.11 -2.73,-3.49 -2.28,-3.77 -1.82,-4.05 -1.31,-4.20 -0.80,-4.36 -0.26,-4.40 0.26,-4.43 0.79,-4.33 1.32,-4.24 1.80,-4.02 2.29,-3.80 2.71,-3.47 3.14,-3.14 3.14,-3.14 L 3.14,-3.14 Z"></path></g><g transform="translate(68 277.5) rotate(0 0.00004999999998744897 0.00004999999998744897)" stroke="none"><path fill="#e03131" d="M 3.14,-3.14 Q 3.14,-3.14 3.55,-2.55 3.97,-1.97 4.18,-1.28 4.40,-0.59 4.38,0.11 4.36,0.83 4.11,1.51 3.86,2.18 3.41,2.74 2.96,3.30 2.36,3.69 1.75,4.08 1.05,4.25 0.36,4.42 -0.35,4.36 -1.07,4.31 -1.73,4.02 -2.39,3.74 -2.92,3.26 -3.46,2.78 -3.81,2.15 -4.16,1.53 -4.30,0.82 -4.43,0.11 -4.34,-0.59 -4.24,-1.30 -3.92,-1.94 -3.60,-2.59 -3.09,-3.09 -2.59,-3.60 -1.94,-3.92 -1.30,-4.24 -0.59,-4.34 0.12,-4.43 0.82,-4.30 1.53,-4.16 2.15,-3.81 2.78,-3.46 3.26,-2.92 3.74,-2.39 4.02,-1.73 4.31,-1.07 4.36,-0.35 4.42,0.36 4.25,1.05 4.07,1.75 3.69,2.36 3.30,2.96 2.74,3.41 2.18,3.86 1.51,4.11 0.83,4.36 0.11,4.38 -0.60,4.40 -1.28,4.18 -1.97,3.97 -2.55,3.55 -3.14,3.13 -3.14,3.14 -3.14,3.14 -3.47,2.71 -3.80,2.29 -4.02,1.80 -4.24,1.32 -4.33,0.79 -4.43,0.26 -4.40,-0.26 -4.36,-0.80 -4.20,-1.31 -4.04,-1.82 -3.77,-2.28 -3.49,-2.73 -3.11,-3.11 -2.73,-3.49 -2.28,-3.77 -1.82,-4.05 -1.31,-4.20 -0.80,-4.36 -0.26,-4.40 0.26,-4.43 0.79,-4.33 1.32,-4.24 1.80,-4.02 2.29,-3.80 2.71,-3.47 3.14,-3.14 3.14,-3.14 L 3.14,-3.14 Z"></path></g></svg>