<svg version="1.1" xmlns="http://www.w3.org/2000/svg" viewBox="0 0 366.20940589113866 202.11087758011763" width="366.20940589113866" height="202.11087758011763">
  <!-- svg-source:excalidraw -->
  
  <defs>
    <style class="style-fonts">
      @font-face {
        font-family: "Virgil";
        src: url("https://excalidraw.com/Virgil.woff2");
      }
      @font-face {
        font-family: "Cascadia";
        src: url("https://excalidraw.com/Cascadia.woff2");
      }
      @font-face {
        font-family: "Assistant";
        src: url("https://excalidraw.com/Assistant-Regular.woff2");
      }
    </style>
    
  </defs>
  <rect x="0" y="0" width="366.20940589113866" height="202.11087758011763" fill="#ffffff"></rect><g stroke-linecap="round"><g transform="translate(72.7720270625648 187.3866803819202) rotate(0 -1.1368683772161603e-13 -80.31135236936103)"><path d="M-1.16 -0.11 C-1.13 -26.86, -1.04 -134.22, -0.67 -161.02 M0.44 -1.22 C0.94 -27.74, 1.62 -133.27, 1.69 -159.69" stroke="#1e1e1e" stroke-width="1" fill="none"></path></g><g transform="translate(72.7720270625648 187.3866803819202) rotate(0 -1.1368683772161603e-13 -80.31135236936103)"><path d="M10.12 -136.15 C8.11 -142.74, 5.71 -145.2, 1.69 -159.69 M10.12 -136.15 C7.64 -143.06, 6.03 -149.62, 1.69 -159.69" stroke="#1e1e1e" stroke-width="1" fill="none"></path></g><g transform="translate(72.7720270625648 187.3866803819202) rotate(0 -1.1368683772161603e-13 -80.31135236936103)"><path d="M-6.98 -136.24 C-5.07 -142.64, -3.56 -145.09, 1.69 -159.69 M-6.98 -136.24 C-4.71 -143.23, -1.58 -149.76, 1.69 -159.69" stroke="#1e1e1e" stroke-width="1" fill="none"></path></g></g><mask></mask><g stroke-linecap="round"><g transform="translate(10.412624046355404 109.90984633147798) rotate(0 66.13876077476789 0.9448394396394519)"><path d="M0.69 0.65 C22.69 1.07, 111.39 1.72, 133.16 1.81 M-0.41 -0.06 C21.42 0.62, 110.32 2.95, 132.68 3.31" stroke="#1e1e1e" stroke-width="1" fill="none"></path></g><g transform="translate(10.412624046355404 109.90984633147798) rotate(0 66.13876077476789 0.9448394396394519)"><path d="M109.01 11.34 C119.43 9.53, 127.52 3.33, 132.68 3.31 M109.01 11.34 C113.85 8.34, 120.4 7.11, 132.68 3.31" stroke="#1e1e1e" stroke-width="1" fill="none"></path></g><g transform="translate(10.412624046355404 109.90984633147798) rotate(0 66.13876077476789 0.9448394396394519)"><path d="M109.38 -5.76 C119.56 -0.85, 127.5 -0.34, 132.68 3.31 M109.38 -5.76 C114.13 -4.64, 120.59 -1.74, 132.68 3.31" stroke="#1e1e1e" stroke-width="1" fill="none"></path></g></g><mask></mask><g stroke-linecap="round" transform="translate(35.92328891662282 79.67498426301245) rotate(0 34.959059266663076 29.290022628825795)"><path d="M0 0 C24.03 1.48, 48.87 0.73, 69.92 0 M0 0 C16.5 -0.65, 31.42 -0.4, 69.92 0 M69.92 0 C69.89 18.13, 69.89 38.04, 69.92 58.58 M69.92 0 C71.34 13.95, 70.58 27.42, 69.92 58.58 M69.92 58.58 C48.27 60.54, 25.56 57.29, 0 58.58 M69.92 58.58 C49.31 58.02, 28.16 57.98, 0 58.58 M0 58.58 C-0.78 44.77, -0.46 29.12, 0 0 M0 58.58 C-0.5 38.72, 0.22 17.1, 0 0" stroke="#1e1e1e" stroke-width="1" fill="none"></path></g><g stroke-linecap="round"><g transform="translate(227.7256951634497 114.63404352967518) rotate(0 59.052464977471345 0.9448394396395656)"><path d="M0 0 C26.96 0.18, 48.8 -0.37, 118.1 1.89 M0 0 C31.74 0.61, 65.41 -0.24, 118.1 1.89" stroke="#1e1e1e" stroke-width="1" fill="none"></path></g><g transform="translate(227.7256951634497 114.63404352967518) rotate(0 59.052464977471345 0.9448394396395656)"><path d="M94.38 9.76 C101.15 7.58, 102.81 4.94, 118.1 1.89 M94.38 9.76 C100.01 8.3, 107.54 4.74, 118.1 1.89" stroke="#1e1e1e" stroke-width="1" fill="none"></path></g><g transform="translate(227.7256951634497 114.63404352967518) rotate(0 59.052464977471345 0.9448394396395656)"><path d="M94.87 -7.33 C101.55 -5.86, 103.1 -4.84, 118.1 1.89 M94.87 -7.33 C100.33 -4.06, 107.73 -2.88, 118.1 1.89" stroke="#1e1e1e" stroke-width="1" fill="none"></path></g></g><mask></mask><g stroke-linecap="round"><g transform="translate(282.526382662543 192.11087758011763) rotate(0 1.4172591594593769 -80.31135236936103)"><path d="M0 0 C1.87 -33.95, 0.48 -66.02, 2.83 -160.62 M0 0 C2.15 -61.16, 3.57 -121.89, 2.83 -160.62" stroke="#1e1e1e" stroke-width="1" fill="none"></path></g><g transform="translate(282.526382662543 192.11087758011763) rotate(0 1.4172591594593769 -80.31135236936103)"><path d="M11.46 -137.16 C11.13 -142.69, 7.36 -146.35, 2.83 -160.62 M11.46 -137.16 C8.47 -146.71, 5.58 -155.72, 2.83 -160.62" stroke="#1e1e1e" stroke-width="1" fill="none"></path></g><g transform="translate(282.526382662543 192.11087758011763) rotate(0 1.4172591594593769 -80.31135236936103)"><path d="M-5.65 -137.1 C-2.43 -142.67, -2.65 -146.34, 2.83 -160.62 M-5.65 -137.1 C-2.18 -146.51, 1.38 -155.55, 2.83 -160.62" stroke="#1e1e1e" stroke-width="1" fill="none"></path></g></g><mask></mask><g stroke-linecap="round"><g transform="translate(309.9267264120897 88.17853921976803) rotate(0 0.9448394396395088 -16.062270473872218)"><path d="M0 0 C1.06 -11.17, 0.43 -23.7, 1.89 -32.12 M0 0 C0.83 -11.25, 1.93 -23.84, 1.89 -32.12" stroke="#1e1e1e" stroke-width="1" fill="none"></path></g></g><mask></mask><g stroke-linecap="round"><g transform="translate(248.51216283551935 114.63404352967518) rotate(0 0.4724197198198681 1.8896788792791313)"><path d="M0 0 C0.3 1.32, 0.67 2.57, 0.94 3.78 M0 0 C0.23 0.95, 0.47 1.88, 0.94 3.78" stroke="#1e1e1e" stroke-width="1" fill="none"></path></g></g><mask></mask><g stroke-linecap="round"><g transform="translate(250.4018417147986 119.35824072787295) rotate(0 -0.4724197198197544 14.645011314412898)"><path d="M0 0 C-0.28 8.26, -1.02 14.42, -0.94 29.29 M0 0 C-0.72 9.13, -0.55 17.17, -0.94 29.29" stroke="#1e1e1e" stroke-width="1" fill="none"></path></g></g><mask></mask><g stroke-linecap="round"><g transform="translate(308.9818869724502 58.88851659094223) rotate(0 -28.81760290900604 27.872763469366475)"><path d="M0 0 C-16.33 16.34, -36.12 36.19, -57.64 55.75 M0 0 C-17.24 16.88, -34.96 34.05, -57.64 55.75" stroke="#1e1e1e" stroke-width="1" fill="none"></path></g></g><mask></mask><g stroke-linecap="round"><g transform="translate(308.9818869724502 91.95789697832629) rotate(0 -27.872763469366532 27.400343749546664)"><path d="M0 0 C-14.07 13.66, -26.39 28, -55.75 54.8 M0 0 C-14.08 13.75, -27.69 27.4, -55.75 54.8" stroke="#1e1e1e" stroke-width="1" fill="none"></path></g></g><mask></mask><g stroke-linecap="round"><g transform="translate(105.84140744994852 92.9027364179658) rotate(0 15.117431034232709 0)"><path d="M0 0 C7.22 -0.43, 14.63 0.78, 30.23 0 M0 0 C9.67 -0.09, 19.73 -0.01, 30.23 0" stroke="#1e1e1e" stroke-width="1" fill="none"></path></g><g transform="translate(105.84140744994852 92.9027364179658) rotate(0 15.117431034232709 0)"><path d="M16.02 5.14 C19.52 3.61, 23.15 3.35, 30.23 0 M16.02 5.14 C20.55 3.4, 25.37 1.81, 30.23 0" stroke="#1e1e1e" stroke-width="1" fill="none"></path></g><g transform="translate(105.84140744994852 92.9027364179658) rotate(0 15.117431034232709 0)"><path d="M16.04 -5.2 C19.51 -4.37, 23.14 -2.28, 30.23 0 M16.04 -5.2 C20.57 -3.62, 25.39 -1.88, 30.23 0" stroke="#1e1e1e" stroke-width="1" fill="none"></path></g></g><mask></mask><g stroke-linecap="round"><g transform="translate(316.5406024895665 69.28175042697717) rotate(0 11.338073275674446 -8.503554956755863)"><path d="M0 0 C6.15 -5.57, 12.85 -10.82, 22.68 -17.01 M0 0 C7.63 -5.59, 15.92 -12.14, 22.68 -17.01" stroke="#1e1e1e" stroke-width="1" fill="none"></path></g><g transform="translate(316.5406024895665 69.28175042697717) rotate(0 11.338073275674446 -8.503554956755863)"><path d="M14.86 -5.19 C16.77 -9.09, 19.08 -12.74, 22.68 -17.01 M14.86 -5.19 C17.4 -9.08, 20.4 -13.63, 22.68 -17.01" stroke="#1e1e1e" stroke-width="1" fill="none"></path></g><g transform="translate(316.5406024895665 69.28175042697717) rotate(0 11.338073275674446 -8.503554956755863)"><path d="M9.09 -12.98 C12.73 -14.56, 16.74 -15.91, 22.68 -17.01 M9.09 -12.98 C13.62 -14.15, 18.63 -16, 22.68 -17.01" stroke="#1e1e1e" stroke-width="1" fill="none"></path></g></g><mask></mask><g transform="translate(65.46941565676366 11) rotate(0 4.689994812011719 12.5)"><text x="0" y="17.52" font-family="Virgil, Segoe UI Emoji" font-size="20px" fill="#1e1e1e" text-anchor="start" style="white-space: pre;" direction="ltr" dominant-baseline="alphabetic">y</text></g><g transform="translate(282.46941565676366 10) rotate(0 4.689994812011719 12.5)"><text x="0" y="17.52" font-family="Virgil, Segoe UI Emoji" font-size="20px" fill="#1e1e1e" text-anchor="start" style="white-space: pre;" direction="ltr" dominant-baseline="alphabetic">y</text></g><g transform="translate(344.96941565676366 114) rotate(0 5.6199951171875 12.5)"><text x="0" y="17.52" font-family="Virgil, Segoe UI Emoji" font-size="20px" fill="#1e1e1e" text-anchor="start" style="white-space: pre;" direction="ltr" dominant-baseline="alphabetic">x</text></g><g transform="translate(123.84942053957616 111.5) rotate(0 5.6199951171875 12.5)"><text x="0" y="17.52" font-family="Virgil, Segoe UI Emoji" font-size="20px" fill="#1e1e1e" text-anchor="start" style="white-space: pre;" direction="ltr" dominant-baseline="alphabetic">x</text></g></svg>