<svg version="1.1" xmlns="http://www.w3.org/2000/svg" viewBox="0 0 442.5541311156005 400.23798265355776" width="350" height="350">
  <!-- svg-source:excalidraw -->
  
  <defs>
    <style class="style-fonts">
      @font-face {
        font-family: "Virgil";
        src: url("https://excalidraw.com/Virgil.woff2");
      }
      @font-face {
        font-family: "Cascadia";
        src: url("https://excalidraw.com/Cascadia.woff2");
      }
      @font-face {
        font-family: "Assistant";
        src: url("https://excalidraw.com/Assistant-Regular.woff2");
      }
    </style>
    
  </defs>
  <rect x="0" y="0" width="442.5541311156005" height="400.23798265355776" fill="#ffffff"></rect><g stroke-linecap="round"><g transform="translate(160 235.12391048446298) rotate(0 0 -76)"><path d="M0 0 C0 -25.33, 0 -126.67, 0 -152 M0 0 C0 -25.33, 0 -126.67, 0 -152" stroke="#1e1e1e" stroke-width="2" fill="none"></path></g><g transform="translate(160 235.12391048446298) rotate(0 0 -76)"><path d="M8.55 -128.51 C6.79 -133.34, 5.03 -138.18, 0 -152 M8.55 -128.51 C5.96 -135.64, 3.36 -142.76, 0 -152" stroke="#1e1e1e" stroke-width="2" fill="none"></path></g><g transform="translate(160 235.12391048446298) rotate(0 0 -76)"><path d="M-8.55 -128.51 C-6.79 -133.34, -5.03 -138.18, 0 -152 M-8.55 -128.51 C-5.96 -135.64, -3.36 -142.76, 0 -152" stroke="#1e1e1e" stroke-width="2" fill="none"></path></g></g><mask></mask><g stroke-linecap="round"><g transform="translate(162 238.12391048446298) rotate(0 -64.5 41)"><path d="M0 0 C-21.5 13.67, -107.5 68.33, -129 82 M0 0 C-21.5 13.67, -107.5 68.33, -129 82" stroke="#1e1e1e" stroke-width="2" fill="none"></path></g><g transform="translate(162 238.12391048446298) rotate(0 -64.5 41)"><path d="M-113.76 62.18 C-119.31 69.4, -124.86 76.62, -129 82 M-113.76 62.18 C-118.44 68.26, -123.11 74.34, -129 82" stroke="#1e1e1e" stroke-width="2" fill="none"></path></g><g transform="translate(162 238.12391048446298) rotate(0 -64.5 41)"><path d="M-104.59 76.61 C-113.48 78.58, -122.37 80.54, -129 82 M-104.59 76.61 C-112.08 78.27, -119.56 79.92, -129 82" stroke="#1e1e1e" stroke-width="2" fill="none"></path></g></g><mask></mask><g stroke-linecap="round"><g transform="translate(164 235.12391048446298) rotate(0 83.5 26)"><path d="M0 0 C27.83 8.67, 139.17 43.33, 167 52 M0 0 C27.83 8.67, 139.17 43.33, 167 52" stroke="#1e1e1e" stroke-width="2" fill="none"></path></g><g transform="translate(164 235.12391048446298) rotate(0 83.5 26)"><path d="M142.03 53.18 C148.12 52.89, 154.22 52.6, 167 52 M142.03 53.18 C149.12 52.84, 156.21 52.51, 167 52" stroke="#1e1e1e" stroke-width="2" fill="none"></path></g><g transform="translate(164 235.12391048446298) rotate(0 83.5 26)"><path d="M147.11 36.85 C151.97 40.55, 156.82 44.25, 167 52 M147.11 36.85 C152.76 41.15, 158.41 45.45, 167 52" stroke="#1e1e1e" stroke-width="2" fill="none"></path></g></g><mask></mask><g transform="translate(11 332.12391048446295) rotate(0 7 9.5)" stroke="none"><path fill="#1e1e1e" d="M 0.20,-1.60 Q 0.20,-1.60 2.52,-1.51 4.85,-1.43 6.85,-0.96 8.85,-0.49 10.18,0.90 11.50,2.30 11.40,4.01 11.30,5.71 9.60,8.28 7.89,10.85 6.20,12.29 4.51,13.73 3.74,14.72 2.96,15.72 2.30,16.49 1.64,17.26 1.45,17.44 1.26,17.62 1.03,17.74 0.81,17.87 0.56,17.93 0.31,18.00 0.05,18.01 -0.20,18.01 -0.45,17.95 -0.70,17.90 -0.93,17.78 -1.16,17.67 -1.36,17.50 -1.56,17.33 -1.71,17.12 -1.86,16.92 -1.96,16.68 -2.05,16.44 -2.09,16.18 -2.13,15.93 -2.10,15.67 -2.07,15.41 -1.99,15.17 -1.90,14.92 -1.76,14.71 -1.62,14.49 0.30,14.55 2.22,14.61 4.30,15.40 6.37,16.19 10.39,16.92 14.41,17.66 14.61,17.70 14.82,17.74 15.01,17.85 15.19,17.96 15.33,18.12 15.47,18.27 15.55,18.47 15.64,18.67 15.65,18.88 15.67,19.09 15.61,19.30 15.56,19.50 15.45,19.68 15.33,19.86 15.16,19.99 15.00,20.12 14.80,20.19 14.60,20.26 14.38,20.27 14.17,20.27 13.97,20.21 13.77,20.14 13.59,20.02 13.42,19.89 13.30,19.72 13.18,19.55 13.12,19.34 13.06,19.14 13.06,18.93 13.07,18.71 13.15,18.52 13.22,18.32 13.36,18.15 13.49,17.99 13.67,17.87 13.85,17.76 14.06,17.71 14.26,17.66 14.48,17.68 14.69,17.70 14.88,17.79 15.08,17.87 15.23,18.02 15.39,18.16 15.49,18.34 15.60,18.53 15.63,18.74 15.67,18.95 15.64,19.16 15.61,19.37 15.52,19.56 15.42,19.75 15.27,19.90 15.12,20.05 14.92,20.14 14.73,20.23 14.52,20.26 14.31,20.28 14.31,20.28 14.31,20.28 11.01,20.64 7.72,20.99 6.12,20.70 4.53,20.42 3.54,19.95 2.55,19.49 2.09,18.38 1.64,17.26 1.45,17.44 1.26,17.62 1.03,17.74 0.81,17.87 0.56,17.93 0.31,18.00 0.05,18.01 -0.20,18.01 -0.45,17.95 -0.70,17.90 -0.93,17.78 -1.16,17.67 -1.36,17.50 -1.56,17.33 -1.71,17.12 -1.86,16.92 -1.96,16.68 -2.05,16.44 -2.09,16.18 -2.13,15.93 -2.10,15.67 -2.07,15.41 -1.99,15.17 -1.90,14.93 -1.76,14.71 -1.62,14.49 -0.91,13.76 -0.21,13.02 0.87,11.82 1.96,10.61 3.31,9.58 4.65,8.56 6.18,5.91 7.70,3.27 6.02,2.93 4.34,2.58 2.07,2.09 -0.20,1.60 -0.38,1.55 -0.57,1.50 -0.74,1.41 -0.92,1.32 -1.06,1.19 -1.21,1.06 -1.32,0.90 -1.43,0.74 -1.50,0.56 -1.56,0.38 -1.59,0.18 -1.61,-0.00 -1.58,-0.19 -1.56,-0.39 -1.49,-0.57 -1.42,-0.75 -1.31,-0.91 -1.20,-1.07 -1.05,-1.20 -0.91,-1.33 -0.73,-1.42 -0.56,-1.51 -0.37,-1.55 -0.18,-1.60 0.00,-1.60 0.20,-1.60 0.20,-1.60 L 0.20,-1.60 Z"></path></g><g transform="translate(11 339.12391048446295) rotate(0 7.5 1)" stroke="none"><path fill="#1e1e1e" d="M 0.51,-1.53 Q 0.51,-1.53 2.36,-1.34 4.21,-1.16 5.86,-0.92 7.51,-0.69 10.58,-0.03 13.65,0.62 13.86,0.66 14.07,0.71 14.25,0.81 14.43,0.92 14.57,1.08 14.71,1.24 14.79,1.44 14.87,1.64 14.88,1.85 14.90,2.06 14.84,2.27 14.79,2.47 14.67,2.65 14.55,2.83 14.38,2.96 14.21,3.09 14.01,3.15 13.81,3.22 13.60,3.23 13.39,3.23 13.18,3.16 12.98,3.09 12.81,2.97 12.64,2.84 12.52,2.67 12.40,2.49 12.34,2.29 12.28,2.08 12.29,1.87 12.30,1.66 12.38,1.46 12.46,1.26 12.59,1.10 12.73,0.94 12.91,0.82 13.09,0.71 13.30,0.67 13.51,0.62 13.72,0.64 13.93,0.66 14.12,0.75 14.32,0.84 14.47,0.98 14.63,1.13 14.73,1.31 14.83,1.50 14.87,1.71 14.90,1.92 14.87,2.13 14.84,2.34 14.74,2.53 14.64,2.72 14.49,2.86 14.33,3.01 14.14,3.10 13.95,3.19 13.74,3.22 13.53,3.24 13.53,3.24 13.53,3.24 10.22,3.60 6.91,3.97 4.80,3.71 2.68,3.46 1.08,2.49 -0.51,1.53 -0.68,1.44 -0.86,1.36 -1.01,1.24 -1.16,1.11 -1.28,0.96 -1.39,0.80 -1.47,0.62 -1.55,0.44 -1.58,0.25 -1.61,0.06 -1.59,-0.12 -1.58,-0.32 -1.52,-0.50 -1.45,-0.69 -1.35,-0.85 -1.25,-1.02 -1.11,-1.15 -0.97,-1.28 -0.80,-1.38 -0.63,-1.48 -0.44,-1.53 -0.25,-1.59 -0.06,-1.60 0.12,-1.60 0.31,-1.57 0.51,-1.53 0.51,-1.53 L 0.51,-1.53 Z"></path></g><g transform="translate(152 32.12391048446298) rotate(0 3 13.5)" stroke="none"><path fill="#1e1e1e" d="M 1.49,0.59 Q 1.49,0.59 1.08,2.06 0.67,3.53 0.80,4.64 0.93,5.76 0.95,6.67 0.96,7.59 0.94,7.83 0.92,8.06 0.84,8.29 0.76,8.52 0.63,8.72 0.50,8.92 0.32,9.09 0.15,9.25 -0.05,9.37 -0.26,9.49 -0.49,9.55 -0.72,9.62 -0.96,9.62 -1.20,9.63 -1.44,9.58 -1.67,9.53 -1.89,9.42 -2.11,9.32 -2.29,9.16 -2.48,9.01 -2.62,8.82 -2.76,8.62 -2.85,8.40 -2.94,8.18 -2.98,7.94 -3.01,7.70 -0.60,6.30 1.80,4.90 3.07,3.16 4.34,1.41 4.66,0.26 4.98,-0.89 5.10,-1.09 5.22,-1.30 5.39,-1.47 5.55,-1.64 5.75,-1.77 5.95,-1.90 6.18,-1.97 6.40,-2.05 6.64,-2.07 6.88,-2.09 7.11,-2.05 7.35,-2.01 7.57,-1.92 7.79,-1.83 7.98,-1.68 8.17,-1.54 8.32,-1.36 8.47,-1.17 8.57,-0.96 8.67,-0.74 8.72,-0.51 8.77,-0.28 8.76,-0.04 8.75,0.19 8.69,0.42 8.62,0.65 8.78,2.96 8.94,5.28 9.24,8.86 9.53,12.44 9.38,15.28 9.23,18.12 9.17,19.83 9.10,21.54 8.77,23.04 8.43,24.55 7.92,25.63 7.41,26.71 6.04,27.76 4.67,28.80 2.89,28.64 1.11,28.48 -0.17,27.34 -1.47,26.20 -1.46,24.32 -1.45,22.44 2.05,20.28 5.55,18.13 5.74,18.03 5.94,17.94 6.15,17.91 6.36,17.88 6.56,17.92 6.77,17.96 6.96,18.07 7.14,18.17 7.28,18.33 7.43,18.49 7.51,18.68 7.59,18.88 7.61,19.09 7.63,19.30 7.58,19.51 7.52,19.72 7.41,19.89 7.29,20.07 7.13,20.21 6.96,20.34 6.76,20.41 6.56,20.49 6.35,20.49 6.14,20.50 5.94,20.43 5.73,20.37 5.56,20.25 5.39,20.12 5.26,19.95 5.14,19.78 5.08,19.57 5.02,19.37 5.02,19.16 5.03,18.95 5.10,18.75 5.18,18.55 5.31,18.38 5.44,18.22 5.62,18.10 5.80,17.99 6.01,17.94 6.21,17.89 6.43,17.90 6.64,17.92 6.83,18.01 7.03,18.09 7.19,18.23 7.34,18.37 7.45,18.56 7.55,18.74 7.59,18.95 7.63,19.16 7.60,19.37 7.57,19.58 7.48,19.77 7.38,19.96 7.23,20.11 7.08,20.26 7.08,20.26 7.08,20.26 4.73,22.33 2.38,24.40 3.43,23.98 4.49,23.57 4.79,22.47 5.09,21.36 5.16,19.62 5.24,17.88 5.41,15.32 5.58,12.76 5.28,9.05 4.98,5.33 4.97,3.56 4.97,1.79 4.97,0.45 4.98,-0.89 5.10,-1.09 5.22,-1.30 5.39,-1.47 5.55,-1.64 5.75,-1.77 5.95,-1.90 6.18,-1.97 6.40,-2.05 6.64,-2.07 6.88,-2.09 7.11,-2.05 7.35,-2.01 7.57,-1.92 7.79,-1.83 7.98,-1.68 8.17,-1.54 8.32,-1.36 8.47,-1.17 8.57,-0.96 8.67,-0.74 8.72,-0.51 8.77,-0.28 8.76,-0.04 8.75,0.19 8.69,0.42 8.62,0.65 8.07,2.13 7.51,3.62 6.68,4.74 5.84,5.87 4.45,7.18 3.07,8.49 2.01,8.04 0.96,7.59 0.94,7.83 0.92,8.06 0.84,8.29 0.76,8.52 0.63,8.72 0.50,8.92 0.32,9.09 0.15,9.25 -0.05,9.37 -0.26,9.49 -0.49,9.55 -0.72,9.62 -0.96,9.62 -1.20,9.63 -1.44,9.58 -1.67,9.53 -1.89,9.42 -2.11,9.32 -2.29,9.16 -2.48,9.01 -2.62,8.82 -2.76,8.62 -2.85,8.40 -2.94,8.18 -2.98,7.94 -3.01,7.70 -3.04,6.79 -3.06,5.88 -3.02,4.04 -2.97,2.21 -2.23,0.80 -1.49,-0.59 -1.40,-0.77 -1.31,-0.94 -1.17,-1.08 -1.04,-1.22 -0.88,-1.33 -0.72,-1.44 -0.54,-1.50 -0.35,-1.57 -0.16,-1.59 0.02,-1.61 0.22,-1.58 0.41,-1.55 0.59,-1.48 0.77,-1.41 0.93,-1.30 1.09,-1.18 1.21,-1.04 1.34,-0.89 1.43,-0.71 1.51,-0.54 1.56,-0.35 1.60,-0.16 1.60,0.02 1.59,0.22 1.54,0.41 1.49,0.59 1.49,0.59 L 1.49,0.59 Z"></path></g><g transform="translate(347 296.12391048446295) rotate(0 8 4.5)" stroke="none"><path fill="#1e1e1e" d="M -0.72,-1.44 Q -0.72,-1.44 1.94,-2.66 4.61,-3.89 6.69,-2.79 8.77,-1.68 9.71,0.52 10.65,2.73 10.68,4.93 10.71,7.14 10.65,8.27 10.58,9.39 12.51,9.62 14.45,9.85 14.66,9.86 14.87,9.87 15.07,9.95 15.27,10.02 15.43,10.16 15.59,10.30 15.70,10.48 15.81,10.66 15.86,10.87 15.90,11.08 15.88,11.29 15.86,11.50 15.77,11.69 15.68,11.89 15.53,12.04 15.39,12.19 15.20,12.29 15.01,12.39 14.80,12.43 14.59,12.46 14.38,12.43 14.17,12.40 13.99,12.30 13.80,12.20 13.65,12.04 13.51,11.89 13.42,11.70 13.33,11.51 13.30,11.29 13.28,11.08 13.32,10.88 13.37,10.67 13.48,10.49 13.59,10.30 13.75,10.17 13.91,10.03 14.11,9.95 14.31,9.87 14.52,9.86 14.73,9.85 14.93,9.90 15.14,9.96 15.32,10.08 15.49,10.20 15.62,10.36 15.75,10.53 15.82,10.73 15.89,10.94 15.89,11.15 15.89,11.36 15.82,11.56 15.75,11.76 15.62,11.93 15.50,12.10 15.32,12.22 15.14,12.34 14.94,12.40 14.74,12.46 14.74,12.46 14.74,12.46 11.65,12.04 8.57,11.62 7.93,9.38 7.30,7.14 7.35,5.48 7.39,3.82 7.01,2.35 6.63,0.88 5.61,0.08 4.58,-0.70 2.65,0.36 0.72,1.44 0.53,1.50 0.35,1.57 0.16,1.59 -0.03,1.61 -0.22,1.58 -0.41,1.55 -0.59,1.48 -0.77,1.41 -0.93,1.30 -1.09,1.18 -1.22,1.03 -1.34,0.89 -1.43,0.71 -1.52,0.54 -1.56,0.35 -1.60,0.16 -1.60,-0.03 -1.59,-0.22 -1.54,-0.41 -1.49,-0.60 -1.40,-0.77 -1.30,-0.94 -1.17,-1.08 -1.04,-1.22 -0.88,-1.33 -0.72,-1.44 -0.72,-1.44 L -0.72,-1.44 Z"></path></g><g transform="translate(365 294.12391048446295) rotate(0 -10.5 6.5)" stroke="none"><path fill="#1e1e1e" d="M 0.22,1.59 Q 0.22,1.59 -1.73,1.97 -3.70,2.35 -5.37,3.51 -7.04,4.67 -10.42,7.63 -13.80,10.59 -15.66,12.08 -17.52,13.57 -17.69,13.69 -17.87,13.80 -18.08,13.86 -18.28,13.91 -18.49,13.90 -18.71,13.88 -18.90,13.80 -19.10,13.72 -19.26,13.58 -19.42,13.44 -19.53,13.26 -19.63,13.08 -19.68,12.87 -19.72,12.66 -19.70,12.45 -19.67,12.24 -19.58,12.05 -19.49,11.85 -19.34,11.70 -19.19,11.55 -19.00,11.45 -18.81,11.36 -18.60,11.32 -18.39,11.29 -18.18,11.33 -17.97,11.37 -17.79,11.47 -17.60,11.57 -17.46,11.73 -17.31,11.88 -17.23,12.08 -17.14,12.27 -17.12,12.48 -17.10,12.69 -17.15,12.90 -17.20,13.11 -17.31,13.29 -17.42,13.47 -17.58,13.60 -17.75,13.74 -17.94,13.81 -18.14,13.89 -18.35,13.90 -18.57,13.91 -18.77,13.85 -18.98,13.79 -19.15,13.67 -19.32,13.55 -19.45,13.38 -19.58,13.21 -19.64,13.00 -19.71,12.80 -19.70,12.59 -19.70,12.38 -19.63,12.18 -19.56,11.98 -19.43,11.81 -19.30,11.64 -19.30,11.64 -19.30,11.64 -17.66,9.90 -16.02,8.15 -12.52,4.86 -9.02,1.56 -6.68,0.18 -4.34,-1.20 -2.28,-1.40 -0.22,-1.59 -0.03,-1.60 0.16,-1.60 0.35,-1.56 0.54,-1.52 0.71,-1.43 0.88,-1.34 1.03,-1.22 1.18,-1.09 1.29,-0.93 1.41,-0.77 1.48,-0.59 1.55,-0.41 1.58,-0.22 1.61,-0.03 1.59,0.15 1.57,0.35 1.50,0.53 1.44,0.71 1.33,0.88 1.23,1.04 1.08,1.17 0.94,1.30 0.77,1.40 0.60,1.49 0.41,1.54 0.22,1.59 0.22,1.59 L 0.22,1.59 Z"></path></g><g transform="translate(149 131.12391048446298) rotate(0 11 7)" stroke="none"><path fill="#1e1e1e" d="M 0.51,1.53 Q 0.51,1.53 -0.28,2.00 -1.09,2.47 -2.69,3.47 -4.30,4.47 -5.04,5.48 -5.78,6.49 -5.89,8.11 -5.99,9.74 -4.59,10.65 -3.19,11.55 -2.11,12.00 -1.03,12.44 0.21,12.49 1.47,12.55 3.08,12.52 4.69,12.50 6.91,12.49 9.12,12.47 10.24,12.47 11.35,12.48 14.28,12.42 17.21,12.36 18.30,12.35 19.39,12.34 20.66,12.12 21.93,11.89 23.38,11.66 24.83,11.43 25.61,10.56 26.40,9.68 27.63,8.44 28.86,7.19 28.52,5.72 28.18,4.25 26.95,3.84 25.72,3.43 24.64,3.15 23.56,2.87 22.94,1.63 22.32,0.39 22.17,0.54 22.02,0.69 21.84,0.79 21.65,0.89 21.44,0.93 21.23,0.96 21.02,0.93 20.81,0.89 20.62,0.79 20.43,0.69 20.29,0.54 20.14,0.38 20.05,0.19 19.97,0.00 19.94,-0.20 19.92,-0.42 19.97,-0.62 20.01,-0.83 20.12,-1.01 20.23,-1.19 20.39,-1.33 20.56,-1.47 20.75,-1.55 20.95,-1.63 21.16,-1.64 21.38,-1.65 21.58,-1.59 21.79,-1.53 21.96,-1.41 22.14,-1.29 22.26,-1.12 22.39,-0.95 22.46,-0.75 22.53,-0.55 22.53,-0.34 22.53,-0.13 22.46,0.06 22.39,0.27 22.26,0.43 22.13,0.60 21.96,0.72 21.78,0.84 21.58,0.90 21.37,0.95 21.16,0.94 20.95,0.93 20.75,0.85 20.55,0.77 20.39,0.63 20.23,0.50 20.12,0.31 20.01,0.13 19.96,-0.07 19.92,-0.27 19.94,-0.49 19.97,-0.70 20.06,-0.89 20.15,-1.08 20.15,-1.08 20.15,-1.08 22.57,-1.91 25.00,-2.73 26.37,-2.02 27.73,-1.30 28.82,-1.22 29.91,-1.13 31.47,0.28 33.02,1.70 33.39,3.75 33.75,5.79 33.69,6.93 33.64,8.07 32.79,9.58 31.94,11.08 31.02,12.38 30.10,13.68 28.88,14.76 27.66,15.83 25.78,16.39 23.91,16.95 22.72,17.32 21.53,17.69 20.46,17.67 19.39,17.65 18.30,17.64 17.21,17.63 14.28,17.57 11.35,17.51 10.23,17.51 9.12,17.52 6.89,17.50 4.66,17.48 3.01,17.42 1.35,17.36 -0.53,17.23 -2.43,17.11 -3.44,16.58 -4.46,16.05 -5.48,15.47 -6.50,14.90 -7.86,13.74 -9.23,12.59 -9.80,11.41 -10.37,10.23 -10.54,8.33 -10.72,6.43 -9.78,5.16 -8.84,3.89 -7.82,2.60 -6.81,1.30 -5.60,0.46 -4.39,-0.37 -3.37,-0.85 -2.35,-1.32 -1.43,-1.42 -0.51,-1.53 -0.31,-1.57 -0.12,-1.60 0.06,-1.60 0.25,-1.59 0.44,-1.53 0.63,-1.48 0.80,-1.38 0.97,-1.28 1.11,-1.15 1.25,-1.02 1.35,-0.85 1.45,-0.69 1.52,-0.50 1.58,-0.32 1.59,-0.12 1.61,0.06 1.58,0.25 1.55,0.44 1.47,0.62 1.39,0.80 1.28,0.96 1.16,1.11 1.01,1.24 0.86,1.36 0.68,1.44 0.51,1.53 0.51,1.53 L 0.51,1.53 Z"></path></g><g transform="translate(176 125.12391048446298) rotate(0 -5.5 5.5)" stroke="none"><path fill="#1e1e1e" d="M 0.51,1.53 Q 0.51,1.53 -0.28,2.03 -1.07,2.54 -2.07,2.91 -3.08,3.29 -4.77,4.01 -6.45,4.73 -7.83,5.68 -9.21,6.64 -8.04,6.64 -6.88,6.64 -5.48,8.44 -4.08,10.24 -3.94,10.39 -3.80,10.55 -3.72,10.75 -3.63,10.94 -3.62,11.15 -3.60,11.37 -3.65,11.57 -3.70,11.78 -3.82,11.96 -3.93,12.14 -4.10,12.27 -4.27,12.40 -4.46,12.47 -4.66,12.55 -4.88,12.55 -5.09,12.56 -5.29,12.50 -5.50,12.43 -5.67,12.31 -5.84,12.18 -5.96,12.01 -6.09,11.84 -6.15,11.63 -6.21,11.43 -6.20,11.22 -6.20,11.01 -6.12,10.81 -6.05,10.61 -5.92,10.44 -5.78,10.28 -5.60,10.16 -5.43,10.05 -5.22,10.00 -5.01,9.95 -4.80,9.97 -4.59,9.98 -4.39,10.07 -4.20,10.15 -4.04,10.29 -3.88,10.44 -3.78,10.62 -3.68,10.81 -3.64,11.02 -3.60,11.22 -3.63,11.44 -3.65,11.65 -3.75,11.84 -3.84,12.03 -3.99,12.18 -4.15,12.33 -4.34,12.42 -4.53,12.51 -4.74,12.54 -4.95,12.57 -5.16,12.53 -5.36,12.49 -5.55,12.38 -5.73,12.28 -5.73,12.28 -5.73,12.28 -8.09,11.09 -10.44,9.91 -11.48,8.68 -12.51,7.46 -12.74,6.35 -12.97,5.25 -11.59,3.51 -10.21,1.77 -8.94,1.24 -7.67,0.72 -6.45,0.21 -5.23,-0.29 -3.80,-0.84 -2.37,-1.39 -1.44,-1.46 -0.51,-1.53 -0.31,-1.57 -0.12,-1.60 0.06,-1.60 0.25,-1.59 0.44,-1.53 0.63,-1.48 0.80,-1.38 0.97,-1.28 1.11,-1.15 1.25,-1.02 1.35,-0.85 1.45,-0.69 1.52,-0.50 1.58,-0.32 1.59,-0.12 1.61,0.06 1.58,0.25 1.55,0.44 1.47,0.62 1.39,0.80 1.28,0.96 1.16,1.11 1.01,1.24 0.86,1.36 0.68,1.44 0.51,1.53 0.51,1.53 L 0.51,1.53 Z"></path></g><g transform="translate(75 281.12391048446295) rotate(0 13.5 5)" stroke="none"><path fill="#1e1e1e" d="M -1.14,1.14 Q -1.14,1.14 -1.84,0.61 -2.55,0.09 -3.00,-1.12 -3.45,-2.35 -3.31,-3.68 -3.17,-5.01 -2.68,-6.55 -2.18,-8.10 -1.44,-9.25 -0.70,-10.40 0.33,-10.99 1.37,-11.58 2.95,-12.62 4.54,-13.66 5.88,-13.82 7.23,-13.98 8.88,-14.42 10.53,-14.87 12.57,-14.97 14.60,-15.08 15.68,-14.73 16.76,-14.39 18.18,-13.94 19.61,-13.48 21.06,-12.41 22.51,-11.34 23.52,-10.50 24.52,-9.66 25.60,-8.23 26.68,-6.80 27.97,-4.74 29.27,-2.68 29.57,-1.37 29.87,-0.06 30.19,1.00 30.51,2.06 30.73,3.25 30.96,4.45 30.75,6.03 30.54,7.61 30.02,9.49 29.50,11.36 28.95,12.82 28.39,14.28 27.33,15.49 26.27,16.71 25.29,17.39 24.32,18.08 22.74,18.54 21.16,19.01 19.35,19.53 17.53,20.04 16.22,20.11 14.91,20.18 13.84,20.21 12.77,20.25 13.86,20.49 14.95,20.74 15.11,20.96 15.27,21.18 15.37,21.43 15.47,21.68 15.51,21.95 15.55,22.22 15.52,22.49 15.49,22.77 15.40,23.02 15.31,23.28 15.16,23.50 15.01,23.73 14.81,23.92 14.61,24.10 14.37,24.23 14.13,24.36 13.87,24.43 13.61,24.50 13.33,24.51 13.06,24.51 12.79,24.45 12.53,24.39 12.29,24.27 12.04,24.15 11.83,23.97 11.63,23.80 10.97,22.67 10.32,21.55 9.40,20.30 8.47,19.04 7.90,17.92 7.33,16.79 6.35,15.95 5.36,15.11 5.29,14.84 5.22,14.57 5.21,14.29 5.21,14.01 5.27,13.73 5.33,13.46 5.45,13.21 5.58,12.96 5.76,12.75 5.94,12.53 6.17,12.37 6.40,12.20 6.66,12.10 6.91,11.99 7.19,11.96 7.47,11.92 7.75,11.94 8.03,11.97 8.29,12.07 8.55,12.16 8.79,12.31 9.02,12.47 9.21,12.67 9.40,12.88 9.54,13.12 9.67,13.37 8.25,12.68 6.82,12.00 8.40,11.62 9.97,11.23 11.14,11.07 12.30,10.90 14.32,10.85 16.34,10.80 16.56,10.79 16.77,10.77 16.97,10.82 17.18,10.87 17.36,10.99 17.54,11.10 17.67,11.27 17.80,11.43 17.88,11.63 17.95,11.83 17.96,12.04 17.96,12.26 17.90,12.46 17.84,12.66 17.71,12.84 17.59,13.01 17.41,13.13 17.24,13.26 17.04,13.32 16.84,13.38 16.62,13.37 16.41,13.37 16.21,13.29 16.01,13.22 15.85,13.09 15.68,12.95 15.57,12.77 15.45,12.60 15.40,12.39 15.35,12.18 15.37,11.97 15.39,11.76 15.47,11.56 15.55,11.37 15.70,11.21 15.84,11.05 16.02,10.95 16.21,10.84 16.42,10.80 16.63,10.77 16.84,10.79 17.05,10.82 17.24,10.92 17.43,11.01 17.58,11.16 17.73,11.31 17.82,11.50 17.92,11.69 17.94,11.90 17.97,12.12 17.93,12.32 17.89,12.53 17.79,12.72 17.68,12.90 17.52,13.04 17.37,13.19 17.17,13.27 16.98,13.35 16.98,13.35 16.98,13.35 14.25,14.50 11.52,15.65 10.14,15.92 8.76,16.19 7.06,15.65 5.36,15.11 5.29,14.84 5.22,14.57 5.21,14.29 5.21,14.01 5.27,13.73 5.33,13.46 5.45,13.21 5.58,12.96 5.76,12.75 5.94,12.53 6.17,12.37 6.40,12.20 6.66,12.10 6.91,11.99 7.19,11.96 7.47,11.92 7.75,11.94 8.03,11.97 8.29,12.07 8.55,12.16 8.79,12.31 9.02,12.47 9.21,12.67 9.40,12.88 9.54,13.12 9.67,13.37 9.80,13.49 9.92,13.61 10.71,14.59 11.49,15.57 12.13,17.09 12.78,18.61 13.87,19.67 14.95,20.74 15.11,20.96 15.27,21.18 15.37,21.43 15.47,21.68 15.51,21.95 15.55,22.22 15.52,22.49 15.49,22.76 15.40,23.02 15.31,23.28 15.16,23.50 15.01,23.73 14.81,23.92 14.61,24.10 14.37,24.23 14.13,24.36 13.87,24.43 13.61,24.50 13.33,24.51 13.06,24.51 12.80,24.45 12.53,24.39 12.29,24.27 12.04,24.15 11.84,23.97 11.63,23.80 10.69,22.73 9.76,21.67 9.14,20.07 8.52,18.47 10.13,17.08 11.73,15.69 13.23,15.72 14.72,15.74 16.19,15.69 17.67,15.63 19.06,15.17 20.45,14.71 21.79,14.24 23.12,13.77 24.10,12.64 25.07,11.51 25.52,10.02 25.96,8.53 26.29,6.81 26.61,5.08 26.10,3.67 25.60,2.25 25.36,0.73 25.12,-0.79 24.12,-2.54 23.13,-4.30 22.45,-5.27 21.78,-6.24 20.80,-7.14 19.83,-8.04 18.89,-8.77 17.95,-9.50 16.57,-9.96 15.18,-10.42 14.01,-10.60 12.83,-10.79 11.45,-10.67 10.08,-10.54 8.82,-10.16 7.57,-9.77 5.93,-9.27 4.29,-8.76 3.23,-8.41 2.17,-8.07 1.48,-6.89 0.80,-5.71 0.52,-4.05 0.25,-2.39 0.69,-1.76 1.14,-1.14 1.26,-0.98 1.38,-0.83 1.46,-0.65 1.54,-0.48 1.57,-0.28 1.61,-0.09 1.59,0.09 1.58,0.29 1.52,0.47 1.47,0.66 1.37,0.82 1.27,0.99 1.13,1.13 0.99,1.27 0.82,1.37 0.66,1.47 0.47,1.52 0.29,1.58 0.09,1.59 -0.09,1.61 -0.28,1.57 -0.48,1.54 -0.65,1.46 -0.83,1.38 -0.98,1.26 -1.14,1.14 -1.14,1.14 L -1.14,1.14 Z"></path></g><g transform="translate(244 239.12391048446298) rotate(0 -14.5 13.5)" stroke="none"><path fill="#1e1e1e" d="M -1.61,0 Q -1.61,0 -1.89,-1.15 -2.18,-2.3 -2.92,-3.20 -3.67,-4.11 -5.34,-3.81 -7.01,-3.50 -8.16,-3.03 -9.31,-2.55 -10.75,-1.77 -12.20,-0.98 -13.25,-0.38 -14.30,0.22 -15.54,1.91 -16.79,3.59 -18.31,5.44 -19.83,7.29 -21.02,8.75 -22.21,10.21 -22.95,11.37 -23.69,12.53 -24.28,13.57 -24.88,14.61 -25.34,15.81 -25.80,17.02 -26.08,18.70 -26.36,20.39 -26.39,21.76 -26.42,23.14 -26.06,24.83 -25.70,26.53 -24.35,27.30 -22.99,28.07 -21.81,28.23 -20.62,28.39 -19.26,28.41 -17.90,28.43 -16.29,27.20 -14.69,25.96 -13.31,25.06 -11.93,24.16 -11.96,25.61 -11.99,27.07 -13.26,26.87 -14.53,26.67 -16.66,25.73 -18.80,24.79 -18.19,22.95 -17.58,21.12 -15.96,20.90 -14.35,20.67 -12.81,20.65 -11.27,20.63 -9.44,21.33 -7.60,22.03 -7.25,23.12 -6.90,24.21 -7.20,25.30 -7.50,26.39 -8.27,28.47 -9.04,30.55 -9.85,32.16 -10.66,33.76 -10.71,33.97 -10.76,34.18 -10.88,34.35 -10.99,34.53 -11.16,34.67 -11.32,34.80 -11.52,34.87 -11.72,34.94 -11.93,34.95 -12.15,34.95 -12.35,34.89 -12.55,34.83 -12.72,34.70 -12.90,34.58 -13.02,34.41 -13.14,34.23 -13.21,34.03 -13.27,33.83 -13.26,33.62 -13.26,33.40 -13.18,33.20 -13.11,33.00 -12.97,32.84 -12.84,32.67 -12.66,32.56 -12.48,32.45 -12.28,32.39 -12.07,32.34 -11.86,32.36 -11.65,32.38 -11.45,32.46 -11.26,32.55 -11.10,32.69 -10.94,32.83 -10.84,33.02 -10.73,33.20 -10.69,33.41 -10.65,33.62 -10.68,33.83 -10.71,34.04 -10.81,34.23 -10.90,34.42 -11.05,34.57 -11.20,34.72 -11.39,34.82 -11.58,34.91 -11.79,34.94 -12.01,34.97 -12.21,34.93 -12.42,34.88 -12.61,34.78 -12.79,34.67 -12.93,34.52 -13.07,34.36 -13.16,34.16 -13.24,33.97 -13.26,33.76 -13.28,33.54 -13.28,33.54 -13.28,33.54 -13.23,30.91 -13.19,28.27 -12.20,26.83 -11.22,25.39 -12.63,25.43 -14.04,25.47 -15.15,25.60 -16.27,25.73 -15.08,23.62 -13.90,21.51 -12.37,21.89 -10.84,22.28 -9.73,23.14 -8.62,24.00 -9.83,26.75 -11.05,29.50 -12.10,30.52 -13.15,31.53 -14.31,32.11 -15.47,32.69 -17.12,33.14 -18.77,33.59 -19.84,33.55 -20.91,33.52 -22.24,33.40 -23.57,33.28 -25.18,32.64 -26.79,31.99 -28.23,30.75 -29.67,29.50 -30.24,28.07 -30.81,26.63 -31.16,24.81 -31.51,22.99 -31.42,21.48 -31.34,19.98 -30.94,17.51 -30.55,15.04 -29.90,13.58 -29.25,12.12 -28.58,10.95 -27.91,9.79 -27.04,8.46 -26.17,7.13 -24.92,5.46 -23.67,3.78 -22.15,2.30 -20.63,0.82 -19.70,-0.46 -18.77,-1.75 -16.92,-3.36 -15.06,-4.97 -13.04,-5.92 -11.01,-6.88 -9.67,-7.39 -8.34,-7.89 -6.24,-8.42 -4.15,-8.94 -2.78,-8.60 -1.41,-8.26 -0.06,-7.24 1.29,-6.23 1.73,-4.26 2.18,-2.3 1.89,-1.15 1.61,0 1.59,0.19 1.56,0.38 1.49,0.56 1.42,0.75 1.31,0.91 1.20,1.07 1.06,1.19 0.91,1.32 0.74,1.41 0.57,1.50 0.38,1.55 0.19,1.60 -0.00,1.60 -0.19,1.60 -0.38,1.55 -0.57,1.50 -0.74,1.41 -0.91,1.32 -1.06,1.19 -1.20,1.07 -1.31,0.91 -1.42,0.74 -1.49,0.56 -1.56,0.38 -1.59,0.19 -1.61,-0.00 -1.61,-0.00 L -1.61,0 Z"></path></g><g stroke-linecap="round"><g transform="translate(119 11.123910484462982) rotate(0 156.5 34)"><path d="M-1.06 -0.05 C51.24 11.27, 261.25 57.01, 313.55 68.46 M0.58 -1.12 C52.8 9.79, 261.01 55.29, 312.9 66.58" stroke="#1e1e1e" stroke-width="1" fill="none"></path></g></g><mask></mask><g stroke-linecap="round"><g transform="translate(119 12.123910484462982) rotate(0 0.5 145)"><path d="M0 0 C0.17 48.33, 0.83 241.67, 1 290 M0 0 C0.17 48.33, 0.83 241.67, 1 290" stroke="#1e1e1e" stroke-width="1" fill="none"></path></g></g><mask></mask><g stroke-linecap="round"><g transform="translate(428.0361099866926 80.13594714669384) rotate(0 -1.493981668884544 153.8555600532293)"><path d="M0 0 C-0.17 21.33, -0.5 76.71, -1 128 C-1.5 179.29, -2.66 277.76, -2.99 307.71 M0 0 C-0.17 21.33, -0.5 76.71, -1 128 C-1.5 179.29, -2.66 277.76, -2.99 307.71" stroke="#1e1e1e" stroke-width="1" fill="none"></path></g></g><mask></mask><g stroke-linecap="round"><g transform="translate(122.92682299177852 303.2972089298761) rotate(0 151.15839067867387 43.470386861840836)"><path d="M0 0 C50.39 14.49, 251.93 72.45, 302.32 86.94 M0 0 C50.39 14.49, 251.93 72.45, 302.32 86.94" stroke="#1e1e1e" stroke-width="1" fill="none"></path></g></g><mask></mask></svg>
