<svg version="1.1" xmlns="http://www.w3.org/2000/svg" viewBox="0 0 292.1137586161882 247.7063049531296" width="292.1137586161882" height="247.7063049531296">
  <!-- svg-source:excalidraw -->
  
  <defs>
    <style class="style-fonts">
      @font-face {
        font-family: "Virgil";
        src: url("https://excalidraw.com/Virgil.woff2");
      }
      @font-face {
        font-family: "Cascadia";
        src: url("https://excalidraw.com/Cascadia.woff2");
      }
      @font-face {
        font-family: "Assistant";
        src: url("https://excalidraw.com/Assistant-Regular.woff2");
      }
    </style>
    
  </defs>
  <rect x="0" y="0" width="292.1137586161882" height="247.7063049531296" fill="#ffffff"></rect><g stroke-linecap="round"><g transform="translate(168.73302585944327 163.0639892216058) rotate(0 1.8896788792790744 -59.52488469729114)"><path d="M-0.01 -0.01 C0.46 -19.96, 2.67 -98.77, 3.49 -118.7 M-1.47 -1.06 C-1.24 -20.87, 1.36 -101.05, 2.38 -120.64" stroke="#1e1e1e" stroke-width="1" fill="none"></path></g><g transform="translate(168.73302585944327 163.0639892216058) rotate(0 1.8896788792790744 -59.52488469729114)"><path d="M9.98 -96.82 C7.06 -105.77, 4.96 -111.91, 2.38 -120.64 M9.98 -96.82 C7.69 -102.63, 6.87 -109.5, 2.38 -120.64" stroke="#1e1e1e" stroke-width="1" fill="none"></path></g><g transform="translate(168.73302585944327 163.0639892216058) rotate(0 1.8896788792790744 -59.52488469729114)"><path d="M-7.11 -97.51 C-3.95 -106.22, 0.02 -112.11, 2.38 -120.64 M-7.11 -97.51 C-5.05 -103.04, -1.52 -109.74, 2.38 -120.64" stroke="#1e1e1e" stroke-width="1" fill="none"></path></g></g><mask></mask><g stroke-linecap="round"><g transform="translate(170.6227047387224 162.11914978196629) rotate(0 -65.66634105494819 0)"><path d="M-0.8 0.3 C-22.47 0.18, -109.05 0.12, -130.63 0.19 M0.98 -0.59 C-20.74 -1.17, -109.29 -1.72, -131.21 -1.83" stroke="#1e1e1e" stroke-width="1" fill="none"></path></g><g transform="translate(170.6227047387224 162.11914978196629) rotate(0 -65.66634105494819 0)"><path d="M-107.67 -10.24 C-113.02 -7.11, -119.1 -4.48, -131.21 -1.83 M-107.67 -10.24 C-116.46 -7.22, -124.75 -3.15, -131.21 -1.83" stroke="#1e1e1e" stroke-width="1" fill="none"></path></g><g transform="translate(170.6227047387224 162.11914978196629) rotate(0 -65.66634105494819 0)"><path d="M-107.77 6.86 C-113.22 5.69, -119.28 4.04, -131.21 -1.83 M-107.77 6.86 C-116.66 3.7, -124.92 1.6, -131.21 -1.83" stroke="#1e1e1e" stroke-width="1" fill="none"></path></g></g><mask></mask><g stroke-linecap="round"><g transform="translate(162.11914978196648 159.28463146304765) rotate(0 42.04535506395962 33.54180010720373)"><path d="M-0.89 0.59 C13.33 11.96, 70.62 56.75, 84.7 67.99 M0.85 -0.14 C15.01 10.92, 70.45 55.29, 84.07 66.35" stroke="#1e1e1e" stroke-width="1" fill="none"></path></g><g transform="translate(162.11914978196648 159.28463146304765) rotate(0 42.04535506395962 33.54180010720373)"><path d="M60.41 58.28 C67.33 61.5, 73.81 61.72, 84.07 66.35 M60.41 58.28 C69.98 61.14, 78.06 65.05, 84.07 66.35" stroke="#1e1e1e" stroke-width="1" fill="none"></path></g><g transform="translate(162.11914978196648 159.28463146304765) rotate(0 42.04535506395962 33.54180010720373)"><path d="M71.13 44.96 C75.33 51.45, 79.12 55.02, 84.07 66.35 M71.13 44.96 C76.56 52.87, 80.55 61.86, 84.07 66.35" stroke="#1e1e1e" stroke-width="1" fill="none"></path></g></g><mask></mask><g transform="translate(268.8860064612346 225.42339223781553) rotate(0 6.613876077476789 5.66903663783728)" stroke="none"><path fill="#1e1e1e" d="M 0.22,-1.59 Q 0.22,-1.59 2.58,-1.21 4.94,-0.83 6.48,2.28 8.02,5.41 8.97,6.98 9.91,8.56 11.52,9.72 13.12,10.88 13.18,11.03 13.24,11.17 13.27,11.33 13.29,11.49 13.28,11.64 13.27,11.80 13.22,11.95 13.17,12.10 13.08,12.24 13.00,12.37 12.88,12.48 12.77,12.59 12.63,12.67 12.49,12.75 12.34,12.79 12.19,12.83 12.03,12.84 11.87,12.85 11.72,12.81 11.56,12.78 11.42,12.71 11.28,12.64 11.15,12.54 11.03,12.44 10.94,12.32 10.84,12.19 11.23,11.23 11.62,10.27 11.83,10.25 12.05,10.22 12.25,10.27 12.46,10.31 12.64,10.42 12.83,10.53 12.96,10.69 13.10,10.85 13.18,11.05 13.26,11.25 13.27,11.46 13.29,11.67 13.23,11.88 13.18,12.08 13.06,12.26 12.94,12.43 12.77,12.56 12.60,12.69 12.40,12.76 12.20,12.83 11.99,12.83 11.78,12.83 11.57,12.77 11.37,12.70 11.20,12.57 11.03,12.44 10.91,12.27 10.79,12.09 10.73,11.89 10.68,11.68 10.69,11.47 10.70,11.26 10.77,11.06 10.85,10.86 10.99,10.70 11.13,10.54 11.31,10.43 11.49,10.32 11.70,10.27 11.90,10.23 12.12,10.25 12.33,10.27 12.52,10.36 12.71,10.45 12.87,10.59 13.02,10.74 13.12,10.92 13.22,11.11 13.26,11.32 13.29,11.53 13.26,11.74 13.23,11.95 13.13,12.14 13.03,12.33 12.88,12.47 12.72,12.62 12.92,11.75 13.12,10.88 13.18,11.03 13.24,11.17 13.27,11.33 13.29,11.49 13.28,11.64 13.27,11.80 13.22,11.95 13.17,12.10 13.08,12.24 13.00,12.37 12.88,12.48 12.77,12.59 12.63,12.67 12.49,12.75 12.34,12.79 12.19,12.83 12.03,12.84 11.87,12.85 11.72,12.81 11.56,12.78 11.42,12.71 11.28,12.64 11.15,12.54 11.03,12.44 10.94,12.32 10.84,12.19 8.43,11.51 6.01,10.83 4.95,8.91 3.89,6.99 3.27,4.46 2.65,1.92 1.21,1.76 -0.22,1.59 -0.41,1.54 -0.60,1.49 -0.77,1.40 -0.94,1.30 -1.08,1.17 -1.23,1.04 -1.33,0.88 -1.44,0.71 -1.50,0.53 -1.57,0.35 -1.59,0.15 -1.61,-0.03 -1.58,-0.22 -1.55,-0.41 -1.48,-0.59 -1.41,-0.78 -1.29,-0.93 -1.18,-1.09 -1.03,-1.22 -0.88,-1.34 -0.71,-1.43 -0.54,-1.52 -0.35,-1.56 -0.16,-1.60 0.03,-1.60 0.22,-1.59 0.22,-1.59 L 0.22,-1.59 Z"></path></g><g transform="translate(281.1689191765487 228.25791055673417) rotate(0 -8.50355495675592 3.7793577585582057)" stroke="none"><path fill="#1e1e1e" d="M 0.78,1.41 Q 0.78,1.41 -4.07,4.18 -8.92,6.96 -11.11,7.92 -13.29,8.88 -13.49,8.96 -13.69,9.03 -13.90,9.03 -14.12,9.04 -14.32,8.97 -14.52,8.91 -14.69,8.78 -14.87,8.66 -14.99,8.48 -15.11,8.31 -15.17,8.11 -15.23,7.90 -15.23,7.69 -15.22,7.48 -15.14,7.28 -15.07,7.08 -14.93,6.92 -14.80,6.75 -14.62,6.64 -14.44,6.53 -14.23,6.48 -14.03,6.43 -13.82,6.45 -13.60,6.46 -13.41,6.55 -13.21,6.64 -13.06,6.78 -12.90,6.92 -12.80,7.11 -12.69,7.29 -12.66,7.50 -12.62,7.71 -12.65,7.92 -12.68,8.13 -12.77,8.32 -12.87,8.51 -13.02,8.66 -13.17,8.81 -13.36,8.90 -13.55,9.00 -13.77,9.02 -13.98,9.05 -14.18,9.01 -14.39,8.97 -14.58,8.86 -14.76,8.75 -14.90,8.59 -15.04,8.44 -15.12,8.24 -15.21,8.04 -15.22,7.83 -15.24,7.62 -15.19,7.41 -15.13,7.21 -15.02,7.03 -14.90,6.85 -14.73,6.72 -14.57,6.59 -14.57,6.59 -14.57,6.59 -12.60,5.24 -10.62,3.90 -5.70,1.24 -0.78,-1.41 -0.60,-1.48 -0.42,-1.55 -0.23,-1.58 -0.03,-1.61 0.15,-1.59 0.34,-1.57 0.53,-1.51 0.71,-1.44 0.87,-1.33 1.04,-1.23 1.17,-1.09 1.30,-0.94 1.40,-0.77 1.49,-0.60 1.54,-0.42 1.59,-0.23 1.60,-0.03 1.60,0.15 1.56,0.34 1.52,0.53 1.43,0.71 1.34,0.88 1.22,1.03 1.09,1.18 0.94,1.29 0.78,1.41 0.78,1.41 L 0.78,1.41 Z"></path></g><g transform="translate(175.34690193691995 11.889678879279074) rotate(0 2.362098599098829 10.393233836034966)" stroke="none"><path fill="#1e1e1e" d="M 1.49,0.59 Q 1.49,0.59 1.06,1.99 0.62,3.39 0.62,5.38 0.61,7.37 0.54,7.58 0.47,7.79 0.35,7.98 0.23,8.17 0.07,8.32 -0.08,8.48 -0.28,8.59 -0.47,8.70 -0.69,8.76 -0.90,8.83 -1.13,8.83 -1.35,8.84 -1.57,8.80 -1.79,8.75 -1.99,8.66 -2.19,8.56 -2.37,8.42 -2.54,8.28 -2.67,8.10 -2.81,7.92 -2.89,7.71 -2.98,7.50 -3.02,7.28 -3.05,7.06 -3.03,6.84 -3.02,6.62 -1.77,5.80 -0.52,4.98 1.08,3.06 2.69,1.14 3.42,0.30 4.15,-0.53 4.22,-1.28 4.30,-2.03 4.45,-2.17 4.60,-2.31 4.78,-2.41 4.96,-2.51 5.16,-2.56 5.35,-2.61 5.56,-2.61 5.76,-2.62 5.96,-2.57 6.16,-2.52 6.35,-2.43 6.53,-2.34 6.69,-2.21 6.84,-2.07 6.96,-1.91 7.08,-1.74 7.16,-1.55 7.23,-1.36 7.26,-1.15 7.29,-0.95 7.27,-0.75 7.24,-0.54 7.17,-0.35 7.10,-0.16 6.99,0.00 6.88,0.17 7.18,1.80 7.48,3.42 7.50,5.42 7.53,7.43 7.80,8.94 8.08,10.46 8.22,12.34 8.35,14.23 8.41,15.57 8.47,16.92 8.18,18.05 7.90,19.18 7.48,20.21 7.07,21.24 6.11,22.22 5.15,23.20 3.90,23.59 2.65,23.99 0.80,23.56 -1.05,23.13 -1.25,23.07 -1.46,23.02 -1.63,22.90 -1.81,22.78 -1.94,22.62 -2.07,22.45 -2.14,22.25 -2.21,22.05 -2.21,21.83 -2.21,21.62 -2.15,21.42 -2.08,21.22 -1.96,21.05 -1.83,20.88 -1.65,20.76 -1.48,20.64 -1.27,20.58 -1.07,20.52 -0.86,20.53 -0.65,20.54 -0.45,20.61 -0.25,20.69 -0.09,20.83 0.07,20.96 0.18,21.15 0.29,21.33 0.34,21.53 0.38,21.74 0.36,21.95 0.34,22.16 0.25,22.36 0.17,22.55 0.02,22.71 -0.11,22.86 -0.30,22.96 -0.49,23.06 -0.70,23.10 -0.91,23.14 -1.12,23.10 -1.33,23.07 -1.51,22.97 -1.70,22.88 -1.85,22.72 -2.00,22.57 -2.09,22.38 -2.18,22.19 -2.20,21.97 -2.23,21.76 -2.18,21.56 -2.14,21.35 -2.03,21.16 -1.92,20.98 -1.76,20.84 -1.60,20.70 -1.41,20.62 -1.21,20.54 -1.00,20.53 -0.79,20.52 -0.79,20.52 -0.79,20.52 1.35,20.04 3.49,19.57 4.05,18.28 4.60,17.00 4.56,15.74 4.52,14.47 4.43,12.77 4.33,11.07 4.06,9.25 3.79,7.44 3.82,5.44 3.84,3.44 3.87,1.83 3.90,0.22 4.10,-0.90 4.30,-2.03 4.45,-2.17 4.60,-2.31 4.78,-2.41 4.96,-2.51 5.16,-2.56 5.35,-2.61 5.56,-2.61 5.76,-2.62 5.96,-2.57 6.16,-2.52 6.35,-2.43 6.53,-2.34 6.69,-2.21 6.84,-2.07 6.96,-1.91 7.08,-1.74 7.16,-1.55 7.23,-1.36 7.26,-1.15 7.29,-0.95 7.27,-0.75 7.24,-0.54 7.17,-0.35 7.10,-0.16 6.99,0.00 6.88,0.17 6.85,0.72 6.81,1.26 6.01,2.20 5.21,3.15 4.11,4.74 3.01,6.33 1.81,6.85 0.61,7.37 0.54,7.58 0.47,7.79 0.35,7.98 0.23,8.17 0.07,8.32 -0.08,8.48 -0.28,8.59 -0.47,8.70 -0.69,8.76 -0.90,8.83 -1.13,8.83 -1.35,8.84 -1.57,8.80 -1.79,8.75 -1.99,8.66 -2.19,8.56 -2.36,8.42 -2.54,8.28 -2.67,8.10 -2.81,7.92 -2.89,7.71 -2.98,7.50 -3.02,7.28 -3.05,7.06 -3.03,6.84 -3.02,6.62 -3.21,5.62 -3.41,4.62 -3.10,3.32 -2.80,2.03 -2.15,0.71 -1.49,-0.59 -1.40,-0.77 -1.31,-0.94 -1.17,-1.08 -1.04,-1.22 -0.88,-1.33 -0.72,-1.44 -0.54,-1.50 -0.35,-1.57 -0.16,-1.59 0.02,-1.61 0.22,-1.58 0.41,-1.55 0.59,-1.48 0.77,-1.41 0.93,-1.30 1.09,-1.18 1.21,-1.04 1.34,-0.89 1.43,-0.71 1.51,-0.54 1.56,-0.35 1.60,-0.16 1.60,0.02 1.59,0.22 1.54,0.41 1.49,0.59 1.49,0.59 L 1.49,0.59 Z"></path></g><g transform="translate(12.834518318918754 171.56754417836171) rotate(0 7.558715517116298 5.669036637837223)" stroke="none"><path fill="#1e1e1e" d="M -0.63,-1.48 Q -0.63,-1.48 1.17,-2.52 2.97,-3.57 4.80,-3.95 6.62,-4.32 8.24,-4.45 9.86,-4.58 11.40,-4.60 12.95,-4.62 13.53,-4.41 14.11,-4.20 14.35,-4.18 14.58,-4.16 14.81,-4.08 15.03,-4.01 15.23,-3.89 15.43,-3.76 15.59,-3.59 15.75,-3.42 15.87,-3.22 15.99,-3.02 16.06,-2.79 16.12,-2.56 16.13,-2.33 16.14,-2.10 16.10,-1.86 16.05,-1.63 15.95,-1.42 15.85,-1.21 15.70,-1.03 15.55,-0.84 15.37,-0.70 15.18,-0.56 14.96,-0.47 14.75,-0.38 14.51,-0.34 14.28,-0.30 13.39,1.82 12.49,3.96 10.03,6.23 7.57,8.50 6.20,10.38 4.83,12.25 7.47,11.89 10.10,11.53 11.60,11.37 13.10,11.22 13.31,11.19 13.52,11.17 13.73,11.21 13.93,11.26 14.12,11.37 14.30,11.47 14.44,11.64 14.58,11.80 14.66,11.99 14.74,12.19 14.75,12.40 14.76,12.62 14.71,12.82 14.65,13.03 14.53,13.20 14.41,13.38 14.24,13.51 14.08,13.64 13.87,13.71 13.67,13.77 13.46,13.78 13.25,13.78 13.05,13.71 12.85,13.64 12.68,13.52 12.51,13.39 12.39,13.21 12.27,13.04 12.21,12.83 12.15,12.63 12.16,12.42 12.17,12.20 12.25,12.01 12.33,11.81 12.46,11.65 12.60,11.48 12.78,11.37 12.96,11.26 13.17,11.22 13.38,11.17 13.59,11.19 13.80,11.21 13.99,11.30 14.19,11.39 14.34,11.53 14.50,11.68 14.60,11.87 14.70,12.05 14.73,12.26 14.77,12.47 14.73,12.68 14.70,12.89 14.60,13.08 14.50,13.27 14.35,13.42 14.20,13.56 14.00,13.65 13.81,13.74 13.81,13.74 13.81,13.74 12.08,14.50 10.34,15.27 8.02,15.48 5.71,15.69 4.04,15.19 2.38,14.70 1.99,12.41 1.60,10.12 3.32,7.95 5.03,5.79 7.27,3.68 9.50,1.58 10.40,0.43 11.30,-0.71 12.71,-2.45 14.11,-4.20 14.35,-4.18 14.58,-4.16 14.81,-4.08 15.03,-4.01 15.23,-3.89 15.43,-3.76 15.59,-3.59 15.75,-3.42 15.87,-3.22 15.99,-3.02 16.06,-2.79 16.12,-2.57 16.13,-2.33 16.14,-2.10 16.10,-1.86 16.05,-1.63 15.95,-1.42 15.85,-1.21 15.70,-1.03 15.55,-0.84 15.37,-0.70 15.18,-0.56 14.96,-0.47 14.75,-0.38 14.51,-0.34 14.28,-0.30 13.63,-0.58 12.98,-0.85 11.61,-0.75 10.25,-0.64 8.86,-0.48 7.47,-0.31 6.05,-0.00 4.62,0.31 2.63,0.89 0.63,1.48 0.44,1.53 0.26,1.59 0.06,1.60 -0.12,1.60 -0.31,1.57 -0.50,1.53 -0.68,1.44 -0.85,1.36 -1.01,1.24 -1.16,1.12 -1.27,0.96 -1.39,0.80 -1.47,0.63 -1.54,0.45 -1.58,0.26 -1.61,0.06 -1.59,-0.12 -1.58,-0.31 -1.52,-0.50 -1.45,-0.68 -1.35,-0.85 -1.25,-1.01 -1.11,-1.15 -0.97,-1.28 -0.80,-1.38 -0.63,-1.48 -0.63,-1.48 L -0.63,-1.48 Z"></path></g><g transform="translate(10.944839439639622 180.07109913511752) rotate(0 8.975974676575618 -1.8896788792790744)" stroke="none"><path fill="#1e1e1e" d="M -0.31,-1.58 Q -0.31,-1.58 2.33,-2.44 4.99,-3.29 7.79,-3.81 10.59,-4.33 12.22,-4.77 13.84,-5.22 15.77,-5.08 17.70,-4.95 17.91,-4.94 18.12,-4.93 18.32,-4.86 18.52,-4.78 18.68,-4.65 18.85,-4.51 18.96,-4.33 19.07,-4.15 19.12,-3.94 19.17,-3.74 19.15,-3.53 19.13,-3.31 19.04,-3.12 18.96,-2.93 18.81,-2.77 18.67,-2.61 18.48,-2.51 18.30,-2.41 18.09,-2.37 17.88,-2.33 17.67,-2.36 17.46,-2.39 17.27,-2.49 17.08,-2.59 16.93,-2.74 16.78,-2.89 16.69,-3.08 16.60,-3.27 16.57,-3.48 16.55,-3.69 16.59,-3.90 16.63,-4.11 16.74,-4.29 16.84,-4.48 17.00,-4.62 17.16,-4.76 17.36,-4.84 17.56,-4.92 17.77,-4.94 17.98,-4.95 18.18,-4.90 18.39,-4.85 18.57,-4.73 18.75,-4.61 18.88,-4.45 19.01,-4.28 19.08,-4.08 19.15,-3.88 19.15,-3.67 19.16,-3.45 19.09,-3.25 19.03,-3.05 18.90,-2.88 18.78,-2.71 18.60,-2.58 18.43,-2.46 18.23,-2.40 18.02,-2.34 18.02,-2.34 18.02,-2.34 16.54,-1.62 15.06,-0.90 13.23,-0.37 11.40,0.14 8.64,0.63 5.87,1.12 3.09,1.35 0.31,1.58 0.12,1.59 -0.07,1.61 -0.26,1.58 -0.45,1.54 -0.63,1.47 -0.81,1.39 -0.96,1.27 -1.12,1.15 -1.24,1.00 -1.36,0.85 -1.45,0.68 -1.53,0.50 -1.57,0.31 -1.60,0.12 -1.60,-0.07 -1.59,-0.26 -1.53,-0.45 -1.48,-0.63 -1.38,-0.80 -1.28,-0.97 -1.15,-1.11 -1.01,-1.25 -0.85,-1.35 -0.68,-1.46 -0.50,-1.52 -0.31,-1.58 -0.31,-1.58 L -0.31,-1.58 Z"></path></g><g transform="translate(207.4714428846646 178.1814202558385) rotate(0 -12.755332435133823 9.4483943963954)" stroke="none"><path fill="#1e1e1e" d="M -1.56,0.39 Q -1.56,0.39 -2.12,-0.62 -2.68,-1.63 -3.81,-2.44 -4.94,-3.25 -6.25,-3.59 -7.55,-3.93 -8.95,-3.83 -10.35,-3.73 -11.73,-3.42 -13.11,-3.11 -14.11,-2.51 -15.10,-1.90 -16.13,-0.83 -17.15,0.22 -18.34,2.05 -19.54,3.88 -20.12,4.96 -20.70,6.05 -21.21,7.05 -21.72,8.05 -22.15,9.73 -22.57,11.41 -22.74,12.86 -22.90,14.31 -22.90,16.05 -22.89,17.78 -21.92,19.23 -20.95,20.67 -19.59,21.17 -18.23,21.67 -17.25,22.09 -16.27,22.51 -14.54,22.09 -12.81,21.67 -11.68,21.49 -10.54,21.30 -9.75,21.22 -8.96,21.14 -8.89,20.94 -8.81,20.74 -8.68,20.58 -8.55,20.41 -8.37,20.30 -8.19,20.18 -7.98,20.13 -7.77,20.08 -7.56,20.10 -7.35,20.12 -7.16,20.20 -6.96,20.29 -6.80,20.43 -6.65,20.57 -6.54,20.76 -6.44,20.94 -6.40,21.15 -6.36,21.36 -6.39,21.57 -6.42,21.78 -6.51,21.97 -6.61,22.16 -6.76,22.31 -6.91,22.46 -7.10,22.56 -7.29,22.65 -7.50,22.68 -7.71,22.70 -7.92,22.66 -8.13,22.62 -8.32,22.52 -8.50,22.41 -8.64,22.25 -8.78,22.09 -8.87,21.90 -8.95,21.70 -8.97,21.49 -8.98,21.28 -8.93,21.07 -8.88,20.87 -8.76,20.69 -8.65,20.51 -8.48,20.38 -8.31,20.25 -8.12,20.17 -7.92,20.10 -7.70,20.10 -7.49,20.09 -7.29,20.15 -7.08,20.22 -6.91,20.34 -6.74,20.47 -6.62,20.64 -6.49,20.81 -6.43,21.02 -6.37,21.22 -6.38,21.43 -6.38,21.65 -6.38,21.65 -6.38,21.65 -7.87,24.03 -9.35,26.41 -11.07,26.89 -12.78,27.37 -13.92,27.71 -15.06,28.05 -16.72,27.72 -18.39,27.40 -20.06,26.76 -21.74,26.11 -23.82,24.65 -25.90,23.19 -26.59,22.35 -27.27,21.51 -27.69,19.63 -28.11,17.75 -28.05,16.42 -27.98,15.09 -27.87,13.69 -27.76,12.28 -27.56,11.07 -27.36,9.85 -26.60,7.89 -25.84,5.94 -25.30,4.91 -24.76,3.87 -24.15,2.73 -23.54,1.59 -22.15,-0.46 -20.75,-2.53 -19.93,-3.53 -19.11,-4.53 -18.22,-5.14 -17.33,-5.75 -15.99,-6.50 -14.65,-7.24 -13.00,-7.74 -11.34,-8.23 -10.00,-8.46 -8.65,-8.68 -6.60,-8.22 -4.55,-7.77 -2.07,-6.87 0.39,-5.96 0.99,-4.33 1.59,-2.70 1.58,-1.54 1.56,-0.39 1.58,-0.19 1.61,-0.00 1.59,0.18 1.56,0.38 1.50,0.56 1.43,0.74 1.32,0.90 1.21,1.06 1.06,1.19 0.92,1.32 0.74,1.41 0.57,1.50 0.38,1.55 0.19,1.60 0.00,1.60 -0.18,1.60 -0.37,1.55 -0.56,1.51 -0.74,1.42 -0.91,1.33 -1.05,1.20 -1.20,1.07 -1.31,0.91 -1.42,0.75 -1.49,0.57 -1.56,0.39 -1.56,0.39 L -1.56,0.39 Z"></path></g><g transform="translate(192.35401185043202 196.1333696089898) rotate(0 6.1414563576570345 8.03113523693608)" stroke="none"><path fill="#1e1e1e" d="M 0,-1.61 Q 0,-1.61 1.08,-1.86 2.17,-2.11 3.48,-2.15 4.80,-2.20 6.57,-1.67 8.34,-1.15 9.57,-1.07 10.80,-0.98 12.05,1.04 13.30,3.08 12.89,4.85 12.48,6.61 11.97,8.14 11.47,9.68 10.76,11.00 10.06,12.32 9.58,13.30 9.10,14.29 8.55,15.67 8.01,17.04 7.90,17.23 7.79,17.41 7.62,17.54 7.46,17.68 7.26,17.76 7.07,17.83 6.85,17.84 6.64,17.85 6.44,17.79 6.23,17.74 6.06,17.62 5.88,17.49 5.76,17.32 5.63,17.15 5.56,16.95 5.50,16.75 5.50,16.54 5.50,16.33 5.57,16.12 5.64,15.92 5.77,15.76 5.90,15.59 6.08,15.47 6.25,15.35 6.46,15.30 6.66,15.24 6.87,15.26 7.09,15.27 7.28,15.35 7.48,15.43 7.64,15.57 7.80,15.71 7.91,15.89 8.02,16.07 8.06,16.28 8.11,16.49 8.08,16.70 8.06,16.91 7.97,17.10 7.87,17.29 7.73,17.45 7.58,17.60 7.39,17.70 7.20,17.80 6.99,17.83 6.78,17.86 6.57,17.83 6.36,17.79 6.18,17.69 5.99,17.59 5.85,17.43 5.70,17.28 5.61,17.08 5.53,16.89 5.50,16.68 5.48,16.47 5.53,16.26 5.58,16.05 5.58,16.05 5.58,16.05 6.38,13.98 7.18,11.91 7.51,10.57 7.83,9.22 8.28,7.79 8.73,6.36 9.17,4.65 9.61,2.94 8.47,2.86 7.33,2.79 6.07,2.49 4.80,2.20 3.48,2.15 2.17,2.11 1.08,1.86 0,1.61 -0.19,1.59 -0.38,1.56 -0.56,1.49 -0.75,1.42 -0.91,1.31 -1.07,1.20 -1.19,1.06 -1.32,0.91 -1.41,0.74 -1.50,0.57 -1.55,0.38 -1.60,0.19 -1.60,-0.00 -1.60,-0.19 -1.55,-0.38 -1.50,-0.57 -1.41,-0.74 -1.32,-0.91 -1.19,-1.06 -1.07,-1.20 -0.91,-1.31 -0.74,-1.42 -0.56,-1.49 -0.38,-1.56 -0.19,-1.59 0.00,-1.61 0.00,-1.61 L 0,-1.61 Z"></path></g></svg>