<svg version="1.1" xmlns="http://www.w3.org/2000/svg" viewBox="0 0 243.9269471945713 242.0372683152923" width="243.9269471945713" height="242.0372683152923">
  <!-- svg-source:excalidraw -->
  
  <defs>
    <style class="style-fonts">
      @font-face {
        font-family: "Virgil";
        src: url("https://excalidraw.com/Virgil.woff2");
      }
      @font-face {
        font-family: "Cascadia";
        src: url("https://excalidraw.com/Cascadia.woff2");
      }
      @font-face {
        font-family: "Assistant";
        src: url("https://excalidraw.com/Assistant-Regular.woff2");
      }
    </style>
    
  </defs>
  <rect x="0" y="0" width="243.9269471945713" height="242.0372683152923" fill="#ffffff"></rect><g stroke-linecap="round"><g transform="translate(27.007109913511727 197.07820904862922) rotate(0 3.779357758558149 -74.169896011704)"><path d="M-0.68 0.23 C0.65 -24.59, 5.88 -124.32, 7.13 -149.27 M1.16 -0.7 C2.37 -25.37, 4.59 -123.55, 5.96 -148.22" stroke="#1e1e1e" stroke-width="1" fill="none"></path></g><g transform="translate(27.007109913511727 197.07820904862922) rotate(0 3.779357758558149 -74.169896011704)"><path d="M13.64 -124.43 C12.33 -130.62, 8.65 -136.53, 5.96 -148.22 M13.64 -124.43 C11.19 -129.19, 10.26 -133.8, 5.96 -148.22" stroke="#1e1e1e" stroke-width="1" fill="none"></path></g><g transform="translate(27.007109913511727 197.07820904862922) rotate(0 3.779357758558149 -74.169896011704)"><path d="M-3.45 -125.06 C-0.86 -131.01, -0.63 -136.78, 5.96 -148.22 M-3.45 -125.06 C-2.34 -129.61, 0.28 -134.09, 5.96 -148.22" stroke="#1e1e1e" stroke-width="1" fill="none"></path></g></g><mask></mask><g stroke-linecap="round"><g transform="translate(19.448394396395315 198.96788792790835) rotate(0 90.23216648557627 2.83451831891864)"><path d="M0.92 0.5 C30.94 1.25, 149.56 4.74, 179.29 5.58 M-0.05 -0.28 C30.39 1.19, 151.12 5.89, 181.39 7.07" stroke="#1e1e1e" stroke-width="1" fill="none"></path></g><g transform="translate(19.448394396395315 198.96788792790835) rotate(0 90.23216648557627 2.83451831891864)"><path d="M157.58 14.7 C163.87 10.79, 168.41 9.05, 181.39 7.07 M157.58 14.7 C163.79 12.23, 171.74 9.78, 181.39 7.07" stroke="#1e1e1e" stroke-width="1" fill="none"></path></g><g transform="translate(19.448394396395315 198.96788792790835) rotate(0 90.23216648557627 2.83451831891864)"><path d="M158.25 -2.39 C164.54 -2.32, 168.92 -0.1, 181.39 7.07 M158.25 -2.39 C164.42 0.09, 172.18 2.58, 181.39 7.07" stroke="#1e1e1e" stroke-width="1" fill="none"></path></g></g><mask></mask><g stroke-linecap="round"><g transform="translate(22.28291271531407 199.91272736754786) rotate(0 48.65923114143641 -39.68325646486073)"><path d="M-0.05 0.79 C16.09 -12.33, 80.71 -65, 96.74 -78.51 M-1.54 0.16 C14.4 -13.31, 78.83 -66.91, 95.49 -80.18" stroke="#1e1e1e" stroke-width="1" fill="none"></path></g><g transform="translate(22.28291271531407 199.91272736754786) rotate(0 48.65923114143641 -39.68325646486073)"><path d="M82.71 -58.7 C87.75 -65.97, 91.62 -73.25, 95.49 -80.18 M82.71 -58.7 C86.55 -64.23, 88.6 -68.15, 95.49 -80.18" stroke="#1e1e1e" stroke-width="1" fill="none"></path></g><g transform="translate(22.28291271531407 199.91272736754786) rotate(0 48.65923114143641 -39.68325646486073)"><path d="M71.89 -71.94 C80.14 -75.31, 87.19 -78.7, 95.49 -80.18 M71.89 -71.94 C78.04 -74.51, 82.52 -75.46, 95.49 -80.18" stroke="#1e1e1e" stroke-width="1" fill="none"></path></g></g><mask></mask><g transform="translate(223.5337133585365 215.03015840178057) rotate(0 1.4172591594592632 8.031135236936052)" stroke="none"><path fill="#1e1e1e" d="M -0.20,-1.60 Q -0.20,-1.60 1.94,-2.18 4.08,-2.76 5.55,-2.59 7.02,-2.42 8.77,-2.35 10.53,-2.27 11.16,-1.27 11.79,-0.28 11.17,1.12 10.56,2.53 9.83,3.31 9.09,4.09 7.77,5.81 6.44,7.53 5.41,8.34 4.38,9.15 3.16,9.83 1.95,10.52 0.67,11.24 -0.61,11.97 -1.54,12.52 -2.46,13.06 -3.84,13.97 -5.21,14.87 -6.07,15.33 -6.93,15.78 -7.18,15.79 -7.43,15.80 -7.68,15.75 -7.93,15.69 -8.15,15.59 -8.38,15.48 -8.57,15.32 -8.77,15.16 -8.92,14.96 -9.07,14.75 -9.17,14.52 -9.26,14.29 -9.30,14.04 -9.34,13.79 -9.32,13.54 -9.30,13.29 -9.22,13.05 -9.14,12.82 -9.00,12.60 -8.87,12.39 -8.68,12.22 -8.50,12.05 -8.28,11.92 -8.07,11.80 -7.82,11.73 -7.58,11.66 -6.37,11.76 -5.15,11.87 -4.03,11.81 -2.92,11.75 -1.72,12.07 -0.52,12.39 0.49,12.78 1.52,13.17 3.58,14.41 5.65,15.64 5.84,15.73 6.04,15.81 6.19,15.96 6.35,16.10 6.45,16.29 6.55,16.47 6.59,16.68 6.63,16.89 6.60,17.10 6.57,17.31 6.47,17.50 6.37,17.69 6.22,17.84 6.07,17.99 5.88,18.08 5.69,18.17 5.47,18.20 5.26,18.22 5.06,18.18 4.85,18.14 4.66,18.03 4.48,17.92 4.34,17.76 4.20,17.60 4.12,17.41 4.04,17.21 4.02,17.00 4.01,16.79 4.06,16.58 4.12,16.38 4.23,16.20 4.35,16.02 4.52,15.89 4.68,15.76 4.88,15.69 5.08,15.62 5.30,15.61 5.51,15.61 5.71,15.68 5.91,15.74 6.08,15.87 6.26,15.99 6.38,16.17 6.50,16.34 6.56,16.55 6.62,16.75 6.61,16.96 6.60,17.17 6.53,17.37 6.45,17.57 6.32,17.74 6.18,17.90 6.00,18.01 5.82,18.12 5.61,18.17 5.41,18.22 5.19,18.20 4.98,18.18 4.98,18.18 4.98,18.18 3.46,18.22 1.93,18.27 -0.03,17.65 -2.01,17.02 -3.30,16.74 -4.58,16.46 -5.76,16.12 -6.93,15.78 -7.18,15.79 -7.43,15.80 -7.68,15.75 -7.93,15.69 -8.15,15.59 -8.38,15.48 -8.57,15.32 -8.77,15.16 -8.92,14.96 -9.07,14.75 -9.17,14.52 -9.26,14.29 -9.30,14.04 -9.34,13.79 -9.32,13.54 -9.30,13.29 -9.22,13.06 -9.14,12.82 -9.00,12.61 -8.87,12.39 -8.68,12.22 -8.50,12.05 -8.28,11.92 -8.07,11.80 -7.82,11.73 -7.58,11.66 -6.91,11.38 -6.25,11.09 -4.81,10.18 -3.37,9.27 -2.21,8.39 -1.06,7.52 0.00,6.86 1.07,6.20 2.25,5.55 3.43,4.90 4.12,4.09 4.81,3.28 5.50,2.30 6.18,1.31 7.32,0.46 8.47,-0.39 8.48,0.83 8.48,2.05 6.54,1.87 4.60,1.68 2.40,1.64 0.20,1.60 0.00,1.60 -0.18,1.60 -0.37,1.55 -0.56,1.51 -0.73,1.42 -0.91,1.33 -1.05,1.20 -1.20,1.07 -1.31,0.91 -1.42,0.75 -1.49,0.57 -1.56,0.39 -1.58,0.19 -1.61,0.00 -1.59,-0.18 -1.56,-0.38 -1.50,-0.56 -1.43,-0.74 -1.32,-0.90 -1.21,-1.06 -1.06,-1.19 -0.92,-1.32 -0.74,-1.41 -0.57,-1.50 -0.38,-1.55 -0.20,-1.60 -0.20,-1.60 L -0.20,-1.60 Z"></path></g><g transform="translate(222.58887391889675 221.64403447925736) rotate(0 2.8345183189187537 2.834518318918583)" stroke="none"><path fill="#1e1e1e" d="M 1.14,1.14 Q 1.14,1.14 1.23,1.77 1.32,2.41 1.07,2.60 0.82,2.80 0.53,2.93 0.24,3.06 -0.07,3.12 -0.38,3.18 -0.70,3.16 -1.01,3.14 -1.32,3.04 -1.62,2.95 -1.90,2.78 -2.17,2.62 -2.39,2.39 -2.62,2.17 -2.78,1.89 -2.95,1.62 -3.04,1.32 -3.14,1.01 -3.16,0.70 -3.18,0.38 -3.12,0.07 -3.06,-0.24 -2.93,-0.53 -2.80,-0.82 -2.60,-1.07 -2.41,-1.32 -0.60,-1.36 1.19,-1.40 2.54,-0.61 3.90,0.18 5.43,2.21 6.96,4.24 7.09,4.40 7.22,4.57 7.28,4.78 7.35,4.98 7.35,5.19 7.35,5.40 7.28,5.60 7.22,5.80 7.09,5.97 6.96,6.14 6.78,6.26 6.61,6.38 6.40,6.44 6.20,6.49 5.98,6.48 5.77,6.47 5.57,6.39 5.38,6.31 5.22,6.18 5.05,6.04 4.94,5.86 4.83,5.67 4.79,5.47 4.74,5.26 4.77,5.05 4.79,4.84 4.88,4.64 4.97,4.45 5.11,4.30 5.26,4.14 5.45,4.04 5.64,3.94 5.85,3.91 6.06,3.88 6.27,3.91 6.47,3.94 6.66,4.04 6.85,4.14 7.00,4.30 7.14,4.45 7.23,4.64 7.32,4.84 7.34,5.05 7.37,5.26 7.32,5.47 7.27,5.68 7.17,5.86 7.06,6.04 6.89,6.18 6.73,6.31 6.53,6.39 6.34,6.47 6.12,6.48 5.91,6.49 5.71,6.44 5.50,6.38 5.33,6.26 5.15,6.14 5.15,6.14 5.15,6.14 2.79,5.22 0.44,4.31 -0.60,3.63 -1.65,2.95 -0.16,2.68 1.32,2.41 1.07,2.60 0.82,2.80 0.53,2.93 0.24,3.06 -0.07,3.12 -0.38,3.18 -0.70,3.16 -1.01,3.14 -1.32,3.04 -1.62,2.95 -1.89,2.78 -2.17,2.62 -2.39,2.39 -2.62,2.17 -2.78,1.90 -2.95,1.62 -3.04,1.32 -3.14,1.01 -3.16,0.70 -3.18,0.38 -3.12,0.07 -3.06,-0.24 -2.93,-0.53 -2.80,-0.82 -2.60,-1.07 -2.41,-1.32 -1.77,-1.23 -1.14,-1.14 -0.98,-1.26 -0.83,-1.38 -0.65,-1.46 -0.48,-1.54 -0.28,-1.57 -0.09,-1.61 0.09,-1.59 0.29,-1.58 0.47,-1.52 0.66,-1.47 0.82,-1.37 0.99,-1.27 1.13,-1.13 1.27,-0.99 1.37,-0.82 1.47,-0.66 1.52,-0.47 1.58,-0.29 1.59,-0.09 1.61,0.09 1.57,0.28 1.54,0.48 1.46,0.65 1.38,0.83 1.26,0.98 1.14,1.14 1.14,1.14 L 1.14,1.14 Z"></path></g><g transform="translate(15.66903663783728 13.779357758558149) rotate(0 3.3069380387383376 8.503554956755892)" stroke="none"><path fill="#1e1e1e" d="M 1.44,-0.72 Q 1.44,-0.72 2.10,0.52 2.75,1.76 4.20,1.02 5.64,0.28 6.83,-0.75 8.02,-1.79 8.71,-2.62 9.40,-3.44 9.49,-3.94 9.59,-4.44 9.77,-4.62 9.95,-4.79 10.17,-4.92 10.38,-5.05 10.63,-5.12 10.87,-5.19 11.12,-5.20 11.37,-5.22 11.62,-5.17 11.87,-5.12 12.09,-5.01 12.32,-4.90 12.52,-4.75 12.71,-4.59 12.87,-4.39 13.02,-4.19 13.12,-3.96 13.22,-3.72 13.26,-3.48 13.30,-3.23 13.29,-2.98 13.27,-2.73 13.19,-2.49 13.11,-2.25 12.98,-2.03 12.84,-1.82 11.57,-0.31 10.29,1.18 9.90,2.30 9.52,3.42 9.32,5.12 9.12,6.81 9.05,8.66 8.98,10.50 8.96,12.11 8.94,13.71 8.92,15.20 8.90,16.69 8.81,18.14 8.73,19.59 7.87,20.76 7.02,21.93 5.47,22.42 3.93,22.91 -0.04,22.19 -4.03,21.47 -4.23,21.40 -4.43,21.33 -4.59,21.20 -4.76,21.07 -4.87,20.89 -4.99,20.71 -5.04,20.50 -5.10,20.30 -5.08,20.09 -5.07,19.87 -4.98,19.68 -4.90,19.48 -4.76,19.32 -4.62,19.16 -4.43,19.06 -4.25,18.95 -4.04,18.91 -3.83,18.87 -3.62,18.90 -3.41,18.92 -3.22,19.02 -3.03,19.11 -2.88,19.26 -2.73,19.41 -2.63,19.60 -2.54,19.79 -2.51,20.00 -2.48,20.21 -2.51,20.42 -2.55,20.62 -2.66,20.81 -2.76,21.00 -2.92,21.14 -3.07,21.28 -3.27,21.37 -3.46,21.45 -3.67,21.47 -3.88,21.49 -4.09,21.44 -4.30,21.39 -4.48,21.28 -4.66,21.17 -4.79,21.00 -4.93,20.84 -5.00,20.64 -5.08,20.44 -5.08,20.23 -5.09,20.01 -5.03,19.81 -4.97,19.61 -4.85,19.43 -4.72,19.26 -4.55,19.13 -4.38,19.01 -4.18,18.95 -3.98,18.88 -3.76,18.89 -3.55,18.89 -3.55,18.89 -3.55,18.89 0.41,17.76 4.37,16.63 4.40,15.11 4.42,13.58 4.49,11.92 4.56,10.26 4.70,8.26 4.84,6.26 5.15,4.02 5.46,1.78 6.26,0.04 7.07,-1.69 8.33,-3.07 9.59,-4.44 9.77,-4.62 9.95,-4.79 10.17,-4.92 10.38,-5.05 10.62,-5.12 10.87,-5.19 11.12,-5.20 11.37,-5.22 11.62,-5.17 11.86,-5.12 12.09,-5.01 12.32,-4.90 12.52,-4.75 12.71,-4.59 12.87,-4.39 13.02,-4.19 13.12,-3.96 13.22,-3.73 13.26,-3.48 13.30,-3.23 13.29,-2.98 13.27,-2.73 13.19,-2.49 13.11,-2.25 12.98,-2.03 12.84,-1.82 12.78,-1.45 12.71,-1.08 11.75,0.14 10.79,1.37 9.37,2.59 7.95,3.82 6.27,4.72 4.58,5.61 2.54,5.18 0.50,4.75 -0.47,2.73 -1.44,0.72 -1.50,0.53 -1.57,0.35 -1.59,0.16 -1.61,-0.03 -1.58,-0.22 -1.55,-0.41 -1.48,-0.59 -1.41,-0.77 -1.30,-0.93 -1.18,-1.09 -1.03,-1.22 -0.89,-1.34 -0.71,-1.43 -0.54,-1.52 -0.35,-1.56 -0.16,-1.60 0.03,-1.60 0.22,-1.59 0.41,-1.54 0.60,-1.49 0.77,-1.40 0.94,-1.30 1.08,-1.17 1.22,-1.04 1.33,-0.88 1.44,-0.72 1.44,-0.72 L 1.44,-0.72 Z"></path></g><g transform="translate(128.1049299549427 105.42878340359374) rotate(0 6.613876077476789 3.3069380387383376)" stroke="none"><path fill="#1e1e1e" d="M -1.14,-1.14 Q -1.14,-1.14 -0.61,-1.70 -0.08,-2.27 0.80,-2.91 1.70,-3.54 3.44,-4.12 5.18,-4.69 6.61,-4.25 8.04,-3.80 8.77,-2.80 9.49,-1.80 9.76,-0.43 10.03,0.93 10.65,2.25 11.26,3.56 12.41,4.78 13.55,6.01 14.55,7.47 15.54,8.92 15.66,9.10 15.78,9.28 15.83,9.48 15.89,9.69 15.88,9.90 15.86,10.11 15.78,10.31 15.70,10.51 15.57,10.67 15.43,10.83 15.25,10.94 15.06,11.05 14.85,11.09 14.65,11.14 14.44,11.11 14.22,11.09 14.03,11.00 13.84,10.91 13.69,10.76 13.53,10.61 13.43,10.42 13.34,10.24 13.30,10.03 13.27,9.82 13.30,9.61 13.34,9.40 13.44,9.21 13.54,9.02 13.70,8.88 13.85,8.73 14.04,8.64 14.24,8.56 14.45,8.53 14.66,8.51 14.87,8.56 15.07,8.61 15.26,8.72 15.44,8.83 15.57,8.99 15.71,9.15 15.79,9.35 15.87,9.55 15.88,9.76 15.89,9.97 15.83,10.18 15.77,10.38 15.65,10.56 15.53,10.73 15.36,10.86 15.19,10.99 14.99,11.05 14.79,11.12 14.58,11.12 14.36,11.12 14.16,11.05 13.96,10.98 13.79,10.85 13.62,10.72 13.62,10.72 13.62,10.72 12.21,9.62 10.80,8.51 9.25,6.78 7.71,5.05 7.10,3.25 6.50,1.46 6.12,0.01 5.75,-1.42 4.00,-0.66 2.26,0.09 1.70,0.62 1.14,1.14 0.98,1.26 0.83,1.38 0.65,1.46 0.48,1.54 0.28,1.57 0.09,1.61 -0.09,1.59 -0.29,1.58 -0.47,1.52 -0.66,1.47 -0.82,1.37 -0.99,1.27 -1.13,1.13 -1.27,0.99 -1.37,0.82 -1.47,0.66 -1.52,0.47 -1.58,0.29 -1.59,0.09 -1.61,-0.09 -1.57,-0.28 -1.54,-0.48 -1.46,-0.65 -1.38,-0.83 -1.26,-0.98 -1.14,-1.14 -1.14,-1.14 L -1.14,-1.14 Z"></path></g><g transform="translate(141.33268210989627 105.42878340359374) rotate(0 -6.1414563576570345 3.7793577585581204)" stroke="none"><path fill="#1e1e1e" d="M 0.51,1.53 Q 0.51,1.53 -1.06,2.14 -2.63,2.75 -4.95,4.95 -7.28,7.15 -8.46,8.24 -9.65,9.33 -9.81,9.47 -9.97,9.60 -10.17,9.68 -10.37,9.76 -10.58,9.77 -10.79,9.78 -11.00,9.72 -11.20,9.67 -11.38,9.55 -11.55,9.43 -11.68,9.26 -11.81,9.09 -11.88,8.89 -11.94,8.69 -11.94,8.47 -11.94,8.26 -11.88,8.06 -11.81,7.86 -11.68,7.69 -11.55,7.52 -11.37,7.40 -11.20,7.28 -10.99,7.23 -10.79,7.17 -10.58,7.18 -10.36,7.19 -10.17,7.27 -9.97,7.35 -9.81,7.49 -9.65,7.63 -9.54,7.81 -9.43,7.99 -9.38,8.20 -9.34,8.41 -9.36,8.62 -9.38,8.83 -9.47,9.02 -9.56,9.22 -9.71,9.37 -9.86,9.52 -10.04,9.62 -10.23,9.72 -10.44,9.76 -10.65,9.79 -10.86,9.75 -11.07,9.72 -11.26,9.62 -11.44,9.52 -11.59,9.37 -11.74,9.21 -11.83,9.02 -11.91,8.83 -11.94,8.61 -11.96,8.40 -11.91,8.20 -11.87,7.99 -11.76,7.81 -11.65,7.62 -11.65,7.62 -11.65,7.62 -10.63,6.13 -9.61,4.63 -6.75,2.02 -3.88,-0.58 -2.19,-1.05 -0.51,-1.53 -0.31,-1.57 -0.12,-1.60 0.06,-1.60 0.25,-1.59 0.44,-1.53 0.63,-1.48 0.80,-1.38 0.97,-1.28 1.11,-1.15 1.25,-1.02 1.35,-0.85 1.45,-0.69 1.52,-0.50 1.58,-0.32 1.59,-0.12 1.61,0.06 1.58,0.25 1.55,0.44 1.47,0.62 1.39,0.80 1.28,0.96 1.16,1.11 1.01,1.24 0.86,1.36 0.68,1.44 0.51,1.53 0.51,1.53 L 0.51,1.53 Z"></path></g><g transform="translate(15.66903663783728 177.23658081619885) rotate(0 0.00004999999998744897 0.00004999999998744897)" stroke="none"><path fill="#1e1e1e" d="M 2.12,-2.12 Q 2.12,-2.12 2.40,-1.73 2.69,-1.33 2.83,-0.87 2.97,-0.40 2.96,0.08 2.95,0.56 2.78,1.02 2.61,1.47 2.31,1.85 2.00,2.23 1.59,2.49 1.18,2.76 0.71,2.87 0.24,2.99 -0.24,2.95 -0.72,2.91 -1.17,2.72 -1.61,2.53 -1.98,2.20 -2.34,1.88 -2.58,1.45 -2.82,1.03 -2.91,0.55 -3.00,0.08 -2.93,-0.40 -2.87,-0.88 -2.65,-1.31 -2.44,-1.75 -2.09,-2.09 -1.75,-2.44 -1.31,-2.65 -0.88,-2.87 -0.39,-2.93 0.08,-3.00 0.55,-2.91 1.03,-2.82 1.46,-2.58 1.88,-2.34 2.20,-1.97 2.53,-1.61 2.72,-1.17 2.91,-0.72 2.95,-0.23 2.99,0.24 2.87,0.71 2.76,1.18 2.49,1.59 2.23,2.00 1.85,2.31 1.47,2.61 1.02,2.78 0.56,2.95 0.07,2.96 -0.40,2.97 -0.87,2.83 -1.33,2.69 -1.73,2.40 -2.12,2.12 -2.12,2.12 -2.12,2.12 -2.34,1.83 -2.57,1.55 -2.72,1.22 -2.86,0.89 -2.93,0.53 -2.99,0.18 -2.97,-0.18 -2.95,-0.54 -2.84,-0.88 -2.74,-1.23 -2.55,-1.54 -2.36,-1.85 -2.10,-2.10 -1.85,-2.36 -1.54,-2.55 -1.23,-2.74 -0.88,-2.84 -0.54,-2.95 -0.17,-2.97 0.18,-2.99 0.53,-2.93 0.89,-2.86 1.22,-2.72 1.55,-2.57 1.84,-2.34 2.12,-2.12 2.12,-2.12 L 2.12,-2.12 Z"></path></g><g transform="translate(16.61387607747679 177.23658081619885) rotate(0 0.4724197198197544 -0.4724197198197544)" stroke="none"><path fill="#1e1e1e" d="M 1.54,-0.48 Q 1.54,-0.48 1.56,-0.09 1.58,0.29 1.42,0.64 1.27,0.99 0.96,1.23 0.66,1.47 0.28,1.54 -0.09,1.61 -0.46,1.49 -0.83,1.38 -1.10,1.10 -1.38,0.83 -1.49,0.46 -1.61,0.09 -1.54,-0.28 -1.47,-0.66 -1.23,-0.96 -0.99,-1.27 -0.64,-1.42 -0.29,-1.58 0.09,-1.56 0.48,-1.54 0.81,-1.34 1.14,-1.14 1.34,-0.81 L 1.54,-0.48 Z"></path></g><g transform="translate(12.834518318918526 178.18142025583836) rotate(0 22.203726831529252 14.1725915945932)" stroke="none"><path fill="#1e1e1e" d="M -1.34,-0.89 Q -1.34,-0.89 -0.85,-1.74 -0.36,-2.59 1.48,-4.05 3.32,-5.51 4.52,-6.10 5.71,-6.69 6.91,-7.21 8.12,-7.73 10.03,-8.31 11.93,-8.89 13.22,-9.28 14.51,-9.68 15.74,-9.89 16.97,-10.10 18.06,-10.22 19.14,-10.34 20.22,-10.65 21.30,-10.96 22.50,-11.06 23.69,-11.16 24.78,-11.21 25.87,-11.25 26.91,-10.95 27.94,-10.64 29.77,-9.78 31.60,-8.91 32.69,-8.09 33.79,-7.26 35.69,-5.86 37.59,-4.47 38.57,-3.56 39.54,-2.65 40.88,-1.01 42.22,0.61 43.08,2.31 43.93,4.01 44.29,5.13 44.65,6.25 44.81,7.42 44.97,8.60 45.27,9.76 45.58,10.92 45.82,12.48 46.06,14.03 46.11,15.80 46.15,17.57 45.85,18.96 45.55,20.35 45.03,21.94 44.51,23.53 43.33,25.70 42.14,27.86 41.03,29.30 39.92,30.74 38.61,31.95 37.29,33.16 36.30,33.85 35.31,34.53 34.36,35.13 33.42,35.73 32.09,36.23 30.76,36.73 29.47,37.26 28.18,37.78 26.49,38.50 24.79,39.23 23.65,39.39 22.51,39.55 20.85,39.33 19.19,39.10 18.98,39.07 18.77,39.03 18.59,38.93 18.40,38.84 18.25,38.68 18.10,38.53 18.01,38.34 17.92,38.14 17.90,37.93 17.88,37.72 17.92,37.51 17.97,37.31 18.07,37.12 18.18,36.94 18.35,36.80 18.51,36.66 18.70,36.59 18.90,36.51 19.11,36.49 19.32,36.48 19.53,36.54 19.73,36.59 19.91,36.71 20.09,36.83 20.22,37.00 20.35,37.17 20.41,37.37 20.48,37.57 20.48,37.78 20.48,37.99 20.42,38.20 20.35,38.40 20.22,38.57 20.10,38.74 19.92,38.86 19.74,38.98 19.54,39.03 19.34,39.09 19.12,39.08 18.91,39.07 18.71,38.99 18.52,38.92 18.35,38.78 18.19,38.64 18.08,38.46 17.97,38.28 17.92,38.07 17.88,37.86 17.90,37.65 17.92,37.44 18.01,37.25 18.10,37.05 18.24,36.90 18.39,36.74 18.58,36.64 18.76,36.54 18.97,36.51 19.18,36.47 19.18,36.47 19.18,36.47 21.54,36.24 23.90,36.01 25.20,35.42 26.51,34.84 27.99,34.22 29.48,33.60 30.56,33.11 31.64,32.63 33.28,31.67 34.92,30.72 35.71,29.93 36.50,29.14 37.55,28.32 38.60,27.50 39.57,25.87 40.53,24.23 41.23,22.73 41.93,21.24 42.27,19.42 42.62,17.59 42.59,15.99 42.57,14.38 42.40,13.10 42.23,11.82 41.71,9.57 41.19,7.33 40.83,6.13 40.46,4.94 39.86,3.78 39.26,2.63 38.14,1.34 37.02,0.05 36.11,-0.79 35.20,-1.63 34.37,-2.34 33.53,-3.06 32.51,-3.69 31.49,-4.33 29.86,-5.37 28.22,-6.41 27.09,-6.94 25.97,-7.47 24.11,-7.25 22.26,-7.02 20.85,-6.73 19.44,-6.44 17.56,-6.26 15.68,-6.08 14.38,-5.63 13.09,-5.19 11.91,-4.84 10.73,-4.50 9.22,-4.03 7.71,-3.55 6.34,-2.95 4.96,-2.34 3.75,-1.50 2.53,-0.66 1.93,0.11 1.34,0.89 1.21,1.04 1.08,1.19 0.93,1.30 0.77,1.41 0.59,1.48 0.41,1.56 0.21,1.58 0.02,1.61 -0.16,1.59 -0.36,1.57 -0.54,1.50 -0.72,1.44 -0.88,1.33 -1.05,1.22 -1.18,1.08 -1.31,0.93 -1.40,0.76 -1.49,0.59 -1.54,0.40 -1.59,0.22 -1.60,0.02 -1.60,-0.16 -1.56,-0.35 -1.51,-0.54 -1.43,-0.72 -1.34,-0.89 -1.34,-0.89 L -1.34,-0.89 Z"></path></g><g transform="translate(35.51066487026765 207.47144288466416) rotate(0 -5.684341886080802e-14 6.1414563576570345)" stroke="none"><path fill="#1e1e1e" d="M 1.14,1.14 Q 1.14,1.14 -0.46,2.79 -2.07,4.44 -3.03,5.41 -3.98,6.38 -2.56,7.00 -1.14,7.62 0.11,8.50 1.37,9.39 2.60,10.06 3.82,10.73 5.40,11.24 6.98,11.75 7.17,11.83 7.37,11.91 7.53,12.05 7.70,12.18 7.81,12.37 7.92,12.55 7.96,12.75 8.01,12.96 7.99,13.17 7.96,13.38 7.88,13.58 7.79,13.77 7.64,13.93 7.50,14.08 7.31,14.18 7.12,14.28 6.91,14.32 6.70,14.35 6.49,14.32 6.28,14.28 6.10,14.19 5.91,14.09 5.76,13.93 5.61,13.78 5.52,13.59 5.43,13.39 5.41,13.18 5.39,12.97 5.43,12.76 5.48,12.56 5.59,12.37 5.69,12.19 5.86,12.05 6.02,11.91 6.21,11.84 6.41,11.76 6.62,11.74 6.84,11.73 7.04,11.79 7.25,11.84 7.42,11.96 7.60,12.08 7.73,12.25 7.86,12.42 7.92,12.62 7.99,12.82 7.99,13.03 7.99,13.25 7.93,13.45 7.86,13.65 7.73,13.82 7.60,13.99 7.43,14.11 7.25,14.23 7.05,14.29 6.84,14.34 6.63,14.33 6.42,14.32 6.42,14.32 6.42,14.32 3.96,13.52 1.50,12.71 0.37,12.51 -0.76,12.30 -1.60,11.60 -2.45,10.89 -3.59,10.52 -4.72,10.16 -6.03,9.56 -7.35,8.96 -7.59,7.30 -7.84,5.64 -7.11,4.81 -6.38,3.98 -5.41,3.03 -4.44,2.07 -2.79,0.46 -1.14,-1.14 -0.98,-1.26 -0.83,-1.38 -0.65,-1.46 -0.48,-1.54 -0.28,-1.57 -0.09,-1.61 0.09,-1.59 0.29,-1.58 0.47,-1.52 0.66,-1.47 0.82,-1.37 0.99,-1.27 1.13,-1.13 1.27,-0.99 1.37,-0.82 1.47,-0.66 1.52,-0.47 1.58,-0.29 1.59,-0.09 1.61,0.09 1.57,0.28 1.54,0.48 1.46,0.65 1.38,0.83 1.26,0.98 1.14,1.14 1.14,1.14 L 1.14,1.14 Z"></path></g></svg>