<svg version="1.1" xmlns="http://www.w3.org/2000/svg" viewBox="0 0 237.84579394995149 210.13733770193153" width="237.84579394995149" height="210.13733770193153">
  <!-- svg-source:excalidraw -->
  
  <defs>
    <style class="style-fonts">
      @font-face {
        font-family: "Virgil";
        src: url("https://excalidraw.com/Virgil.woff2");
      }
      @font-face {
        font-family: "Cascadia";
        src: url("https://excalidraw.com/Cascadia.woff2");
      }
      @font-face {
        font-family: "Assistant";
        src: url("https://excalidraw.com/Assistant-Regular.woff2");
      }
    </style>
    
  </defs>
  <rect x="0" y="0" width="237.84579394995149" height="210.13733770193153" fill="#ffffff"></rect><g stroke-linecap="round"><g transform="translate(21.452294813865024 184.4594678552354) rotate(0 0.9867847369703213 -73.0220705358044)"><path d="M0.79 0.6 C1.18 -23.63, 2.71 -120.27, 2.72 -144.84 M-0.26 -0.14 C0.01 -24.71, 1.6 -122.03, 2.16 -146.34" stroke="#1e1e1e" stroke-width="2" fill="none"></path></g><g transform="translate(21.452294813865024 184.4594678552354) rotate(0 0.9867847369703213 -73.0220705358044)"><path d="M10.26 -122.69 C8.48 -129.19, 6.82 -140.14, 2.16 -146.34 M10.26 -122.69 C9.3 -128.74, 6.98 -134.24, 2.16 -146.34" stroke="#1e1e1e" stroke-width="2" fill="none"></path></g><g transform="translate(21.452294813865024 184.4594678552354) rotate(0 0.9867847369703213 -73.0220705358044)"><path d="M-6.84 -123.01 C-2.98 -129.52, 0.99 -140.36, 2.16 -146.34 M-6.84 -123.01 C-3.85 -129.02, -2.22 -134.44, 2.16 -146.34" stroke="#1e1e1e" stroke-width="2" fill="none"></path></g></g><mask></mask><g stroke-linecap="round"><g transform="translate(23.695640321602014 184.05711649431487) rotate(0 82.2215140415181 0.4344191913430109)"><path d="M0.94 -0.15 C28.39 -0.3, 136.45 0.12, 163.81 0.26 M-0.03 -1.27 C27.89 -0.76, 138.74 0.94, 166.18 1.48" stroke="#1e1e1e" stroke-width="2" fill="none"></path></g><g transform="translate(23.695640321602014 184.05711649431487) rotate(0 82.2215140415181 0.4344191913430109)"><path d="M142.55 9.62 C147.58 6.53, 152.16 6.77, 166.18 1.48 M142.55 9.62 C148.54 6.58, 155.15 5.57, 166.18 1.48" stroke="#1e1e1e" stroke-width="2" fill="none"></path></g><g transform="translate(23.695640321602014 184.05711649431487) rotate(0 82.2215140415181 0.4344191913430109)"><path d="M142.84 -7.48 C147.97 -6.69, 152.49 -2.58, 166.18 1.48 M142.84 -7.48 C148.83 -5.61, 155.35 -1.73, 166.18 1.48" stroke="#1e1e1e" stroke-width="2" fill="none"></path></g></g><mask></mask><g transform="translate(208.73651377890315 189.6272336078548) rotate(0 9.55464008552417 -0.477732004276163)" stroke="none"><path fill="#1e1e1e" d="M -1.26,-1.00 Q -1.26,-1.00 -0.24,-2.46 0.77,-3.91 3.18,-5.49 5.58,-7.06 7.87,-6.64 10.16,-6.22 10.55,-5.03 10.94,-3.83 10.80,-2.02 10.66,-0.21 11.10,1.41 11.55,3.03 13.41,3.08 15.27,3.13 16.65,2.96 18.03,2.79 18.24,2.76 18.45,2.72 18.66,2.76 18.87,2.79 19.06,2.89 19.24,2.99 19.39,3.15 19.54,3.30 19.62,3.49 19.71,3.69 19.74,3.90 19.76,4.11 19.71,4.32 19.67,4.52 19.56,4.71 19.45,4.89 19.29,5.03 19.13,5.16 18.93,5.24 18.73,5.32 18.52,5.33 18.31,5.34 18.10,5.29 17.90,5.23 17.72,5.11 17.55,4.99 17.42,4.82 17.29,4.65 17.22,4.45 17.15,4.25 17.15,4.04 17.15,3.83 17.22,3.62 17.29,3.42 17.42,3.25 17.55,3.08 17.72,2.97 17.90,2.85 18.10,2.79 18.31,2.73 18.52,2.74 18.73,2.76 18.93,2.83 19.13,2.91 19.29,3.05 19.45,3.19 19.56,3.37 19.67,3.55 19.71,3.76 19.76,3.97 19.74,4.18 19.71,4.39 19.62,4.58 19.54,4.77 19.39,4.93 19.24,5.08 19.06,5.18 18.87,5.28 18.87,5.28 18.87,5.28 17.27,6.12 15.68,6.95 13.36,7.00 11.04,7.04 9.55,5.68 8.06,4.31 7.56,1.87 7.06,-0.56 7.16,-2.31 7.26,-4.06 5.44,-2.81 3.62,-1.57 2.44,-0.28 1.26,1.00 1.12,1.14 0.98,1.28 0.81,1.37 0.64,1.47 0.46,1.53 0.27,1.59 0.08,1.60 -0.11,1.61 -0.30,1.57 -0.49,1.53 -0.67,1.45 -0.84,1.37 -1.00,1.25 -1.15,1.12 -1.27,0.97 -1.38,0.82 -1.46,0.64 -1.54,0.46 -1.57,0.27 -1.61,0.08 -1.59,-0.11 -1.58,-0.30 -1.52,-0.49 -1.46,-0.67 -1.36,-0.84 -1.26,-1.00 -1.26,-1.00 L -1.26,-1.00 Z"></path></g><g transform="translate(222.11300989863696 181.02805753088307) rotate(0 -5.732784051314525 9.076908081248007)" stroke="none"><path fill="#1e1e1e" d="M 1.34,0.89 Q 1.34,0.89 -0.24,3.40 -1.82,5.92 -3.90,9.38 -5.98,12.84 -7.29,14.78 -8.61,16.72 -8.74,16.89 -8.87,17.06 -9.05,17.17 -9.23,17.29 -9.44,17.34 -9.64,17.39 -9.86,17.37 -10.07,17.35 -10.26,17.27 -10.46,17.19 -10.62,17.04 -10.77,16.90 -10.88,16.72 -10.98,16.53 -11.02,16.32 -11.06,16.11 -11.04,15.90 -11.01,15.69 -10.91,15.50 -10.82,15.31 -10.67,15.16 -10.52,15.01 -10.33,14.92 -10.14,14.82 -9.93,14.79 -9.72,14.77 -9.51,14.81 -9.30,14.85 -9.11,14.95 -8.93,15.05 -8.79,15.21 -8.65,15.37 -8.56,15.57 -8.48,15.76 -8.46,15.97 -8.44,16.19 -8.49,16.39 -8.54,16.60 -8.66,16.78 -8.77,16.96 -8.94,17.09 -9.10,17.22 -9.30,17.30 -9.50,17.37 -9.72,17.37 -9.93,17.38 -10.13,17.32 -10.33,17.26 -10.51,17.13 -10.68,17.01 -10.80,16.83 -10.93,16.66 -10.99,16.46 -11.05,16.26 -11.05,16.04 -11.04,15.83 -10.97,15.63 -10.89,15.43 -10.89,15.43 -10.90,15.43 -9.90,13.28 -8.90,11.13 -6.83,7.54 -4.76,3.96 -3.05,1.53 -1.34,-0.89 -1.21,-1.04 -1.08,-1.19 -0.93,-1.30 -0.77,-1.41 -0.59,-1.48 -0.41,-1.56 -0.21,-1.58 -0.02,-1.61 0.16,-1.59 0.36,-1.57 0.54,-1.50 0.72,-1.44 0.88,-1.33 1.05,-1.22 1.18,-1.08 1.31,-0.93 1.40,-0.76 1.49,-0.59 1.54,-0.40 1.59,-0.22 1.60,-0.02 1.60,0.16 1.56,0.35 1.51,0.54 1.43,0.72 1.34,0.89 1.34,0.89 L 1.34,0.89 Z"></path></g><g transform="translate(146.63135322299593 93.12536874406055) rotate(0 2.8663920256572624 7.643712068419404)" stroke="none"><path fill="#1e1e1e" d="M 1.44,0.72 Q 1.44,0.72 1.23,1.11 1.02,1.51 2.29,0.20 3.56,-1.09 3.84,-1.14 4.13,-1.18 4.29,-1.29 4.46,-1.40 4.64,-1.46 4.83,-1.52 5.02,-1.54 5.22,-1.56 5.41,-1.53 5.60,-1.50 5.79,-1.42 5.97,-1.35 6.12,-1.23 6.28,-1.12 6.41,-0.97 6.53,-0.82 6.62,-0.64 6.70,-0.46 6.74,-0.27 6.79,-0.08 6.78,0.11 6.77,0.30 6.72,0.49 6.67,0.68 6.57,0.85 6.47,1.02 6.34,1.16 6.21,1.31 7.01,3.96 7.81,6.60 7.68,8.40 7.54,10.21 7.18,12.06 6.82,13.91 6.32,15.42 5.82,16.93 4.46,17.53 3.10,18.13 2.16,17.56 1.21,16.99 0.96,15.35 0.71,13.71 0.52,13.63 0.32,13.55 0.16,13.41 0.00,13.28 -0.10,13.09 -0.21,12.91 -0.26,12.70 -0.30,12.50 -0.28,12.28 -0.26,12.07 -0.17,11.88 -0.08,11.69 0.06,11.53 0.21,11.38 0.39,11.28 0.58,11.18 0.79,11.15 1.00,11.11 1.21,11.15 1.42,11.18 1.61,11.28 1.80,11.38 1.94,11.54 2.09,11.69 2.18,11.88 2.26,12.08 2.29,12.29 2.31,12.50 2.26,12.71 2.22,12.92 2.11,13.10 2.00,13.28 1.84,13.42 1.67,13.55 1.48,13.63 1.28,13.71 1.07,13.72 0.85,13.73 0.65,13.67 0.45,13.62 0.27,13.50 0.09,13.38 -0.02,13.21 -0.15,13.04 -0.22,12.84 -0.29,12.64 -0.29,12.42 -0.29,12.21 -0.22,12.01 -0.15,11.81 -0.02,11.64 0.10,11.47 0.27,11.35 0.45,11.23 0.65,11.18 0.86,11.12 1.07,11.13 1.28,11.14 1.28,11.14 1.28,11.14 2.16,13.33 3.04,15.51 3.37,14.42 3.70,13.33 4.00,11.63 4.29,9.94 4.41,8.57 4.54,7.20 4.19,5.34 3.83,3.48 3.98,1.14 4.13,-1.18 4.29,-1.29 4.46,-1.40 4.64,-1.46 4.83,-1.52 5.02,-1.54 5.22,-1.56 5.41,-1.53 5.60,-1.50 5.78,-1.42 5.97,-1.35 6.12,-1.23 6.28,-1.12 6.41,-0.97 6.53,-0.82 6.62,-0.64 6.70,-0.46 6.74,-0.27 6.79,-0.08 6.78,0.11 6.77,0.30 6.72,0.49 6.67,0.68 6.57,0.85 6.47,1.02 6.34,1.16 6.21,1.31 5.73,1.34 5.25,1.38 4.34,2.22 3.43,3.06 2.17,3.58 0.91,4.10 -0.24,3.57 -1.40,3.04 -1.76,1.86 -2.12,0.68 -1.78,-0.01 -1.44,-0.72 -1.33,-0.88 -1.22,-1.04 -1.08,-1.17 -0.94,-1.31 -0.77,-1.40 -0.60,-1.49 -0.41,-1.54 -0.22,-1.59 -0.03,-1.60 0.16,-1.60 0.35,-1.56 0.54,-1.52 0.71,-1.43 0.89,-1.34 1.03,-1.21 1.18,-1.09 1.30,-0.93 1.41,-0.77 1.48,-0.59 1.55,-0.41 1.58,-0.22 1.61,-0.03 1.59,0.16 1.57,0.35 1.50,0.53 1.44,0.72 1.44,0.72 L 1.44,0.72 Z"></path></g><g transform="translate(14.777320042762085 11.91092801710488) rotate(0 1.9109280171048226 6.210516055590688)" stroke="none"><path fill="#1e1e1e" d="M -1.44,0.72 Q -1.44,0.72 -1.90,0.26 -2.36,-0.19 -2.44,-0.42 -2.52,-0.65 -2.55,-0.89 -2.57,-1.13 -2.54,-1.38 -2.50,-1.62 -2.41,-1.84 -2.32,-2.07 -2.18,-2.27 -2.04,-2.47 -1.85,-2.63 -1.66,-2.79 -1.44,-2.89 -1.23,-3.00 -0.99,-3.06 -0.75,-3.11 -0.50,-3.11 -0.26,-3.10 -0.02,-3.04 0.20,-2.98 0.42,-2.86 0.63,-2.74 0.81,-2.57 0.99,-2.41 1.13,-2.20 1.26,-2.00 2.43,-2.09 3.61,-2.18 4.61,-1.30 5.61,-0.41 5.04,2.38 4.48,5.19 3.57,6.53 2.67,7.87 1.49,9.49 0.30,11.11 3.84,11.67 7.38,12.23 7.51,12.40 7.65,12.56 7.72,12.76 7.80,12.96 7.81,13.17 7.82,13.38 7.76,13.59 7.70,13.79 7.57,13.96 7.45,14.14 7.28,14.26 7.11,14.39 6.91,14.46 6.71,14.52 6.49,14.52 6.28,14.51 6.08,14.44 5.88,14.37 5.71,14.24 5.55,14.11 5.43,13.93 5.31,13.76 5.26,13.55 5.20,13.34 5.22,13.13 5.23,12.92 5.32,12.72 5.40,12.53 5.54,12.37 5.68,12.21 5.86,12.10 6.04,11.99 6.25,11.95 6.46,11.91 6.67,11.94 6.88,11.96 7.07,12.05 7.26,12.15 7.42,12.29 7.57,12.44 7.67,12.63 7.76,12.82 7.79,13.03 7.83,13.24 7.79,13.45 7.75,13.66 7.65,13.85 7.55,14.03 7.39,14.18 7.23,14.32 7.04,14.41 6.84,14.49 6.63,14.51 6.42,14.53 6.21,14.48 6.01,14.43 5.83,14.32 5.65,14.21 5.65,14.21 5.65,14.21 4.49,14.57 3.34,14.94 1.48,15.44 -0.37,15.94 -1.56,15.44 -2.76,14.95 -3.32,13.13 -3.89,11.31 -3.25,10.15 -2.60,9.00 -1.47,7.42 -0.34,5.84 0.33,4.84 1.01,3.83 1.23,2.40 1.45,0.96 -0.45,0.38 -2.36,-0.19 -2.44,-0.42 -2.52,-0.65 -2.55,-0.89 -2.57,-1.13 -2.54,-1.38 -2.50,-1.62 -2.41,-1.84 -2.32,-2.07 -2.18,-2.27 -2.04,-2.47 -1.85,-2.63 -1.66,-2.79 -1.45,-2.89 -1.23,-3.00 -0.99,-3.06 -0.75,-3.11 -0.50,-3.11 -0.26,-3.10 -0.02,-3.04 0.20,-2.98 0.42,-2.86 0.63,-2.74 0.81,-2.57 0.99,-2.41 1.13,-2.20 1.26,-2.00 1.35,-1.36 1.44,-0.72 1.50,-0.53 1.57,-0.35 1.59,-0.16 1.61,0.03 1.58,0.22 1.55,0.41 1.48,0.59 1.41,0.77 1.30,0.93 1.18,1.09 1.03,1.22 0.89,1.34 0.71,1.43 0.54,1.52 0.35,1.56 0.16,1.60 -0.03,1.60 -0.22,1.59 -0.41,1.54 -0.60,1.49 -0.77,1.40 -0.94,1.30 -1.08,1.17 -1.22,1.04 -1.33,0.88 -1.44,0.72 -1.44,0.72 L -1.44,0.72 Z"></path></g><g transform="translate(10 19.55464008552417) rotate(0 5.255052047038305 -0.477732004276163)" stroke="none"><path fill="#1e1e1e" d="M 0,-1.61 Q 0,-1.61 4.06,-1.72 8.13,-1.83 8.34,-1.84 8.55,-1.85 8.76,-1.78 8.96,-1.72 9.13,-1.60 9.30,-1.47 9.43,-1.30 9.55,-1.13 9.61,-0.92 9.67,-0.72 9.67,-0.51 9.66,-0.30 9.59,-0.10 9.52,0.09 9.38,0.26 9.25,0.42 9.07,0.54 8.89,0.65 8.68,0.70 8.48,0.75 8.27,0.74 8.05,0.72 7.86,0.64 7.66,0.55 7.51,0.41 7.35,0.27 7.24,0.08 7.14,-0.09 7.10,-0.30 7.06,-0.51 7.09,-0.72 7.12,-0.93 7.21,-1.12 7.31,-1.31 7.46,-1.46 7.61,-1.61 7.80,-1.71 7.99,-1.80 8.20,-1.83 8.41,-1.86 8.62,-1.82 8.83,-1.78 9.01,-1.67 9.20,-1.57 9.34,-1.41 9.48,-1.25 9.56,-1.05 9.65,-0.86 9.67,-0.65 9.68,-0.44 9.63,-0.23 9.58,-0.02 9.46,0.15 9.35,0.32 9.18,0.46 9.02,0.59 8.82,0.66 8.62,0.74 8.62,0.74 8.62,0.74 4.31,1.17 0,1.61 -0.19,1.59 -0.38,1.56 -0.56,1.49 -0.75,1.42 -0.91,1.31 -1.07,1.20 -1.19,1.06 -1.32,0.91 -1.41,0.74 -1.50,0.57 -1.55,0.38 -1.60,0.19 -1.60,-0.00 -1.60,-0.19 -1.55,-0.38 -1.50,-0.57 -1.41,-0.74 -1.32,-0.91 -1.19,-1.06 -1.07,-1.20 -0.91,-1.31 -0.74,-1.42 -0.56,-1.49 -0.38,-1.56 -0.19,-1.59 0.00,-1.61 0.00,-1.61 L 0,-1.61 Z"></path></g><g transform="translate(21.997172464113078 185.00211177965673) rotate(0 36.376318426122396 -26.92792402972691)" stroke="none"><path fill="#1e1e1e" d="M -1.29,-0.96 Q -1.29,-0.96 -0.65,-2.18 -0.01,-3.40 1.48,-5.07 2.99,-6.74 4.43,-7.84 5.87,-8.95 6.96,-9.54 8.04,-10.14 8.84,-10.89 9.64,-11.64 10.66,-12.37 11.67,-13.09 12.50,-13.82 13.34,-14.54 14.25,-15.39 15.15,-16.24 16.79,-17.54 18.43,-18.84 19.72,-20.01 21.01,-21.17 22.25,-22.11 23.49,-23.06 24.83,-23.99 26.17,-24.91 27.32,-25.62 28.48,-26.32 29.36,-27.06 30.25,-27.80 31.54,-28.73 32.84,-29.67 34.19,-30.62 35.54,-31.56 36.90,-32.72 38.25,-33.88 39.58,-34.76 40.92,-35.64 41.98,-36.19 43.04,-36.74 44.71,-37.65 46.37,-38.56 47.99,-39.43 49.60,-40.30 50.82,-40.93 52.04,-41.57 53.30,-42.33 54.55,-43.10 55.71,-44.01 56.87,-44.92 58.41,-45.94 59.95,-46.96 60.95,-47.50 61.95,-48.03 62.92,-48.48 63.88,-48.93 65.19,-49.79 66.49,-50.64 67.08,-51.59 67.68,-52.53 69.84,-53.75 72.00,-54.96 72.21,-55.01 72.42,-55.06 72.63,-55.05 72.84,-55.03 73.04,-54.95 73.23,-54.86 73.39,-54.72 73.55,-54.58 73.65,-54.39 73.76,-54.21 73.80,-54.00 73.84,-53.79 73.81,-53.58 73.78,-53.37 73.68,-53.18 73.59,-52.99 73.44,-52.84 73.29,-52.69 73.10,-52.59 72.91,-52.50 72.70,-52.47 72.49,-52.44 72.28,-52.48 72.07,-52.52 71.89,-52.63 71.70,-52.73 71.56,-52.89 71.42,-53.05 71.33,-53.24 71.25,-53.44 71.23,-53.65 71.21,-53.86 71.27,-54.07 71.32,-54.27 71.43,-54.45 71.55,-54.63 71.71,-54.76 71.88,-54.90 72.08,-54.97 72.28,-55.04 72.49,-55.05 72.70,-55.06 72.90,-54.99 73.11,-54.93 73.28,-54.81 73.45,-54.68 73.58,-54.51 73.70,-54.34 73.76,-54.13 73.82,-53.93 73.82,-53.72 73.81,-53.51 73.74,-53.31 73.67,-53.11 73.53,-52.94 73.40,-52.78 73.22,-52.66 73.04,-52.55 73.04,-52.55 73.04,-52.55 71.47,-50.70 69.89,-48.86 68.25,-47.45 66.60,-46.03 64.92,-45.07 63.25,-44.11 62.16,-43.64 61.08,-43.17 59.69,-42.14 58.31,-41.10 57.54,-40.32 56.78,-39.53 55.38,-38.68 53.98,-37.83 52.78,-37.21 51.58,-36.59 50.06,-35.79 48.53,-34.99 46.44,-33.85 44.35,-32.71 43.27,-32.20 42.19,-31.68 40.98,-30.56 39.77,-29.44 38.86,-28.75 37.95,-28.06 36.62,-27.16 35.28,-26.26 34.09,-25.41 32.89,-24.56 31.76,-23.65 30.62,-22.75 29.58,-22.13 28.54,-21.51 27.26,-20.62 25.98,-19.73 24.91,-18.94 23.83,-18.15 22.26,-16.80 20.68,-15.44 19.32,-14.35 17.96,-13.26 17.00,-12.34 16.03,-11.42 14.19,-10.05 12.36,-8.68 11.43,-7.84 10.51,-6.99 9.08,-6.18 7.66,-5.36 6.81,-4.66 5.95,-3.95 4.61,-2.44 3.27,-0.93 2.28,0.01 1.29,0.96 1.15,1.10 1.02,1.24 0.85,1.35 0.69,1.45 0.50,1.51 0.32,1.58 0.13,1.59 -0.06,1.61 -0.25,1.58 -0.44,1.55 -0.62,1.47 -0.80,1.39 -0.96,1.28 -1.11,1.16 -1.24,1.01 -1.36,0.86 -1.44,0.68 -1.53,0.51 -1.56,0.32 -1.60,0.13 -1.60,-0.06 -1.59,-0.25 -1.53,-0.44 -1.48,-0.63 -1.38,-0.79 -1.29,-0.96 -1.29,-0.96 L -1.29,-0.96 Z"></path></g><g transform="translate(87.19109379924146 130.2014242805633) rotate(0 5.66903663783728 2.834518318918697)" stroke="none"><path fill="#1e1e1e" d="M -0.39,-1.56 Q -0.39,-1.56 0.64,-2.02 1.67,-2.48 3.31,-3.03 4.94,-3.58 6.06,-4.06 7.19,-4.53 8.38,-4.60 9.57,-4.67 10.86,-4.48 12.14,-4.29 12.05,-4.24 11.96,-4.18 12.19,-4.15 12.42,-4.13 12.63,-4.05 12.84,-3.97 13.03,-3.84 13.22,-3.72 13.38,-3.55 13.53,-3.38 13.64,-3.17 13.75,-2.97 13.80,-2.75 13.86,-2.53 13.86,-2.30 13.86,-2.07 13.81,-1.85 13.76,-1.63 13.66,-1.42 13.55,-1.22 13.40,-1.05 13.25,-0.88 13.06,-0.74 12.88,-0.61 12.66,-0.53 12.45,-0.45 12.23,-0.42 12.00,-0.39 11.93,1.04 11.85,2.47 11.33,3.85 10.81,5.22 9.87,6.96 8.93,8.69 8.80,8.86 8.68,9.03 8.50,9.15 8.33,9.28 8.13,9.34 7.92,9.39 7.71,9.39 7.50,9.38 7.30,9.30 7.10,9.22 6.94,9.09 6.77,8.95 6.66,8.77 6.55,8.59 6.50,8.38 6.45,8.18 6.47,7.97 6.49,7.76 6.58,7.56 6.67,7.37 6.81,7.21 6.96,7.06 7.14,6.95 7.33,6.85 7.54,6.81 7.75,6.78 7.96,6.81 8.17,6.84 8.36,6.94 8.55,7.04 8.69,7.19 8.84,7.34 8.93,7.53 9.02,7.72 9.05,7.94 9.08,8.15 9.03,8.35 8.99,8.56 8.88,8.75 8.77,8.93 8.61,9.07 8.45,9.21 8.26,9.29 8.06,9.37 7.85,9.38 7.64,9.40 7.43,9.34 7.23,9.29 7.05,9.17 6.87,9.06 6.74,8.89 6.61,8.72 6.54,8.52 6.47,8.32 6.47,8.11 6.46,7.89 6.53,7.69 6.60,7.49 6.60,7.49 6.60,7.49 6.90,5.60 7.20,3.71 7.71,2.22 8.22,0.73 8.90,-0.57 9.59,-1.88 10.77,-3.03 11.96,-4.18 12.19,-4.15 12.42,-4.13 12.63,-4.05 12.84,-3.97 13.03,-3.84 13.22,-3.72 13.38,-3.55 13.53,-3.38 13.64,-3.18 13.75,-2.97 13.80,-2.75 13.86,-2.53 13.86,-2.30 13.86,-2.07 13.81,-1.85 13.76,-1.63 13.66,-1.42 13.55,-1.22 13.40,-1.05 13.25,-0.88 13.06,-0.74 12.88,-0.61 12.67,-0.53 12.45,-0.45 12.23,-0.42 12.00,-0.39 11.33,-0.70 10.67,-1.01 9.44,-0.85 8.21,-0.70 6.98,-0.20 5.75,0.29 4.21,0.84 2.67,1.39 1.53,1.48 0.39,1.56 0.19,1.58 0.00,1.61 -0.18,1.59 -0.38,1.56 -0.56,1.50 -0.74,1.43 -0.90,1.32 -1.06,1.21 -1.19,1.06 -1.32,0.92 -1.41,0.74 -1.50,0.57 -1.55,0.38 -1.60,0.19 -1.60,0.00 -1.60,-0.18 -1.55,-0.37 -1.51,-0.56 -1.42,-0.74 -1.33,-0.91 -1.20,-1.05 -1.07,-1.20 -0.91,-1.31 -0.75,-1.42 -0.57,-1.49 -0.39,-1.56 -0.39,-1.56 L -0.39,-1.56 Z"></path></g><g transform="translate(110.81207979022997 124.53238764272612) rotate(0 -0.4724197198197544 0)" stroke="none"><path fill="#1e1e1e" d="M -0.54,3.00 Q -0.54,3.00 -1.02,2.92 -1.50,2.84 -1.93,2.62 -2.36,2.39 -2.69,2.03 -3.03,1.68 -3.23,1.24 -3.43,0.80 -3.49,0.32 -3.54,-0.16 -3.43,-0.63 -3.33,-1.11 -3.08,-1.52 -2.83,-1.94 -2.46,-2.26 -2.09,-2.57 -1.64,-2.75 -1.18,-2.93 -0.70,-2.96 -0.21,-2.98 0.25,-2.85 0.71,-2.72 1.12,-2.45 1.52,-2.18 1.81,-1.79 2.11,-1.40 2.26,-0.94 2.42,-0.48 2.42,0.00 2.42,0.48 2.26,0.94 2.11,1.40 1.81,1.79 1.52,2.18 1.12,2.45 0.71,2.72 0.24,2.85 -0.21,2.98 -0.70,2.96 -1.18,2.93 -1.64,2.75 -2.09,2.57 -2.46,2.25 -2.83,1.94 -3.08,1.52 -3.33,1.11 -3.43,0.63 -3.54,0.16 -3.49,-0.32 -3.43,-0.80 -3.23,-1.24 -3.03,-1.68 -2.69,-2.04 -2.36,-2.39 -1.93,-2.62 -1.50,-2.84 -1.02,-2.92 -0.54,-3.00 -0.54,-3.00 -0.54,-3.00 -0.17,-3.02 0.19,-3.04 0.55,-2.98 0.91,-2.91 1.25,-2.76 1.58,-2.60 1.87,-2.38 2.16,-2.15 2.39,-1.86 2.61,-1.57 2.76,-1.23 2.91,-0.90 2.98,-0.53 3.04,-0.17 3.02,0.19 3.00,0.55 2.89,0.90 2.78,1.26 2.59,1.57 2.39,1.88 2.13,2.14 1.87,2.40 1.56,2.59 1.24,2.78 0.89,2.89 0.54,3.00 -0.00,3.00 L -0.54,3.00 Z"></path></g><g transform="translate(110.81207979022997 123.5875482030865) rotate(0 -0.4724197198197544 0)" stroke="none"><path fill="#1e1e1e" d="M 1.54,-0.48 Q 1.54,-0.48 1.56,-0.09 1.58,0.29 1.42,0.64 1.27,0.99 0.96,1.23 0.66,1.47 0.28,1.54 -0.09,1.61 -0.46,1.49 -0.83,1.38 -1.10,1.10 -1.38,0.83 -1.49,0.46 -1.61,0.09 -1.54,-0.28 -1.47,-0.66 -1.23,-0.96 -0.99,-1.27 -0.64,-1.42 -0.29,-1.58 0.09,-1.56 0.48,-1.54 0.81,-1.34 1.14,-1.14 1.34,-0.81 L 1.54,-0.48 Z"></path></g><g transform="translate(108.92240091095096 123.5875482030865) rotate(0 5.66903663783728 7.0862957972966)" stroke="none"><path fill="#1e1e1e" d="M -0.22,-1.59 Q -0.22,-1.59 1.65,-1.99 3.53,-2.39 4.94,-2.52 6.34,-2.65 7.50,-2.69 8.65,-2.74 9.40,-2.74 10.15,-2.74 10.37,-2.73 10.59,-2.71 10.80,-2.64 11.01,-2.57 11.20,-2.45 11.39,-2.34 11.54,-2.18 11.69,-2.02 11.81,-1.83 11.92,-1.63 11.98,-1.42 12.04,-1.21 12.05,-0.99 12.06,-0.77 12.02,-0.55 11.97,-0.33 11.88,-0.13 11.79,0.06 11.65,0.23 11.51,0.40 11.33,0.53 11.15,0.67 10.95,0.76 10.75,0.84 10.53,0.88 10.31,0.92 8.38,3.93 6.46,6.94 5.33,8.49 4.20,10.05 3.84,11.09 3.48,12.13 5.35,12.33 7.22,12.52 8.71,12.52 10.19,12.53 10.36,12.39 10.52,12.26 10.72,12.19 10.92,12.12 11.13,12.11 11.35,12.10 11.55,12.17 11.75,12.23 11.93,12.35 12.10,12.48 12.22,12.65 12.35,12.82 12.41,13.02 12.47,13.23 12.47,13.44 12.46,13.65 12.39,13.85 12.31,14.05 12.18,14.22 12.05,14.38 11.87,14.50 11.69,14.61 11.48,14.66 11.28,14.71 11.06,14.70 10.85,14.68 10.66,14.60 10.46,14.51 10.30,14.37 10.15,14.23 10.04,14.04 9.94,13.86 9.90,13.65 9.86,13.44 9.89,13.23 9.91,13.02 10.01,12.83 10.10,12.64 10.25,12.49 10.40,12.34 10.59,12.24 10.78,12.15 11.00,12.12 11.21,12.09 11.41,12.13 11.62,12.17 11.81,12.28 11.99,12.38 12.13,12.54 12.28,12.70 12.36,12.89 12.44,13.09 12.46,13.30 12.48,13.51 12.43,13.72 12.38,13.92 12.26,14.10 12.15,14.28 12.15,14.28 12.15,14.28 10.06,15.40 7.98,16.52 6.47,16.77 4.97,17.03 2.87,16.47 0.78,15.91 0.17,14.93 -0.43,13.94 -0.28,12.31 -0.13,10.68 0.50,9.27 1.13,7.85 2.35,6.18 3.56,4.51 5.57,2.09 7.58,-0.32 8.87,-1.53 10.15,-2.74 10.37,-2.73 10.59,-2.71 10.80,-2.64 11.01,-2.57 11.20,-2.45 11.39,-2.34 11.54,-2.18 11.69,-2.02 11.81,-1.83 11.92,-1.64 11.98,-1.42 12.04,-1.21 12.05,-0.99 12.06,-0.77 12.02,-0.55 11.97,-0.33 11.88,-0.13 11.79,0.06 11.65,0.23 11.51,0.40 11.33,0.53 11.15,0.67 10.95,0.76 10.75,0.84 10.53,0.88 10.31,0.92 9.56,0.95 8.82,0.99 7.74,1.05 6.66,1.10 5.36,1.20 4.06,1.30 2.14,1.45 0.22,1.59 0.03,1.60 -0.16,1.60 -0.35,1.56 -0.54,1.52 -0.71,1.43 -0.88,1.34 -1.03,1.22 -1.18,1.09 -1.29,0.93 -1.41,0.77 -1.48,0.59 -1.55,0.41 -1.58,0.22 -1.61,0.03 -1.59,-0.15 -1.57,-0.35 -1.50,-0.53 -1.44,-0.71 -1.33,-0.88 -1.23,-1.04 -1.08,-1.17 -0.94,-1.30 -0.77,-1.40 -0.60,-1.49 -0.41,-1.54 -0.22,-1.59 -0.22,-1.59 L -0.22,-1.59 Z"></path></g><g transform="translate(106.08788259203232 132.09110315984242) rotate(0 7.0862957972966 -1.41725915945932)" stroke="none"><path fill="#1e1e1e" d="M -0.31,-1.58 Q -0.31,-1.58 3.77,-2.32 7.86,-3.06 9.60,-3.33 11.35,-3.61 11.56,-3.61 11.77,-3.62 11.98,-3.56 12.18,-3.50 12.36,-3.38 12.53,-3.25 12.65,-3.08 12.78,-2.91 12.84,-2.71 12.91,-2.50 12.90,-2.29 12.90,-2.08 12.83,-1.88 12.76,-1.68 12.62,-1.51 12.49,-1.35 12.31,-1.23 12.14,-1.12 11.93,-1.06 11.72,-1.01 11.51,-1.03 11.30,-1.04 11.10,-1.12 10.91,-1.21 10.75,-1.35 10.59,-1.49 10.48,-1.67 10.38,-1.86 10.34,-2.06 10.30,-2.27 10.32,-2.48 10.35,-2.69 10.44,-2.88 10.54,-3.08 10.68,-3.23 10.83,-3.38 11.02,-3.47 11.21,-3.57 11.42,-3.60 11.63,-3.63 11.84,-3.59 12.05,-3.55 12.24,-3.45 12.42,-3.35 12.57,-3.19 12.71,-3.03 12.79,-2.84 12.88,-2.64 12.90,-2.43 12.92,-2.22 12.87,-2.01 12.82,-1.81 12.70,-1.63 12.59,-1.45 12.43,-1.31 12.26,-1.18 12.06,-1.10 11.86,-1.03 11.87,-1.03 11.87,-1.03 10.15,-0.61 8.43,-0.19 4.37,0.69 0.31,1.58 0.12,1.59 -0.07,1.61 -0.26,1.58 -0.45,1.54 -0.63,1.47 -0.81,1.39 -0.96,1.27 -1.12,1.15 -1.24,1.00 -1.36,0.85 -1.45,0.68 -1.53,0.50 -1.57,0.31 -1.60,0.12 -1.60,-0.07 -1.59,-0.26 -1.53,-0.45 -1.48,-0.63 -1.38,-0.80 -1.28,-0.97 -1.15,-1.11 -1.01,-1.25 -0.85,-1.35 -0.68,-1.46 -0.50,-1.52 -0.31,-1.58 -0.31,-1.58 L -0.31,-1.58 Z"></path></g><g transform="translate(35.224924619066655 155.71208915083093) rotate(0 0 0.9448394396395656)" stroke="none"><path fill="#1e1e1e" d="M 1.54,-0.48 Q 1.54,-0.48 1.56,-0.09 1.58,0.29 1.42,0.64 1.27,0.99 0.96,1.23 0.66,1.47 0.28,1.54 -0.09,1.61 -0.46,1.49 -0.83,1.38 -1.10,1.10 -1.38,0.83 -1.49,0.46 -1.61,0.09 -1.54,-0.28 -1.47,-0.66 -1.23,-0.96 -0.99,-1.27 -0.64,-1.42 -0.29,-1.58 0.09,-1.56 0.48,-1.54 0.81,-1.34 1.14,-1.14 1.34,-0.81 L 1.54,-0.48 Z"></path></g><g transform="translate(35.224924619066655 157.60176803011007) rotate(0 12.755332435133823 5.196616918017469)" stroke="none"><path fill="#1e1e1e" d="M -1.53,-0.51 Q -1.53,-0.51 -1.34,-1.35 -1.16,-2.19 -0.66,-3.54 -0.16,-4.88 1.07,-5.96 2.30,-7.04 3.33,-7.62 4.35,-8.20 5.67,-8.72 7.00,-9.24 8.05,-9.72 9.10,-10.21 10.28,-10.34 11.46,-10.46 12.93,-10.48 14.40,-10.51 15.79,-10.50 17.18,-10.50 18.75,-9.64 20.32,-8.79 21.27,-8.00 22.21,-7.21 23.23,-5.74 24.24,-4.26 24.95,-3.16 25.67,-2.06 26.25,-0.59 26.82,0.87 27.03,1.98 27.23,3.09 27.32,5.37 27.42,7.64 27.13,8.94 26.84,10.24 26.28,11.83 25.72,13.42 24.76,14.59 23.80,15.76 22.88,16.41 21.96,17.05 20.70,17.86 19.45,18.66 18.20,18.86 16.95,19.05 15.30,19.15 13.65,19.25 13.50,19.40 13.35,19.54 13.15,19.63 12.96,19.72 12.75,19.75 12.54,19.77 12.33,19.72 12.12,19.68 11.94,19.57 11.76,19.46 11.62,19.30 11.48,19.14 11.40,18.94 11.32,18.74 11.31,18.53 11.30,18.32 11.36,18.11 11.41,17.91 11.53,17.73 11.65,17.56 11.82,17.43 11.99,17.30 12.19,17.23 12.39,17.16 12.60,17.16 12.81,17.16 13.02,17.23 13.22,17.30 13.39,17.42 13.56,17.55 13.68,17.73 13.80,17.90 13.85,18.11 13.91,18.31 13.90,18.52 13.89,18.74 13.81,18.93 13.73,19.13 13.60,19.29 13.46,19.46 13.28,19.57 13.10,19.68 12.89,19.72 12.68,19.77 12.47,19.75 12.26,19.72 12.06,19.64 11.87,19.55 11.72,19.40 11.56,19.26 11.46,19.07 11.36,18.88 11.33,18.67 11.29,18.46 11.33,18.25 11.36,18.04 11.46,17.85 11.56,17.67 11.56,17.67 11.56,17.67 15.01,16.20 18.46,14.73 19.78,13.74 21.10,12.76 21.95,11.82 22.79,10.87 23.15,9.28 23.52,7.69 23.43,5.72 23.34,3.75 22.87,2.21 22.39,0.67 21.95,-0.30 21.51,-1.28 20.50,-2.53 19.49,-3.78 18.69,-4.68 17.89,-5.57 16.90,-6.03 15.90,-6.48 14.23,-6.48 12.56,-6.48 11.35,-6.42 10.14,-6.37 8.97,-5.91 7.80,-5.45 6.70,-5.01 5.60,-4.56 4.61,-4.12 3.62,-3.68 2.93,-2.37 2.24,-1.06 1.88,-0.27 1.53,0.51 1.44,0.68 1.36,0.86 1.24,1.01 1.11,1.16 0.96,1.28 0.80,1.39 0.62,1.47 0.44,1.55 0.25,1.58 0.06,1.61 -0.12,1.59 -0.32,1.58 -0.50,1.52 -0.69,1.45 -0.85,1.35 -1.02,1.25 -1.15,1.11 -1.28,0.97 -1.38,0.80 -1.48,0.63 -1.53,0.44 -1.59,0.25 -1.60,0.06 -1.60,-0.12 -1.57,-0.31 -1.53,-0.51 -1.53,-0.51 L -1.53,-0.51 Z"></path></g><g transform="translate(49.397516213659856 168.9398413057845) rotate(0 0 5.66903663783728)" stroke="none"><path fill="#1e1e1e" d="M 1.44,0.72 Q 1.44,0.72 0.95,1.83 0.47,2.94 -0.58,4.50 -1.64,6.05 -2.39,6.85 -3.14,7.65 -1.81,7.53 -0.48,7.41 0.59,7.84 1.68,8.27 3.48,9.08 5.29,9.88 5.48,9.97 5.68,10.05 5.83,10.20 5.99,10.34 6.10,10.52 6.20,10.71 6.24,10.92 6.28,11.13 6.25,11.34 6.22,11.55 6.12,11.74 6.03,11.93 5.88,12.08 5.73,12.23 5.54,12.32 5.35,12.41 5.14,12.44 4.93,12.47 4.72,12.43 4.51,12.39 4.32,12.28 4.14,12.18 4.00,12.02 3.86,11.86 3.77,11.66 3.69,11.47 3.67,11.26 3.66,11.04 3.71,10.84 3.76,10.63 3.88,10.45 3.99,10.28 4.16,10.14 4.32,10.01 4.52,9.94 4.72,9.87 4.94,9.86 5.15,9.86 5.35,9.92 5.55,9.98 5.73,10.11 5.90,10.23 6.02,10.40 6.14,10.58 6.21,10.78 6.27,10.98 6.26,11.20 6.25,11.41 6.18,11.61 6.11,11.81 5.97,11.97 5.84,12.14 5.66,12.25 5.48,12.37 5.27,12.42 5.07,12.47 4.86,12.45 4.64,12.43 4.64,12.43 4.64,12.43 2.67,12.29 0.70,12.16 -0.58,11.79 -1.86,11.42 -3.29,10.88 -4.72,10.33 -5.68,9.72 -6.63,9.11 -6.24,7.59 -5.85,6.08 -4.93,4.82 -4.01,3.55 -3.32,2.47 -2.64,1.39 -2.04,0.33 -1.44,-0.72 -1.33,-0.88 -1.22,-1.04 -1.08,-1.17 -0.94,-1.31 -0.77,-1.40 -0.60,-1.49 -0.41,-1.54 -0.22,-1.59 -0.03,-1.60 0.16,-1.60 0.35,-1.56 0.54,-1.52 0.71,-1.43 0.89,-1.34 1.03,-1.21 1.18,-1.09 1.30,-0.93 1.41,-0.77 1.48,-0.59 1.55,-0.41 1.58,-0.22 1.61,-0.03 1.59,0.16 1.57,0.35 1.50,0.53 1.44,0.72 1.44,0.72 L 1.44,0.72 Z"></path></g></svg>