<svg version="1.1" xmlns="http://www.w3.org/2000/svg" viewBox="0 0 261.1067362872714 247.87081432121727" width="261.1067362872714" height="247.87081432121727">
  <!-- svg-source:excalidraw -->
  
  <defs>
    <style class="style-fonts">
      @font-face {
        font-family: "Virgil";
        src: url("https://excalidraw.com/Virgil.woff2");
      }
      @font-face {
        font-family: "Cascadia";
        src: url("https://excalidraw.com/Cascadia.woff2");
      }
      @font-face {
        font-family: "Assistant";
        src: url("https://excalidraw.com/Assistant-Regular.woff2");
      }
    </style>
    
  </defs>
  <rect x="0" y="0" width="261.1067362872714" height="247.87081432121727" fill="#ffffff"></rect><g stroke-linecap="round"><g transform="translate(15.646605099682773 18.389750524453234) rotate(0 -0.45160295355606195 108.83631180701207)"><path d="M0 -0.2 C-0.04 36.28, -0.17 181.37, -0.17 217.85 M-1.45 -1.35 C-1.6 35.45, -0.92 183.11, -0.74 219.48" stroke="#1e1e1e" stroke-width="1" fill="none"></path></g></g><mask></mask><g stroke-linecap="round"><g transform="translate(250.48014094883743 13.8737209888925) rotate(0 -120.57798859946979 0.45160295355606195)"><path d="M0.63 -0.82 C-39.34 -0.76, -199.61 0.9, -240.09 1.02 M-0.5 1.37 C-40.52 1.58, -200.57 2.73, -240.48 2.61" stroke="#1e1e1e" stroke-width="1" fill="none"></path></g></g><mask></mask><g stroke-linecap="round"><g transform="translate(17.45301691390702 117.74240030678777) rotate(0 113.35234134257271 0.4516029535561188)"><path d="M-0.23 -0.26 C37.51 -0.22, 189.65 -0.13, 227.44 0 M-1.8 -1.44 C35.75 -1.26, 188.96 0.56, 226.88 1.06" stroke="#1e1e1e" stroke-width="1" fill="none"></path></g></g><mask></mask><g stroke-linecap="round"><g transform="translate(246.86731732038882 11.164103267556015) rotate(0 0.45160295355606195 107.48150294634388)"><path d="M0.33 -0.08 C0.56 35.91, 1.08 179.18, 1.23 215.14 M-0.95 -1.16 C-0.83 35.11, 0.18 180.96, 0.45 216.78" stroke="#1e1e1e" stroke-width="1" fill="none"></path></g></g><mask></mask><g stroke-linecap="round"><g transform="translate(249.5769350417253 226.12710916024378) rotate(0 -116.96516497102127 0.45160295355606195)"><path d="M0.38 -1.08 C-38.49 -1.04, -194.26 0.45, -233.35 0.64 M-0.88 0.96 C-39.84 1.16, -194.96 2.04, -233.99 2.04" stroke="#1e1e1e" stroke-width="1" fill="none"></path></g></g><mask></mask><g stroke-linecap="round"><g transform="translate(133.06337302426007 19.292956431565244) rotate(0 0.45160295355606195 102.06226750367108)"><path d="M-0.54 -0.63 C-0.31 33.38, 0.78 170.08, 0.96 204.23 M1.37 1.66 C1.49 35.86, 0.33 171.82, 0.04 205.82" stroke="#1e1e1e" stroke-width="1" fill="none"></path></g></g><mask></mask><g transform="translate(68.93575361929865 168.32193110506728) rotate(0 1.8064118142242478 0)" stroke="none"><path fill="#1e1e1e" d="M -0.72,-1.44 Q -0.72,-1.44 0.74,-2.15 2.21,-2.87 3.46,-1.89 4.70,-0.91 4.63,0.53 4.56,1.99 3.23,2.92 1.89,3.84 0.22,3.12 -1.44,2.40 -1.52,0.69 -1.61,-1.02 -0.74,-1.27 0.12,-1.52 0.26,-1.60 0.40,-1.67 0.55,-1.71 0.71,-1.75 0.86,-1.76 1.02,-1.76 1.18,-1.72 1.33,-1.69 1.47,-1.62 1.61,-1.55 1.73,-1.44 1.85,-1.34 1.95,-1.21 2.04,-1.08 2.10,-0.94 2.16,-0.79 2.18,-0.63 2.20,-0.48 2.18,-0.32 2.17,-0.16 2.11,-0.01 2.06,0.13 1.97,0.26 1.88,0.39 1.77,0.50 1.65,0.61 1.37,0.72 1.08,0.84 0.87,0.83 0.66,0.83 0.46,0.76 0.26,0.69 0.09,0.56 -0.07,0.43 -0.19,0.25 -0.30,0.07 -0.36,-0.12 -0.41,-0.33 -0.40,-0.54 -0.38,-0.75 -0.30,-0.95 -0.22,-1.14 -0.08,-1.30 0.05,-1.46 0.23,-1.57 0.42,-1.68 0.62,-1.72 0.83,-1.76 1.04,-1.74 1.25,-1.71 1.45,-1.62 1.64,-1.53 1.79,-1.38 1.94,-1.23 2.04,-1.04 2.14,-0.86 2.17,-0.65 2.20,-0.44 2.16,-0.23 2.13,-0.02 2.02,0.16 1.92,0.35 1.76,0.49 1.61,0.63 1.41,0.72 1.22,0.81 1.01,0.83 0.80,0.85 0.59,0.80 0.38,0.75 0.20,0.64 0.02,0.53 -0.10,0.36 -0.24,0.20 -0.31,0.00 -0.39,-0.19 -0.40,-0.40 -0.41,-0.61 -0.35,-0.82 -0.29,-1.02 -0.17,-1.19 -0.05,-1.37 0.12,-1.49 0.29,-1.62 0.20,-1.57 0.12,-1.52 0.26,-1.60 0.40,-1.67 0.55,-1.71 0.71,-1.75 0.86,-1.76 1.02,-1.76 1.18,-1.72 1.33,-1.69 1.47,-1.62 1.61,-1.55 1.73,-1.44 1.85,-1.34 1.95,-1.21 2.04,-1.08 2.10,-0.94 2.16,-0.79 2.18,-0.63 2.20,-0.48 2.18,-0.32 2.17,-0.16 2.11,-0.01 2.06,0.13 1.97,0.26 1.88,0.39 1.77,0.50 1.65,0.61 1.79,0.70 1.93,0.79 1.32,1.12 0.72,1.44 0.53,1.50 0.35,1.57 0.16,1.59 -0.03,1.61 -0.22,1.58 -0.41,1.55 -0.59,1.48 -0.77,1.41 -0.93,1.30 -1.09,1.18 -1.22,1.03 -1.34,0.89 -1.43,0.71 -1.52,0.54 -1.56,0.35 -1.60,0.16 -1.60,-0.03 -1.59,-0.22 -1.54,-0.41 -1.49,-0.60 -1.40,-0.77 -1.30,-0.94 -1.17,-1.08 -1.04,-1.22 -0.88,-1.33 -0.72,-1.44 -0.72,-1.44 L -0.72,-1.44 Z"></path></g><g transform="translate(187.25572745098808 163.80590156950666) rotate(0 2.7096177213364 -0.4516029535561188)" stroke="none"><path fill="#1e1e1e" d="M -0.89,-1.34 Q -0.89,-1.34 -0.31,-2.17 0.25,-3.01 1.79,-3.50 3.33,-3.99 5.24,-2.64 7.15,-1.29 6.86,-0.02 6.56,1.24 3.58,1.42 0.59,1.60 0.41,1.50 0.22,1.39 0.08,1.24 -0.06,1.08 -0.15,0.89 -0.23,0.69 -0.25,0.48 -0.27,0.27 -0.22,0.06 -0.18,-0.13 -0.06,-0.31 0.04,-0.49 0.20,-0.63 0.37,-0.77 0.57,-0.84 0.76,-0.92 0.98,-0.93 1.19,-0.93 1.39,-0.87 1.60,-0.82 1.77,-0.69 1.94,-0.57 2.07,-0.40 2.20,-0.23 2.26,-0.03 2.33,0.16 2.32,0.38 2.32,0.59 2.25,0.79 2.18,0.99 2.05,1.16 1.92,1.32 1.74,1.44 1.56,1.56 1.36,1.61 1.15,1.67 0.94,1.65 0.73,1.64 0.53,1.56 0.34,1.47 0.18,1.33 0.02,1.20 -0.08,1.01 -0.19,0.83 -0.23,0.62 -0.27,0.41 -0.25,0.20 -0.22,-0.00 -0.13,-0.19 -0.04,-0.38 0.10,-0.54 0.25,-0.69 0.44,-0.78 0.63,-0.88 0.84,-0.91 1.05,-0.94 1.26,-0.91 1.46,-0.87 1.46,-0.87 1.46,-0.87 2.27,-1.05 3.08,-1.22 2.96,-0.14 2.85,0.93 1.87,1.13 0.89,1.34 0.72,1.43 0.54,1.51 0.35,1.56 0.16,1.60 -0.02,1.60 -0.22,1.59 -0.40,1.54 -0.59,1.49 -0.76,1.40 -0.93,1.31 -1.08,1.18 -1.22,1.05 -1.33,0.88 -1.44,0.72 -1.50,0.54 -1.57,0.36 -1.59,0.16 -1.61,-0.02 -1.58,-0.21 -1.56,-0.41 -1.48,-0.59 -1.41,-0.77 -1.30,-0.93 -1.19,-1.08 -1.04,-1.21 -0.89,-1.34 -0.89,-1.34 L -0.89,-1.34 Z"></path></g><g transform="translate(68.03254771218647 62.646839972947646) rotate(0 2.258014767780338 0.9032059071121239)" stroke="none"><path fill="#1e1e1e" d="M -0.39,-1.56 Q -0.39,-1.56 0.63,-1.89 1.65,-2.22 3.46,-1.95 5.28,-1.68 5.78,-0.25 6.28,1.17 5.20,2.69 4.12,4.21 2.32,3.93 0.53,3.66 -0.13,2.30 -0.80,0.95 -0.40,-0.59 -0.01,-2.15 1.44,-2.80 2.90,-3.46 4.01,-2.96 5.11,-2.45 5.65,-1.12 6.20,0.21 6.01,1.28 5.82,2.35 4.60,3.73 3.38,5.10 2.13,5.11 0.88,5.11 0.17,4.30 -0.52,3.48 -0.33,2.29 -0.13,1.09 1.58,0.52 3.30,-0.03 3.73,0.99 4.16,2.03 3.55,3.25 2.93,4.47 1.39,4.72 -0.15,4.97 -0.46,3.04 -0.77,1.11 -0.88,0.93 -0.99,0.75 -1.03,0.54 -1.08,0.33 -1.05,0.12 -1.03,-0.08 -0.94,-0.27 -0.85,-0.46 -0.70,-0.62 -0.56,-0.77 -0.37,-0.87 -0.18,-0.97 0.02,-1.00 0.23,-1.04 0.44,-1.00 0.65,-0.97 0.83,-0.87 1.02,-0.77 1.17,-0.61 1.31,-0.46 1.40,-0.27 1.49,-0.07 1.51,0.13 1.54,0.34 1.49,0.55 1.44,0.76 1.33,0.94 1.22,1.12 1.06,1.26 0.90,1.39 0.70,1.47 0.50,1.55 0.29,1.56 0.08,1.57 -0.12,1.51 -0.32,1.46 -0.50,1.34 -0.67,1.22 -0.80,1.05 -0.93,0.88 -1.00,0.68 -1.06,0.47 -1.06,0.26 -1.06,0.05 -0.99,-0.14 -0.92,-0.34 -0.80,-0.51 -0.67,-0.68 -0.49,-0.80 -0.31,-0.92 -0.11,-0.97 0.09,-1.03 0.30,-1.02 0.51,-1.01 0.71,-0.93 0.90,-0.85 1.07,-0.71 1.23,-0.57 1.23,-0.57 1.23,-0.57 0.77,0.27 0.31,1.12 1.40,1.15 2.50,1.18 1.44,1.37 0.39,1.56 0.19,1.58 0.00,1.61 -0.18,1.59 -0.38,1.56 -0.56,1.50 -0.74,1.43 -0.90,1.32 -1.06,1.21 -1.19,1.06 -1.32,0.92 -1.41,0.74 -1.50,0.57 -1.55,0.38 -1.60,0.19 -1.60,0.00 -1.60,-0.18 -1.55,-0.37 -1.51,-0.56 -1.42,-0.74 -1.33,-0.91 -1.20,-1.05 -1.07,-1.20 -0.91,-1.31 -0.75,-1.42 -0.57,-1.49 -0.39,-1.56 -0.39,-1.56 L -0.39,-1.56 Z"></path></g><g transform="translate(187.25572745098808 59.03401634449915) rotate(0 1.3548088606682143 1.3548088606681858)" stroke="none"><path fill="#1e1e1e" d="M 0,-1.61 Q 0,-1.61 1.10,-1.77 2.21,-1.94 3.76,-0.83 5.32,0.27 5.29,1.56 5.26,2.86 4.03,3.85 2.80,4.84 1.10,4.38 -0.59,3.93 -1.15,1.98 -1.72,0.03 -1.01,-0.92 -0.29,-1.87 1.77,-1.71 3.84,-1.55 4.28,-0.40 4.71,0.74 3.94,2.72 3.16,4.71 1.69,4.98 0.23,5.26 -0.90,4.56 -2.03,3.85 -2.40,2.81 -2.78,1.77 -2.42,0.64 -2.07,-0.47 -0.25,-0.82 1.57,-1.17 2.05,-0.15 2.53,0.86 2.33,0.34 2.12,-0.16 2.27,0.07 2.42,0.31 2.51,0.58 2.60,0.85 2.62,1.13 2.64,1.42 2.59,1.70 2.54,1.98 2.43,2.24 2.32,2.50 2.14,2.72 1.97,2.95 1.75,3.13 1.53,3.30 1.27,3.42 1.01,3.54 0.74,3.60 0.46,3.65 0.17,3.64 -0.10,3.63 -0.37,3.54 -0.64,3.46 -0.89,3.32 -1.13,3.17 -1.34,2.98 -1.54,2.78 -1.51,1.03 -1.47,-0.72 0.36,-1.12 2.21,-1.53 2.87,-0.50 3.54,0.52 3.30,1.58 3.07,2.63 1.91,3.18 0.76,3.73 0.57,2.32 0.39,0.92 0.24,0.96 0.08,1.01 -0.06,1.02 -0.22,1.03 -0.38,1.00 -0.53,0.97 -0.68,0.91 -0.82,0.84 -0.95,0.74 -1.07,0.65 -1.17,0.52 -1.26,0.40 -1.33,0.25 -1.39,0.11 -1.42,-0.04 -1.45,-0.19 -1.44,-0.35 -1.43,-0.51 -1.38,-0.66 -1.33,-0.81 -1.25,-0.95 -1.17,-1.08 -1.06,-1.19 -0.95,-1.31 -0.81,-1.39 -0.67,-1.47 0.23,-0.97 1.15,-0.47 1.15,-0.26 1.15,-0.05 1.08,0.14 1.01,0.34 0.88,0.51 0.75,0.68 0.57,0.80 0.39,0.92 0.19,0.97 -0.01,1.03 -0.22,1.01 -0.43,1.00 -0.63,0.92 -0.82,0.84 -0.98,0.70 -1.15,0.56 -1.25,0.38 -1.36,0.20 -1.41,-0.00 -1.45,-0.21 -1.43,-0.42 -1.40,-0.63 -1.31,-0.82 -1.22,-1.02 -1.07,-1.17 -0.93,-1.32 -0.74,-1.42 -0.55,-1.52 -0.34,-1.55 -0.13,-1.58 0.07,-1.55 0.28,-1.51 0.47,-1.41 0.65,-1.31 0.80,-1.15 0.94,-1.00 1.03,-0.81 1.12,-0.61 1.14,-0.40 1.16,-0.19 1.12,0.01 1.07,0.21 0.96,0.40 0.85,0.58 0.68,0.71 0.52,0.85 0.32,0.93 0.12,1.00 -0.08,1.01 -0.29,1.02 -0.49,0.97 -0.70,0.91 -0.87,0.79 -1.05,0.67 -1.18,0.50 -1.30,0.33 -0.45,0.62 0.39,0.92 0.24,0.96 0.09,1.01 -0.06,1.02 -0.22,1.03 -0.38,1.00 -0.53,0.97 -0.68,0.91 -0.82,0.84 -0.95,0.74 -1.07,0.65 -1.17,0.52 -1.26,0.40 -1.33,0.25 -1.39,0.11 -1.42,-0.04 -1.45,-0.19 -1.44,-0.35 -1.43,-0.51 -1.38,-0.66 -1.33,-0.81 -1.25,-0.95 -1.17,-1.08 -1.06,-1.19 -0.95,-1.31 -0.81,-1.39 -0.67,-1.47 -0.53,-0.44 -0.39,0.58 0.56,1.34 1.52,2.10 1.82,0.97 2.12,-0.16 2.27,0.07 2.42,0.31 2.51,0.58 2.60,0.85 2.62,1.13 2.64,1.42 2.59,1.70 2.54,1.98 2.43,2.24 2.32,2.50 2.15,2.72 1.97,2.95 1.75,3.13 1.53,3.30 1.27,3.42 1.01,3.54 0.74,3.60 0.46,3.65 0.17,3.64 -0.10,3.63 -0.37,3.54 -0.64,3.46 -0.89,3.32 -1.13,3.17 -1.34,2.98 -1.54,2.78 -0.67,1.53 0.19,0.29 1.06,1.11 1.93,1.94 0.96,1.77 0,1.61 -0.19,1.59 -0.38,1.56 -0.56,1.49 -0.75,1.42 -0.91,1.31 -1.07,1.20 -1.19,1.06 -1.32,0.91 -1.41,0.74 -1.50,0.57 -1.55,0.38 -1.60,0.19 -1.60,-0.00 -1.60,-0.19 -1.55,-0.38 -1.50,-0.57 -1.41,-0.74 -1.32,-0.91 -1.19,-1.06 -1.07,-1.20 -0.91,-1.31 -0.74,-1.42 -0.56,-1.49 -0.38,-1.56 -0.19,-1.59 0.00,-1.61 0.00,-1.61 L 0,-1.61 Z"></path></g><g stroke-linecap="round"><g transform="translate(74.35498906197145 167.41872519795515) rotate(0 56.901972148064374 0)"><path d="M0.32 -1.08 C19.07 -0.86, 94.07 0.19, 113.17 0.22 M-0.97 0.96 C18.12 0.89, 96.27 -1.62, 115.55 -1.79" stroke="#1e1e1e" stroke-width="1" fill="none"></path></g></g><mask></mask><g stroke-linecap="round"><g transform="translate(75.25819496908358 63.55004588005977) rotate(0 54.643957380284064 -0.45160295355606195)"><path d="M-1.1 -0.6 C17.21 -0.57, 90.76 -0.14, 109.06 -0.04 M0.52 1.7 C18.73 1.42, 90.15 -1.11, 107.99 -1.72" stroke="#1e1e1e" stroke-width="1" fill="none"></path></g></g><mask></mask><g transform="translate(152.93390298072703 96.06545853609657) rotate(0 2.258014767780338 5.684341886080802e-14)" stroke="none"><path fill="#2f9e44" d="M -1.53,-0.51 Q -1.53,-0.51 -1.36,-1.38 -1.19,-2.26 0.14,-3.29 1.48,-4.32 3.24,-3.84 5.01,-3.36 5.34,-2.07 5.66,-0.78 5.31,0.72 4.95,2.22 2.89,3.14 0.83,4.06 -0.40,3.13 -1.63,2.20 -1.63,0.60 -1.63,-0.99 -0.58,-2.26 0.46,-3.54 1.65,-3.75 2.85,-3.96 4.47,-3.25 6.09,-2.54 6.41,-1.21 6.74,0.10 6.12,1.63 5.50,3.16 4.11,4.02 2.73,4.88 0.82,3.98 -1.07,3.09 -1.40,1.12 -1.72,-0.83 -1.22,-0.64 -0.71,-0.45 -0.72,-0.61 -0.73,-0.76 -0.70,-0.92 -0.67,-1.08 -0.60,-1.22 -0.53,-1.36 -0.43,-1.49 -0.33,-1.61 -0.21,-1.71 -0.08,-1.80 0.05,-1.87 0.20,-1.93 0.35,-1.96 0.51,-1.98 0.67,-1.97 0.82,-1.96 0.98,-1.91 1.13,-1.86 1.26,-1.78 1.39,-1.70 1.51,-1.58 1.62,-1.47 1.70,-1.33 1.78,-1.20 1.82,-1.05 1.87,-0.89 1.56,-0.22 1.25,0.45 1.05,0.52 0.85,0.60 0.64,0.61 0.43,0.62 0.22,0.57 0.02,0.51 -0.15,0.39 -0.32,0.27 -0.45,0.10 -0.58,-0.06 -0.65,-0.26 -0.71,-0.46 -0.71,-0.68 -0.71,-0.89 -0.64,-1.09 -0.57,-1.29 -0.44,-1.46 -0.32,-1.63 -0.14,-1.75 0.03,-1.87 0.23,-1.92 0.44,-1.98 0.65,-1.96 0.86,-1.95 1.06,-1.87 1.26,-1.79 1.42,-1.66 1.58,-1.52 1.69,-1.33 1.80,-1.15 1.84,-0.94 1.89,-0.74 1.86,-0.53 1.84,-0.31 1.75,-0.12 1.66,0.06 1.51,0.21 1.36,0.37 1.18,0.47 0.99,0.57 0.78,0.60 0.57,0.63 0.36,0.60 0.15,0.56 -0.03,0.46 -0.22,0.36 -0.36,0.21 -0.51,0.05 -0.59,-0.13 -0.68,-0.33 -0.71,-0.54 -0.73,-0.75 -0.68,-0.96 -0.63,-1.16 -0.52,-1.34 -0.41,-1.53 -0.56,-0.99 -0.71,-0.45 -0.72,-0.61 -0.73,-0.76 -0.70,-0.92 -0.67,-1.08 -0.60,-1.22 -0.53,-1.36 -0.43,-1.49 -0.33,-1.61 -0.21,-1.71 -0.08,-1.80 0.05,-1.87 0.20,-1.93 0.35,-1.96 0.51,-1.98 0.67,-1.97 0.82,-1.96 0.98,-1.91 1.13,-1.86 1.26,-1.78 1.39,-1.70 1.51,-1.58 1.62,-1.47 1.70,-1.33 1.78,-1.20 1.82,-1.05 1.87,-0.89 2.05,-0.87 2.23,-0.85 1.88,-0.17 1.53,0.51 1.44,0.68 1.36,0.86 1.24,1.01 1.11,1.16 0.96,1.28 0.80,1.39 0.62,1.47 0.44,1.55 0.25,1.58 0.06,1.61 -0.12,1.59 -0.32,1.58 -0.50,1.52 -0.69,1.45 -0.85,1.35 -1.02,1.25 -1.15,1.11 -1.28,0.97 -1.38,0.80 -1.48,0.63 -1.53,0.44 -1.59,0.25 -1.60,0.06 -1.60,-0.12 -1.57,-0.31 -1.53,-0.51 -1.53,-0.51 L -1.53,-0.51 Z"></path></g><g stroke-linecap="round"><g transform="translate(155.6435207020634 62.646839972947646) rotate(0 -0.45160295355606195 51.48273670539163)"><path d="M0.16 0.39 C0.02 17.63, 0.38 85.23, 0.17 102.24 M-1.21 -0.45 C-1.51 17.03, -0.1 86.07, -0.21 103.4" stroke="#1e1e1e" stroke-width="1" fill="none"></path></g></g><mask></mask><g transform="translate(155.6435207020634 61.74363406583552) rotate(0 -0.4516029535560335 0.9032059071121239)" stroke="none"><path fill="#1e1e1e" d="M 1.61,0 Q 1.61,0 1.73,0.80 1.85,1.60 -0.02,2.47 -1.89,3.34 -2.79,2.69 -3.69,2.04 -3.92,0.67 -4.14,-0.68 -3.02,-1.76 -1.90,-2.83 0.07,-2.51 2.04,-2.19 2.54,-0.39 3.04,1.40 1.96,2.28 0.88,3.16 -0.21,3.00 -1.30,2.85 -1.87,0.85 -2.44,-1.15 -1.38,-1.82 -0.33,-2.50 1.21,-1.50 2.76,-0.50 2.75,1.16 2.75,2.84 1.59,3.62 0.43,4.41 -1.14,3.36 -2.71,2.31 -2.25,0.61 -1.79,-1.08 -0.03,-1.41 1.71,-1.75 2.51,0.28 3.31,2.32 2.20,3.31 1.08,4.31 0.60,3.03 0.12,1.76 -0.02,1.81 -0.17,1.87 -0.32,1.89 -0.48,1.91 -0.64,1.89 -0.79,1.87 -0.94,1.82 -1.09,1.76 -1.22,1.67 -1.35,1.58 -1.46,1.46 -1.56,1.34 -1.64,1.20 -1.71,1.06 -1.75,0.91 -1.79,0.76 -1.79,0.60 -1.79,0.44 -1.75,0.29 -1.71,0.13 -1.64,-0.00 -1.57,-0.14 -1.46,-0.26 -1.36,-0.38 -1.23,-0.47 -1.10,-0.56 -1.14,-0.53 -1.18,-0.50 -0.99,-0.59 -0.79,-0.67 -0.58,-0.69 -0.37,-0.70 -0.16,-0.65 0.03,-0.60 0.21,-0.48 0.39,-0.37 0.52,-0.20 0.65,-0.03 0.73,0.16 0.80,0.35 0.80,0.57 0.81,0.78 0.74,0.98 0.68,1.19 0.56,1.36 0.43,1.53 0.26,1.65 0.08,1.78 -0.11,1.84 -0.31,1.90 -0.52,1.89 -0.74,1.88 -0.94,1.81 -1.14,1.74 -1.30,1.60 -1.47,1.47 -1.58,1.29 -1.69,1.11 -1.74,0.90 -1.79,0.70 -1.77,0.48 -1.76,0.27 -1.67,0.08 -1.59,-0.11 -1.44,-0.26 -1.30,-0.42 -1.11,-0.53 -0.93,-0.63 -0.72,-0.67 -0.51,-0.71 -0.30,-0.68 -0.09,-0.65 0.09,-0.55 0.28,-0.46 0.43,-0.31 0.58,-0.15 0.67,0.03 0.76,0.22 0.79,0.43 0.82,0.64 0.78,0.85 0.74,1.06 0.63,1.24 0.53,1.42 0.32,1.59 0.12,1.76 -0.02,1.81 -0.17,1.87 -0.32,1.89 -0.48,1.91 -0.64,1.89 -0.79,1.87 -0.94,1.82 -1.09,1.76 -1.22,1.67 -1.35,1.58 -1.46,1.46 -1.56,1.34 -1.64,1.20 -1.71,1.06 -1.75,0.91 -1.79,0.76 -1.79,0.60 -1.79,0.44 -1.75,0.29 -1.71,0.13 -1.64,-0.00 -1.57,-0.14 -1.46,-0.26 -1.36,-0.38 -1.23,-0.47 -1.10,-0.56 -0.59,-0.45 -0.08,-0.35 0.05,0.95 0.18,2.27 0.77,1.37 1.37,0.48 0.24,0.96 -0.87,1.45 -0.39,0.47 0.08,-0.51 -0.88,-0.02 -1.85,0.46 -1.73,0.23 -1.61,0 -1.59,-0.19 -1.56,-0.38 -1.49,-0.56 -1.42,-0.75 -1.31,-0.91 -1.20,-1.07 -1.06,-1.19 -0.91,-1.32 -0.74,-1.41 -0.57,-1.50 -0.38,-1.55 -0.19,-1.60 0.00,-1.60 0.19,-1.60 0.38,-1.55 0.57,-1.50 0.74,-1.41 0.91,-1.32 1.06,-1.19 1.20,-1.07 1.31,-0.91 1.42,-0.74 1.49,-0.56 1.56,-0.38 1.59,-0.19 1.61,0.00 1.61,0.00 L 1.61,0 Z"></path></g><g transform="translate(154.74031479495127 165.6123133837309) rotate(0 2.258014767780338 1.8064118142242478)" stroke="none"><path fill="#1e1e1e" d="M 0.89,-1.34 Q 0.89,-1.34 1.95,-0.78 3.01,-0.22 3.24,1.15 3.47,2.54 2.34,3.37 1.21,4.20 -0.24,3.22 -1.69,2.24 -1.71,0.62 -1.72,-0.99 -0.10,-1.97 1.51,-2.95 3.23,-2.57 4.96,-2.18 5.61,-1.29 6.27,-0.40 6.05,1.34 5.83,3.10 4.88,4.02 3.94,4.94 2.62,5.10 1.30,5.26 0.15,3.84 -0.99,2.42 0.00,1.06 1.00,-0.29 2.18,-0.35 3.37,-0.42 4.27,0.58 5.17,1.59 5.12,2.97 5.08,4.34 2.84,5.22 0.61,6.10 -0.25,3.77 -1.11,1.43 -1.11,1.22 -1.10,1.01 -1.03,0.80 -0.96,0.60 -0.83,0.44 -0.70,0.27 -0.52,0.15 -0.34,0.04 -0.14,-0.00 0.06,-0.06 0.27,-0.04 0.48,-0.03 0.68,0.04 0.87,0.13 1.03,0.27 1.19,0.41 1.30,0.59 1.41,0.77 1.45,0.98 1.49,1.19 1.46,1.40 1.44,1.61 1.34,1.80 1.25,2.00 1.10,2.15 0.95,2.30 0.76,2.40 0.58,2.49 0.36,2.52 0.15,2.55 -0.04,2.51 -0.25,2.48 -0.44,2.37 -0.63,2.27 -0.77,2.11 -0.91,1.96 -1.00,1.76 -1.08,1.57 -1.10,1.36 -1.12,1.15 -1.07,0.94 -1.02,0.73 -0.91,0.55 -0.80,0.37 -0.63,0.24 -0.47,0.10 -0.27,0.03 -0.07,-0.04 0.13,-0.05 0.34,-0.05 0.55,0.00 0.75,0.06 0.92,0.18 1.10,0.30 1.22,0.47 1.35,0.64 1.41,0.85 1.48,1.05 1.48,1.05 1.48,1.05 2.23,1.82 2.98,2.60 1.87,2.68 0.77,2.77 1.92,2.48 3.07,2.18 2.38,1.27 1.69,0.37 0.89,1.33 0.10,2.30 -0.39,1.82 -0.89,1.34 -1.04,1.21 -1.19,1.08 -1.30,0.93 -1.41,0.77 -1.48,0.59 -1.56,0.41 -1.58,0.21 -1.61,0.02 -1.59,-0.16 -1.57,-0.36 -1.50,-0.54 -1.44,-0.72 -1.33,-0.88 -1.22,-1.05 -1.08,-1.18 -0.93,-1.31 -0.76,-1.40 -0.59,-1.49 -0.40,-1.54 -0.22,-1.59 -0.02,-1.60 0.16,-1.60 0.35,-1.56 0.54,-1.51 0.72,-1.43 0.89,-1.34 0.89,-1.34 L 0.89,-1.34 Z"></path></g><g transform="translate(59.000488641065175 181.87001971174925) rotate(0 -5.4192354426728 8.58045611756529)" stroke="none"><path fill="#1e1e1e" d="M 0.35,1.57 Q 0.35,1.57 -1.91,2.34 -4.17,3.11 -5.10,3.69 -6.02,4.28 -6.69,5.61 -7.37,6.94 -7.65,8.35 -7.94,9.76 -8.07,11.13 -8.21,12.51 -7.86,13.96 -7.51,15.42 -6.79,14.30 -6.08,13.18 -5.07,12.03 -4.06,10.88 -3.98,10.68 -3.90,10.48 -3.77,10.32 -3.63,10.16 -3.45,10.04 -3.27,9.93 -3.06,9.89 -2.85,9.84 -2.64,9.86 -2.43,9.88 -2.24,9.97 -2.04,10.05 -1.89,10.20 -1.73,10.34 -1.63,10.53 -1.53,10.72 -1.49,10.93 -1.46,11.14 -1.49,11.35 -1.52,11.56 -1.62,11.74 -1.72,11.93 -1.87,12.08 -2.02,12.23 -2.21,12.32 -2.41,12.41 -2.62,12.44 -2.83,12.46 -3.04,12.42 -3.24,12.37 -3.43,12.27 -3.61,12.16 -3.75,12.00 -3.89,11.84 -3.97,11.64 -4.05,11.44 -4.06,11.23 -4.08,11.02 -4.02,10.81 -3.97,10.61 -3.85,10.43 -3.73,10.25 -3.57,10.12 -3.40,9.99 -3.20,9.92 -3.00,9.85 -2.78,9.85 -2.57,9.85 -2.37,9.92 -2.17,9.98 -2.00,10.11 -1.83,10.24 -1.71,10.41 -1.58,10.59 -1.53,10.79 -1.47,10.99 -1.48,11.21 -1.49,11.42 -1.49,11.42 -1.49,11.42 -3.01,14.68 -4.53,17.94 -5.66,18.79 -6.79,19.63 -8.32,19.57 -9.85,19.51 -10.92,18.61 -11.98,17.71 -12.56,16.12 -13.14,14.53 -13.02,13.22 -12.90,11.92 -12.65,10.26 -12.40,8.61 -11.80,6.57 -11.19,4.54 -9.76,2.64 -8.33,0.75 -6.75,-0.14 -5.16,-1.03 -2.75,-1.30 -0.35,-1.57 -0.15,-1.59 0.03,-1.61 0.22,-1.58 0.42,-1.55 0.60,-1.48 0.78,-1.41 0.94,-1.29 1.09,-1.18 1.22,-1.03 1.34,-0.88 1.43,-0.71 1.52,-0.53 1.56,-0.34 1.60,-0.15 1.60,0.03 1.59,0.23 1.54,0.41 1.49,0.60 1.40,0.77 1.30,0.94 1.17,1.08 1.04,1.23 0.87,1.33 0.71,1.44 0.53,1.51 0.34,1.57 0.35,1.57 L 0.35,1.57 Z"></path></g><g transform="translate(62.61331226951367 190.9020787828706) rotate(0 0.45160295355609037 6.322441349784924)" stroke="none"><path fill="#1e1e1e" d="M 1.60,-0.20 Q 1.60,-0.20 2.15,1.84 2.70,3.88 2.84,5.60 2.97,7.33 2.29,9.60 1.60,11.87 1.51,12.06 1.42,12.25 1.27,12.40 1.12,12.55 0.93,12.65 0.73,12.74 0.52,12.77 0.31,12.80 0.11,12.76 -0.09,12.72 -0.28,12.61 -0.46,12.51 -0.61,12.35 -0.75,12.19 -0.83,12.00 -0.92,11.80 -0.93,11.59 -0.95,11.38 -0.90,11.17 -0.85,10.97 -0.73,10.79 -0.62,10.61 -0.45,10.48 -0.29,10.34 -0.09,10.27 0.10,10.20 0.31,10.19 0.53,10.18 0.73,10.25 0.93,10.31 1.11,10.43 1.28,10.56 1.40,10.73 1.53,10.90 1.59,11.11 1.65,11.31 1.64,11.52 1.64,11.73 1.57,11.93 1.49,12.13 1.36,12.30 1.23,12.46 1.05,12.58 0.87,12.69 0.66,12.74 0.46,12.80 0.24,12.78 0.03,12.76 -0.15,12.68 -0.35,12.59 -0.51,12.45 -0.66,12.31 -0.77,12.12 -0.87,11.94 -0.91,11.73 -0.95,11.52 -0.92,11.31 -0.90,11.10 -0.90,11.10 -0.90,11.10 -1.19,9.36 -1.49,7.62 -1.58,6.02 -1.66,4.42 -1.63,2.31 -1.60,0.20 -1.60,0.00 -1.60,-0.18 -1.55,-0.37 -1.51,-0.56 -1.42,-0.73 -1.33,-0.91 -1.20,-1.05 -1.07,-1.20 -0.91,-1.31 -0.75,-1.42 -0.57,-1.49 -0.39,-1.56 -0.19,-1.58 -0.00,-1.61 0.18,-1.59 0.38,-1.56 0.56,-1.50 0.74,-1.43 0.90,-1.32 1.06,-1.21 1.19,-1.06 1.32,-0.92 1.41,-0.74 1.50,-0.57 1.55,-0.38 1.60,-0.20 1.60,-0.20 L 1.60,-0.20 Z"></path></g><g transform="translate(202.61022787189435 182.77322561886137) rotate(0 -5.870838396228862 5.870838396228862)" stroke="none"><path fill="#1e1e1e" d="M -0.96,1.29 Q -0.96,1.29 -2.15,0.73 -3.34,0.18 -4.37,-0.13 -5.39,-0.45 -6.54,1.61 -7.69,3.68 -8.21,4.91 -8.72,6.14 -8.81,7.47 -8.91,8.80 -8.48,10.11 -8.06,11.42 -6.94,11.11 -5.82,10.81 -4.07,10.01 -2.32,9.20 -2.12,9.13 -1.92,9.07 -1.71,9.06 -1.49,9.06 -1.29,9.13 -1.09,9.20 -0.92,9.32 -0.75,9.45 -0.63,9.63 -0.51,9.80 -0.45,10.01 -0.39,10.21 -0.41,10.42 -0.42,10.64 -0.49,10.83 -0.57,11.03 -0.71,11.19 -0.84,11.36 -1.03,11.47 -1.21,11.58 -1.41,11.62 -1.62,11.67 -1.83,11.65 -2.04,11.63 -2.24,11.54 -2.43,11.45 -2.59,11.31 -2.74,11.16 -2.84,10.97 -2.94,10.79 -2.98,10.58 -3.01,10.37 -2.98,10.16 -2.95,9.95 -2.85,9.76 -2.75,9.57 -2.60,9.42 -2.44,9.28 -2.25,9.19 -2.06,9.10 -1.85,9.07 -1.63,9.05 -1.43,9.09 -1.22,9.14 -1.04,9.25 -0.85,9.36 -0.72,9.52 -0.58,9.68 -0.50,9.87 -0.42,10.07 -0.41,10.28 -0.39,10.50 -0.45,10.70 -0.51,10.91 -0.62,11.08 -0.74,11.26 -0.91,11.39 -1.08,11.52 -1.08,11.52 -1.08,11.52 -1.95,12.94 -2.82,14.36 -3.91,15.21 -4.99,16.06 -6.01,16.43 -7.03,16.80 -8.50,16.59 -9.97,16.39 -11.36,14.89 -12.76,13.39 -13.17,12.30 -13.57,11.20 -13.70,9.65 -13.82,8.10 -13.42,6.20 -13.01,4.31 -12.35,2.84 -11.68,1.38 -10.74,-0.08 -9.80,-1.54 -8.92,-2.48 -8.04,-3.42 -5.67,-3.84 -3.29,-4.26 -2.05,-3.78 -0.80,-3.30 0.08,-2.29 0.96,-1.29 1.10,-1.15 1.24,-1.02 1.35,-0.85 1.45,-0.69 1.51,-0.50 1.58,-0.32 1.59,-0.13 1.61,0.06 1.58,0.25 1.55,0.44 1.47,0.62 1.39,0.80 1.28,0.96 1.16,1.11 1.01,1.24 0.86,1.36 0.68,1.44 0.51,1.53 0.32,1.56 0.13,1.60 -0.06,1.60 -0.25,1.59 -0.44,1.53 -0.63,1.48 -0.79,1.38 -0.96,1.29 -0.96,1.29 L -0.96,1.29 Z"></path></g><g transform="translate(208.02946331456715 190.9020787828706) rotate(0 4.516029535560676 4.967632489116738)" stroke="none"><path fill="#1e1e1e" d="M 0.89,-1.34 Q 0.89,-1.34 2.64,-0.42 4.39,0.49 5.07,2.16 5.74,3.83 5.32,5.06 4.91,6.28 3.99,7.07 3.06,7.87 5.36,7.71 7.65,7.55 7.83,7.45 8.02,7.34 8.22,7.30 8.43,7.26 8.64,7.29 8.85,7.32 9.04,7.41 9.23,7.50 9.39,7.65 9.54,7.80 9.63,7.99 9.73,8.18 9.76,8.39 9.78,8.61 9.74,8.81 9.71,9.02 9.60,9.21 9.50,9.39 9.34,9.54 9.18,9.68 8.99,9.76 8.79,9.85 8.58,9.86 8.37,9.88 8.16,9.83 7.96,9.78 7.78,9.67 7.60,9.55 7.46,9.39 7.33,9.22 7.26,9.02 7.18,8.82 7.18,8.61 7.17,8.40 7.23,8.20 7.29,7.99 7.42,7.82 7.54,7.65 7.71,7.52 7.88,7.40 8.09,7.34 8.29,7.27 8.50,7.28 8.72,7.28 8.92,7.36 9.11,7.43 9.28,7.56 9.45,7.69 9.56,7.87 9.68,8.05 9.73,8.26 9.78,8.46 9.76,8.68 9.75,8.89 9.66,9.08 9.58,9.28 9.44,9.44 9.30,9.59 9.30,9.59 9.30,9.59 5.82,10.86 2.34,12.13 0.55,11.21 -1.24,10.28 -1.40,9.09 -1.56,7.90 -1.04,6.94 -0.53,5.99 0.64,4.82 1.83,3.65 0.46,2.49 -0.89,1.34 -1.04,1.21 -1.19,1.08 -1.30,0.93 -1.41,0.77 -1.48,0.59 -1.56,0.41 -1.58,0.21 -1.61,0.02 -1.59,-0.16 -1.57,-0.36 -1.50,-0.54 -1.44,-0.72 -1.33,-0.88 -1.22,-1.05 -1.08,-1.18 -0.93,-1.31 -0.76,-1.40 -0.59,-1.49 -0.40,-1.54 -0.22,-1.59 -0.02,-1.60 0.16,-1.60 0.35,-1.56 0.54,-1.51 0.72,-1.43 0.89,-1.34 0.89,-1.34 L 0.89,-1.34 Z"></path></g><g transform="translate(150.2242852593906 182.77322561886137) rotate(0 -4.0644265820045575 5.870838396228862)" stroke="none"><path fill="#1e1e1e" d="M -0.89,1.34 Q -0.89,1.34 -1.65,0.99 -2.40,0.63 -3.66,1.42 -4.91,2.21 -5.74,3.66 -6.57,5.11 -6.72,6.97 -6.87,8.84 -6.07,10.17 -5.26,11.51 -4.10,10.73 -2.94,9.95 -1.56,9.05 -0.19,8.15 0.00,8.07 0.20,7.99 0.41,7.99 0.62,7.98 0.83,8.04 1.03,8.10 1.21,8.22 1.38,8.34 1.51,8.51 1.63,8.68 1.70,8.88 1.76,9.09 1.76,9.30 1.76,9.51 1.68,9.71 1.61,9.91 1.48,10.08 1.35,10.25 1.17,10.36 1.00,10.48 0.79,10.53 0.59,10.59 0.37,10.57 0.16,10.56 -0.02,10.48 -0.22,10.40 -0.38,10.26 -0.54,10.12 -0.65,9.93 -0.75,9.75 -0.80,9.54 -0.84,9.33 -0.81,9.12 -0.79,8.91 -0.70,8.72 -0.60,8.53 -0.45,8.37 -0.31,8.22 -0.12,8.13 0.06,8.03 0.27,8.00 0.48,7.97 0.69,8.00 0.90,8.04 1.09,8.14 1.27,8.25 1.42,8.40 1.56,8.56 1.65,8.75 1.73,8.95 1.75,9.16 1.77,9.37 1.72,9.58 1.68,9.78 1.56,9.97 1.45,10.15 1.29,10.28 1.12,10.42 1.12,10.42 1.12,10.42 0.00,12.17 -1.10,13.92 -2.39,14.85 -3.67,15.78 -4.73,15.95 -5.79,16.13 -7.19,15.08 -8.59,14.02 -9.52,12.51 -10.45,11.00 -10.68,9.82 -10.92,8.65 -10.81,7.05 -10.70,5.46 -10.37,4.33 -10.05,3.19 -9.51,2.27 -8.97,1.35 -8.31,0.43 -7.65,-0.48 -6.67,-1.34 -5.68,-2.19 -4.52,-2.54 -3.36,-2.89 -2.03,-2.80 -0.70,-2.71 0.09,-2.02 0.89,-1.34 1.04,-1.21 1.19,-1.08 1.30,-0.93 1.41,-0.77 1.48,-0.59 1.56,-0.41 1.58,-0.21 1.61,-0.02 1.59,0.16 1.57,0.36 1.50,0.54 1.44,0.72 1.33,0.88 1.22,1.05 1.08,1.18 0.93,1.31 0.76,1.40 0.59,1.49 0.40,1.54 0.22,1.59 0.02,1.60 -0.16,1.60 -0.35,1.56 -0.54,1.51 -0.72,1.43 -0.89,1.34 -0.89,1.34 L -0.89,1.34 Z"></path></g><g transform="translate(155.6435207020634 188.19246106153423) rotate(0 2.258014767780338 9.032059071121296)" stroke="none"><path fill="#1e1e1e" d="M 0.72,-1.44 Q 0.72,-1.44 1.82,-1.00 2.92,-0.57 3.70,0.32 4.48,1.22 4.58,2.42 4.67,3.63 3.94,5.38 3.20,7.14 4.63,8.08 6.06,9.01 6.57,10.48 7.08,11.95 6.60,13.43 6.12,14.91 3.67,16.54 1.22,18.18 1.02,18.27 0.83,18.36 0.62,18.39 0.41,18.41 0.20,18.37 0.00,18.33 -0.18,18.22 -0.36,18.11 -0.50,17.95 -0.64,17.79 -0.72,17.60 -0.80,17.40 -0.82,17.19 -0.83,16.98 -0.78,16.77 -0.72,16.57 -0.61,16.39 -0.49,16.21 -0.32,16.08 -0.16,15.95 0.03,15.88 0.23,15.81 0.45,15.80 0.66,15.80 0.86,15.87 1.06,15.93 1.24,16.06 1.41,16.18 1.53,16.36 1.65,16.53 1.71,16.74 1.77,16.94 1.76,17.15 1.75,17.37 1.67,17.56 1.60,17.76 1.46,17.93 1.33,18.09 1.15,18.20 0.97,18.31 0.76,18.36 0.55,18.41 0.34,18.39 0.13,18.37 -0.05,18.28 -0.25,18.20 -0.40,18.05 -0.56,17.91 -0.66,17.72 -0.76,17.54 -0.80,17.33 -0.84,17.12 -0.81,16.91 -0.78,16.70 -0.68,16.51 -0.58,16.32 -0.43,16.17 -0.28,16.02 -0.28,16.02 -0.28,16.02 1.43,14.15 3.15,12.28 2.45,11.18 1.74,10.09 0.65,8.70 -0.44,7.31 -0.13,6.18 0.17,5.05 0.69,3.85 1.22,2.64 0.25,2.04 -0.72,1.44 -0.88,1.33 -1.04,1.22 -1.17,1.08 -1.31,0.94 -1.40,0.77 -1.49,0.60 -1.54,0.41 -1.59,0.22 -1.60,0.03 -1.60,-0.16 -1.56,-0.35 -1.52,-0.54 -1.43,-0.71 -1.34,-0.89 -1.21,-1.03 -1.09,-1.18 -0.93,-1.30 -0.77,-1.41 -0.59,-1.48 -0.41,-1.55 -0.22,-1.58 -0.03,-1.61 0.16,-1.59 0.35,-1.57 0.53,-1.50 0.72,-1.44 0.72,-1.44 L 0.72,-1.44 Z"></path></g><g transform="translate(51.77484138416807 26.51860368846235) rotate(0 -5.870838396228834 9.483662024677358)" stroke="none"><path fill="#1e1e1e" d="M 0.31,1.58 Q 0.31,1.58 -0.93,2.09 -2.17,2.60 -3.84,3.43 -5.50,4.27 -6.72,5.93 -7.94,7.59 -8.72,9.02 -9.49,10.45 -9.75,11.65 -10.00,12.85 -10.12,14.32 -10.23,15.80 -9.21,16.31 -8.19,16.82 -6.73,16.79 -5.27,16.77 -3.20,15.56 -1.12,14.35 -0.93,14.25 -0.74,14.15 -0.53,14.11 -0.32,14.07 -0.11,14.11 0.08,14.14 0.27,14.24 0.46,14.34 0.61,14.49 0.75,14.65 0.84,14.84 0.93,15.03 0.96,15.24 0.98,15.45 0.94,15.66 0.89,15.87 0.78,16.05 0.68,16.23 0.51,16.37 0.35,16.51 0.16,16.59 -0.03,16.67 -0.24,16.68 -0.46,16.69 -0.66,16.64 -0.87,16.58 -1.04,16.46 -1.22,16.35 -1.35,16.18 -1.48,16.01 -1.55,15.81 -1.61,15.61 -1.61,15.39 -1.62,15.18 -1.55,14.98 -1.48,14.78 -1.35,14.61 -1.23,14.44 -1.05,14.32 -0.88,14.20 -0.67,14.14 -0.47,14.08 -0.25,14.09 -0.04,14.10 0.15,14.18 0.34,14.26 0.51,14.40 0.67,14.53 0.78,14.71 0.89,14.90 0.94,15.10 0.98,15.31 0.96,15.52 0.94,15.73 0.85,15.93 0.76,16.12 0.62,16.28 0.47,16.43 0.47,16.43 0.47,16.43 -1.79,18.27 -4.06,20.10 -5.06,20.52 -6.07,20.93 -7.17,20.98 -8.27,21.03 -10.10,20.80 -11.94,20.57 -13.00,19.34 -14.07,18.11 -14.32,16.77 -14.58,15.44 -14.38,13.61 -14.17,11.78 -13.69,10.09 -13.20,8.41 -12.22,6.71 -11.23,5.01 -9.55,2.98 -7.87,0.95 -6.65,0.13 -5.42,-0.67 -4.22,-1.11 -3.01,-1.56 -1.66,-1.57 -0.31,-1.58 -0.12,-1.59 0.07,-1.61 0.26,-1.58 0.45,-1.54 0.63,-1.47 0.81,-1.39 0.96,-1.27 1.12,-1.15 1.24,-1.00 1.36,-0.85 1.45,-0.68 1.53,-0.50 1.57,-0.31 1.60,-0.12 1.60,0.07 1.59,0.26 1.53,0.45 1.48,0.63 1.38,0.80 1.28,0.97 1.15,1.11 1.01,1.25 0.85,1.35 0.68,1.46 0.50,1.52 0.31,1.58 0.31,1.58 L 0.31,1.58 Z"></path></g><g transform="translate(56.29087091972875 35.5506627595837) rotate(0 2.7096177213364 2.7096177213363717)" stroke="none"><path fill="#1e1e1e" d="M 1.61,0 Q 1.61,0 1.62,1.53 1.63,3.07 3.04,3.29 4.45,3.50 4.61,3.55 4.76,3.59 4.90,3.68 5.04,3.76 5.16,3.87 5.27,3.99 5.36,4.12 5.44,4.26 5.49,4.42 5.54,4.57 5.55,4.73 5.56,4.89 5.53,5.05 5.50,5.21 5.44,5.36 5.37,5.51 5.27,5.63 5.17,5.76 5.05,5.86 4.92,5.96 4.77,6.03 4.63,6.10 4.47,6.13 4.31,6.16 4.15,6.15 3.99,6.14 2.40,4.52 0.80,2.91 0.69,2.73 0.58,2.55 0.53,2.34 0.48,2.14 0.50,1.93 0.52,1.71 0.61,1.52 0.69,1.33 0.84,1.17 0.98,1.01 1.17,0.91 1.35,0.81 1.56,0.77 1.77,0.73 1.98,0.76 2.19,0.79 2.38,0.89 2.57,0.99 2.72,1.14 2.87,1.29 2.96,1.48 3.05,1.68 3.08,1.89 3.10,2.10 3.06,2.30 3.02,2.51 2.91,2.70 2.80,2.88 2.65,3.02 2.49,3.16 2.29,3.24 2.09,3.32 1.88,3.34 1.67,3.35 1.46,3.30 1.26,3.25 1.08,3.13 0.90,3.01 0.77,2.85 0.64,2.68 0.57,2.48 0.50,2.28 0.50,2.06 0.49,1.85 0.56,1.65 0.62,1.45 0.75,1.28 0.87,1.11 1.05,0.98 1.22,0.86 1.43,0.80 1.63,0.74 1.84,0.75 2.05,0.76 2.25,0.83 2.45,0.91 2.62,1.05 2.78,1.18 2.78,1.18 2.78,1.18 3.62,2.34 4.45,3.50 4.61,3.55 4.76,3.59 4.90,3.68 5.04,3.76 5.16,3.87 5.27,3.99 5.36,4.12 5.44,4.26 5.49,4.42 5.54,4.57 5.55,4.73 5.56,4.89 5.53,5.05 5.50,5.21 5.44,5.36 5.37,5.51 5.27,5.63 5.17,5.76 5.05,5.86 4.92,5.96 4.77,6.03 4.63,6.10 4.47,6.13 4.31,6.16 4.15,6.15 3.99,6.14 2.15,6.25 0.32,6.37 -0.65,4.76 -1.63,3.15 -1.62,1.57 -1.61,0 -1.59,-0.19 -1.56,-0.38 -1.49,-0.56 -1.42,-0.75 -1.31,-0.91 -1.20,-1.07 -1.06,-1.19 -0.91,-1.32 -0.74,-1.41 -0.57,-1.50 -0.38,-1.55 -0.19,-1.60 0.00,-1.60 0.19,-1.60 0.38,-1.55 0.57,-1.50 0.74,-1.41 0.91,-1.32 1.06,-1.19 1.20,-1.07 1.31,-0.91 1.42,-0.74 1.49,-0.56 1.56,-0.38 1.59,-0.19 1.61,0.00 1.61,0.00 L 1.61,0 Z"></path></g><g transform="translate(59.9036945481773 36.453868666695826) rotate(0 -0.9032059071121239 5.419235442672743)" stroke="none"><path fill="#1e1e1e" d="M 1.58,0.31 Q 1.58,0.31 1.29,1.60 1.01,2.90 0.46,6.18 -0.08,9.46 -0.17,9.65 -0.25,9.85 -0.40,10.00 -0.54,10.16 -0.73,10.26 -0.91,10.36 -1.12,10.40 -1.33,10.44 -1.54,10.41 -1.75,10.37 -1.94,10.28 -2.13,10.18 -2.28,10.03 -2.43,9.87 -2.52,9.68 -2.61,9.49 -2.63,9.28 -2.66,9.07 -2.62,8.86 -2.57,8.65 -2.47,8.47 -2.36,8.29 -2.20,8.15 -2.04,8.01 -1.84,7.93 -1.65,7.84 -1.43,7.83 -1.22,7.82 -1.02,7.87 -0.81,7.93 -0.63,8.04 -0.46,8.16 -0.33,8.33 -0.20,8.50 -0.12,8.70 -0.05,8.90 -0.05,9.11 -0.05,9.32 -0.12,9.52 -0.18,9.73 -0.31,9.90 -0.43,10.07 -0.61,10.19 -0.78,10.31 -0.99,10.37 -1.19,10.43 -1.40,10.42 -1.62,10.41 -1.81,10.33 -2.01,10.26 -2.18,10.12 -2.34,9.99 -2.45,9.80 -2.56,9.62 -2.61,9.42 -2.66,9.21 -2.64,9.00 -2.62,8.79 -2.62,8.79 -2.62,8.79 -2.33,5.54 -2.05,2.29 -1.81,0.98 -1.58,-0.31 -1.52,-0.50 -1.46,-0.68 -1.35,-0.85 -1.25,-1.01 -1.11,-1.15 -0.97,-1.28 -0.80,-1.38 -0.63,-1.48 -0.45,-1.53 -0.26,-1.59 -0.07,-1.60 0.12,-1.60 0.31,-1.57 0.50,-1.53 0.68,-1.45 0.85,-1.36 1.00,-1.24 1.15,-1.12 1.27,-0.96 1.39,-0.81 1.47,-0.63 1.54,-0.45 1.58,-0.26 1.61,-0.07 1.59,0.12 1.58,0.31 1.58,0.31 L 1.58,0.31 Z"></path></g><g transform="translate(204.4166396861186 30.131427316910845) rotate(0 -3.6128236284484956 4.967632489116738)" stroke="none"><path fill="#1e1e1e" d="M -0.59,1.49 Q -0.59,1.49 -1.91,1.12 -3.23,0.74 -4.60,2.28 -5.97,3.83 -6.20,4.87 -6.43,5.92 -6.64,7.87 -6.84,9.81 -5.71,10.04 -4.58,10.26 -2.23,9.45 0.11,8.64 0.30,8.54 0.49,8.44 0.70,8.41 0.91,8.38 1.12,8.42 1.33,8.46 1.51,8.56 1.70,8.67 1.84,8.82 1.98,8.98 2.07,9.18 2.16,9.37 2.17,9.58 2.19,9.79 2.14,10.00 2.09,10.21 1.98,10.39 1.87,10.57 1.70,10.70 1.54,10.84 1.34,10.91 1.14,10.98 0.93,10.99 0.71,11.00 0.51,10.94 0.31,10.88 0.13,10.75 -0.03,10.63 -0.15,10.46 -0.28,10.29 -0.34,10.09 -0.41,9.88 -0.40,9.67 -0.40,9.46 -0.33,9.26 -0.25,9.06 -0.12,8.89 0.00,8.73 0.18,8.61 0.36,8.49 0.56,8.44 0.77,8.39 0.98,8.40 1.19,8.42 1.39,8.50 1.58,8.59 1.74,8.73 1.90,8.87 2.01,9.05 2.11,9.24 2.15,9.44 2.20,9.65 2.17,9.86 2.14,10.07 2.05,10.26 1.96,10.46 1.81,10.61 1.66,10.76 1.66,10.76 1.66,10.76 0.12,12.11 -1.40,13.47 -3.24,14.04 -5.08,14.60 -6.24,14.39 -7.40,14.18 -8.52,13.47 -9.64,12.76 -10.31,11.38 -10.98,10.00 -10.89,8.54 -10.81,7.08 -10.56,5.85 -10.32,4.63 -9.67,3.04 -9.02,1.45 -7.85,0.07 -6.69,-1.30 -5.63,-2.03 -4.57,-2.76 -3.26,-2.79 -1.96,-2.82 -0.68,-2.16 0.59,-1.49 0.77,-1.40 0.94,-1.31 1.08,-1.17 1.22,-1.04 1.33,-0.88 1.44,-0.72 1.50,-0.54 1.57,-0.35 1.59,-0.16 1.61,0.02 1.58,0.22 1.55,0.41 1.48,0.59 1.41,0.77 1.30,0.93 1.18,1.09 1.04,1.21 0.89,1.34 0.71,1.43 0.54,1.51 0.35,1.56 0.16,1.60 -0.02,1.60 -0.22,1.59 -0.41,1.54 -0.59,1.49 -0.59,1.49 L -0.59,1.49 Z"></path></g><g transform="translate(212.54549285012783 35.5506627595837) rotate(0 1.8064118142242762 5.419235442672743)" stroke="none"><path fill="#1e1e1e" d="M 1.61,0 Q 1.61,0 1.65,1.54 1.68,3.09 2.40,4.03 3.12,4.96 3.89,5.76 4.67,6.57 5.17,7.95 5.68,9.33 5.11,10.36 4.54,11.39 2.14,11.42 -0.25,11.45 -0.44,11.37 -0.64,11.28 -0.79,11.14 -0.95,11.00 -1.06,10.81 -1.16,10.62 -1.20,10.42 -1.24,10.21 -1.21,10.00 -1.18,9.79 -1.08,9.60 -0.99,9.41 -0.84,9.26 -0.69,9.11 -0.49,9.01 -0.30,8.92 -0.09,8.89 0.11,8.86 0.32,8.91 0.52,8.95 0.71,9.05 0.89,9.16 1.03,9.32 1.18,9.47 1.26,9.67 1.34,9.87 1.36,10.08 1.37,10.29 1.32,10.50 1.27,10.70 1.15,10.88 1.04,11.06 0.87,11.19 0.71,11.32 0.51,11.40 0.31,11.47 0.10,11.47 -0.11,11.48 -0.31,11.41 -0.51,11.35 -0.69,11.23 -0.86,11.10 -0.98,10.93 -1.10,10.76 -1.16,10.55 -1.23,10.35 -1.22,10.14 -1.21,9.92 -1.14,9.72 -1.06,9.53 -0.93,9.36 -0.80,9.20 -0.62,9.08 -0.44,8.97 -0.23,8.92 -0.02,8.87 0.18,8.89 0.39,8.90 0.39,8.90 0.39,8.90 1.21,9.02 2.03,9.13 1.23,8.34 0.43,7.56 -0.36,6.55 -1.16,5.54 -1.42,4.33 -1.68,3.13 -1.65,1.56 -1.61,0 -1.59,-0.19 -1.56,-0.38 -1.49,-0.56 -1.42,-0.75 -1.31,-0.91 -1.20,-1.07 -1.06,-1.19 -0.91,-1.32 -0.74,-1.41 -0.57,-1.50 -0.38,-1.55 -0.19,-1.60 0.00,-1.60 0.19,-1.60 0.38,-1.55 0.57,-1.50 0.74,-1.41 0.91,-1.32 1.06,-1.19 1.20,-1.07 1.31,-0.91 1.42,-0.74 1.49,-0.56 1.56,-0.38 1.59,-0.19 1.61,0.00 1.61,0.00 L 1.61,0 Z"></path></g><g transform="translate(211.6422869430157 36.453868666695826) rotate(0 4.96763248911671 -0.9032059071121239)" stroke="none"><path fill="#1e1e1e" d="M -0.16,-1.60 Q -0.16,-1.60 3.70,-2.06 7.57,-2.52 7.78,-2.54 7.99,-2.57 8.20,-2.52 8.41,-2.47 8.59,-2.36 8.77,-2.25 8.91,-2.09 9.04,-1.92 9.12,-1.73 9.20,-1.53 9.21,-1.32 9.22,-1.10 9.16,-0.90 9.10,-0.70 8.98,-0.52 8.86,-0.35 8.69,-0.22 8.52,-0.09 8.32,-0.02 8.12,0.03 7.91,0.03 7.69,0.03 7.49,-0.03 7.29,-0.10 7.12,-0.23 6.96,-0.36 6.84,-0.53 6.72,-0.71 6.66,-0.92 6.61,-1.12 6.62,-1.33 6.63,-1.54 6.71,-1.74 6.79,-1.94 6.93,-2.10 7.07,-2.26 7.25,-2.37 7.44,-2.48 7.64,-2.52 7.85,-2.57 8.06,-2.54 8.27,-2.52 8.47,-2.43 8.66,-2.34 8.81,-2.19 8.97,-2.04 9.06,-1.85 9.16,-1.67 9.20,-1.46 9.23,-1.25 9.19,-1.04 9.16,-0.83 9.06,-0.64 8.96,-0.45 8.80,-0.31 8.65,-0.16 8.45,-0.07 8.26,0.00 8.26,0.00 8.26,0.00 4.21,0.80 0.16,1.60 -0.03,1.60 -0.22,1.59 -0.41,1.54 -0.60,1.49 -0.77,1.40 -0.94,1.30 -1.08,1.17 -1.23,1.04 -1.33,0.88 -1.44,0.71 -1.50,0.53 -1.57,0.35 -1.59,0.15 -1.61,-0.03 -1.58,-0.22 -1.55,-0.41 -1.48,-0.59 -1.41,-0.78 -1.29,-0.93 -1.18,-1.09 -1.03,-1.22 -0.88,-1.34 -0.71,-1.43 -0.54,-1.52 -0.35,-1.56 -0.16,-1.60 -0.16,-1.60 L -0.16,-1.60 Z"></path></g><g transform="translate(153.83710888783915 23.808985967125864) rotate(0 -5.870838396228862 10.386867931789538)" stroke="none"><path fill="#1e1e1e" d="M 0.63,1.48 Q 0.63,1.48 -1.14,2.34 -2.92,3.21 -4.18,3.79 -5.43,4.36 -6.68,6.38 -7.92,8.39 -8.50,9.79 -9.08,11.19 -9.27,12.41 -9.45,13.63 -9.52,14.90 -9.59,16.17 -9.17,17.42 -8.75,18.68 -6.46,18.25 -4.18,17.81 -4.02,17.67 -3.87,17.52 -3.67,17.44 -3.48,17.35 -3.27,17.33 -3.06,17.31 -2.85,17.36 -2.64,17.41 -2.46,17.53 -2.28,17.64 -2.15,17.80 -2.01,17.97 -1.94,18.17 -1.86,18.36 -1.85,18.58 -1.85,18.79 -1.91,18.99 -1.97,19.20 -2.09,19.37 -2.21,19.54 -2.38,19.67 -2.56,19.79 -2.76,19.86 -2.96,19.92 -3.17,19.92 -3.39,19.92 -3.59,19.84 -3.79,19.77 -3.95,19.64 -4.12,19.51 -4.24,19.33 -4.35,19.15 -4.40,18.95 -4.46,18.74 -4.44,18.53 -4.43,18.32 -4.34,18.12 -4.26,17.93 -4.12,17.77 -3.98,17.61 -3.80,17.50 -3.61,17.39 -3.41,17.35 -3.20,17.31 -2.99,17.34 -2.78,17.36 -2.58,17.46 -2.39,17.55 -2.24,17.70 -2.09,17.85 -1.99,18.04 -1.90,18.23 -1.87,18.44 -1.84,18.65 -1.88,18.86 -1.91,19.07 -2.02,19.25 -2.12,19.44 -2.12,19.44 -2.12,19.44 -4.70,21.26 -7.27,23.09 -8.46,22.83 -9.64,22.56 -10.90,21.63 -12.15,20.70 -12.63,19.66 -13.11,18.63 -13.33,17.25 -13.55,15.88 -13.39,14.40 -13.23,12.92 -12.89,11.33 -12.54,9.74 -11.87,8.20 -11.19,6.66 -10.16,4.81 -9.13,2.95 -8.06,2.03 -6.99,1.11 -5.67,0.50 -4.34,-0.10 -2.49,-0.79 -0.63,-1.48 -0.44,-1.53 -0.26,-1.59 -0.06,-1.60 0.12,-1.60 0.31,-1.57 0.50,-1.53 0.68,-1.44 0.85,-1.36 1.01,-1.24 1.16,-1.12 1.27,-0.96 1.39,-0.80 1.47,-0.63 1.54,-0.45 1.58,-0.26 1.61,-0.06 1.59,0.12 1.58,0.31 1.52,0.50 1.45,0.68 1.35,0.85 1.25,1.01 1.11,1.15 0.97,1.28 0.80,1.38 0.63,1.48 0.63,1.48 L 0.63,1.48 Z"></path></g><g transform="translate(159.25634433051195 37.35707457380795) rotate(0 -1.3548088606682143 5.870838396228862)" stroke="none"><path fill="#1e1e1e" d="M 1.26,1.00 Q 1.26,1.00 0.25,2.32 -0.74,3.63 -1.29,5.27 -1.85,6.91 -2.09,8.10 -2.33,9.30 -1.26,9.04 -0.18,8.77 -1.07,7.89 -1.97,7.01 -1.94,4.38 -1.90,1.74 -1.81,1.55 -1.71,1.36 -1.56,1.21 -1.41,1.06 -1.22,0.97 -1.03,0.87 -0.82,0.84 -0.61,0.82 -0.40,0.86 -0.20,0.90 -0.01,1.00 0.16,1.10 0.31,1.26 0.45,1.42 0.53,1.62 0.62,1.81 0.63,2.02 0.65,2.23 0.60,2.44 0.55,2.65 0.44,2.83 0.32,3.00 0.16,3.14 -0.00,3.27 -0.20,3.34 -0.40,3.42 -0.61,3.42 -0.82,3.43 -1.03,3.37 -1.23,3.31 -1.40,3.18 -1.58,3.06 -1.70,2.89 -1.82,2.71 -1.89,2.51 -1.95,2.31 -1.94,2.10 -1.94,1.88 -1.86,1.68 -1.79,1.48 -1.66,1.32 -1.53,1.15 -1.35,1.04 -1.17,0.92 -0.96,0.87 -0.76,0.82 -0.54,0.84 -0.33,0.85 -0.14,0.94 0.05,1.02 0.21,1.16 0.37,1.31 0.47,1.49 0.57,1.67 0.62,1.88 0.66,2.09 0.63,2.30 0.60,2.51 0.60,2.51 0.60,2.51 0.12,3.45 -0.36,4.39 0.79,5.15 1.96,5.90 2.62,7.49 3.29,9.08 2.43,10.65 1.57,12.22 0.40,12.92 -0.76,13.63 -1.99,13.76 -3.21,13.90 -4.24,13.28 -5.26,12.67 -5.53,10.59 -5.81,8.51 -5.45,7.09 -5.10,5.68 -4.26,3.62 -3.41,1.56 -2.33,0.27 -1.26,-1.00 -1.12,-1.14 -0.98,-1.28 -0.81,-1.37 -0.64,-1.47 -0.46,-1.53 -0.27,-1.59 -0.08,-1.60 0.11,-1.61 0.30,-1.57 0.49,-1.53 0.67,-1.45 0.84,-1.37 1.00,-1.25 1.15,-1.12 1.27,-0.97 1.38,-0.82 1.46,-0.64 1.54,-0.46 1.57,-0.27 1.61,-0.08 1.59,0.11 1.58,0.30 1.52,0.49 1.46,0.67 1.36,0.84 1.26,1.00 1.26,1.00 L 1.26,1.00 Z"></path></g><g transform="translate(185.44931563676383 93.3558408147602) rotate(0 -4.967632489116738 5.870838396228805)" stroke="none"><path fill="#1e1e1e" d="M -0.59,1.49 Q -0.59,1.49 -1.83,1.07 -3.07,0.64 -4.45,1.43 -5.82,2.22 -6.55,3.12 -7.28,4.02 -7.74,5.75 -8.21,7.47 -8.15,8.53 -8.09,9.59 -7.41,10.53 -6.72,11.47 -5.39,11.23 -4.05,10.99 -2.44,10.00 -0.82,9.01 -0.66,8.88 -0.50,8.74 -0.30,8.67 -0.10,8.59 0.10,8.58 0.32,8.57 0.52,8.63 0.72,8.69 0.90,8.82 1.07,8.94 1.20,9.11 1.32,9.28 1.39,9.48 1.45,9.68 1.45,9.90 1.45,10.11 1.37,10.31 1.30,10.51 1.17,10.68 1.04,10.84 0.86,10.96 0.69,11.08 0.48,11.13 0.28,11.19 0.06,11.17 -0.14,11.16 -0.33,11.07 -0.53,10.99 -0.69,10.85 -0.85,10.71 -0.96,10.53 -1.06,10.34 -1.11,10.14 -1.15,9.93 -1.12,9.72 -1.10,9.51 -1.00,9.32 -0.91,9.12 -0.76,8.97 -0.62,8.82 -0.43,8.72 -0.24,8.63 -0.03,8.60 0.17,8.56 0.38,8.60 0.59,8.64 0.78,8.74 0.96,8.84 1.11,9.00 1.25,9.16 1.34,9.35 1.42,9.55 1.44,9.76 1.46,9.97 1.41,10.18 1.37,10.38 1.25,10.56 1.14,10.74 1.14,10.74 1.14,10.74 -0.61,12.39 -2.38,14.03 -3.69,14.70 -5.01,15.36 -6.57,15.24 -8.13,15.12 -9.07,14.26 -10.01,13.39 -10.88,11.61 -11.74,9.82 -11.67,8.14 -11.60,6.46 -10.80,4.17 -10.01,1.89 -9.00,0.68 -7.99,-0.51 -6.85,-1.31 -5.70,-2.11 -3.91,-2.41 -2.11,-2.72 -0.75,-2.11 0.59,-1.49 0.77,-1.40 0.94,-1.31 1.08,-1.17 1.22,-1.04 1.33,-0.88 1.44,-0.72 1.50,-0.54 1.57,-0.35 1.59,-0.16 1.61,0.02 1.58,0.22 1.55,0.41 1.48,0.59 1.41,0.77 1.30,0.93 1.18,1.09 1.04,1.21 0.89,1.34 0.71,1.43 0.54,1.51 0.35,1.56 0.16,1.60 -0.02,1.60 -0.22,1.59 -0.41,1.54 -0.59,1.49 -0.59,1.49 L -0.59,1.49 Z"></path></g><g transform="translate(191.77175698654875 97.87187035032093) rotate(0 3.161220674892462 7.225647256896991)" stroke="none"><path fill="#1e1e1e" d="M 0,-1.61 Q 0,-1.61 1.83,-1.61 3.66,-1.61 4.74,-1.32 5.82,-1.03 6.53,-0.22 7.25,0.59 7.26,1.96 7.27,3.34 6.95,4.63 6.63,5.92 5.61,9.34 4.59,12.77 4.50,12.96 4.40,13.15 4.25,13.30 4.10,13.45 3.91,13.55 3.72,13.64 3.51,13.67 3.30,13.70 3.09,13.66 2.88,13.62 2.70,13.51 2.51,13.41 2.37,13.25 2.23,13.09 2.14,12.90 2.06,12.70 2.04,12.49 2.03,12.28 2.08,12.07 2.13,11.87 2.24,11.69 2.36,11.51 2.52,11.38 2.69,11.24 2.89,11.17 3.09,11.10 3.30,11.09 3.51,11.08 3.71,11.15 3.92,11.21 4.09,11.33 4.26,11.46 4.39,11.63 4.51,11.80 4.57,12.00 4.64,12.21 4.63,12.42 4.62,12.63 4.55,12.83 4.48,13.03 4.35,13.20 4.21,13.36 4.03,13.48 3.85,13.59 3.65,13.64 3.44,13.69 3.23,13.68 3.02,13.66 2.82,13.58 2.63,13.49 2.47,13.35 2.31,13.21 2.21,13.02 2.10,12.84 2.06,12.63 2.02,12.42 2.05,12.21 2.08,12.00 2.08,12.00 2.08,12.00 2.69,8.52 3.31,5.04 3.46,3.33 3.60,1.61 1.80,1.61 0,1.61 -0.19,1.59 -0.38,1.56 -0.56,1.49 -0.75,1.42 -0.91,1.31 -1.07,1.20 -1.19,1.06 -1.32,0.91 -1.41,0.74 -1.50,0.57 -1.55,0.38 -1.60,0.19 -1.60,-0.00 -1.60,-0.19 -1.55,-0.38 -1.50,-0.57 -1.41,-0.74 -1.32,-0.91 -1.19,-1.06 -1.07,-1.20 -0.91,-1.31 -0.74,-1.42 -0.56,-1.49 -0.38,-1.56 -0.19,-1.59 0.00,-1.61 0.00,-1.61 L 0,-1.61 Z"></path></g></svg>