<svg version="1.1" xmlns="http://www.w3.org/2000/svg" viewBox="0 0 507.8599548339844 290.5" width="507.8599548339844" height="290.5">
  <!-- svg-source:excalidraw -->
  
  <defs>
    <style class="style-fonts">
      @font-face {
        font-family: "Virgil";
        src: url("https://excalidraw.com/Virgil.woff2");
      }
      @font-face {
        font-family: "Cascadia";
        src: url("https://excalidraw.com/Cascadia.woff2");
      }
      @font-face {
        font-family: "Assistant";
        src: url("https://excalidraw.com/Assistant-Regular.woff2");
      }
    </style>
    
  </defs>
  <rect x="0" y="0" width="507.8599548339844" height="290.5" fill="#ffffff"></rect><g stroke-linecap="round"><g transform="translate(149.5 152) rotate(0 45.75 21.75)"><path d="M0.55 1.07 C15.5 8.55, 75.51 36.77, 90.63 43.71 M-0.62 0.59 C14.63 7.78, 77.71 34.53, 92.88 41.7" stroke="#1e1e1e" stroke-width="1" fill="none"></path></g><g transform="translate(149.5 152) rotate(0 45.75 21.75)"><path d="M67.94 39.96 C79.12 39.05, 87.09 40.8, 92.88 41.7 M67.94 39.96 C74.38 40.73, 79.09 40.26, 92.88 41.7" stroke="#1e1e1e" stroke-width="1" fill="none"></path></g><g transform="translate(149.5 152) rotate(0 45.75 21.75)"><path d="M74.9 24.34 C83.3 29.35, 88.65 36.99, 92.88 41.7 M74.9 24.34 C79.64 28.71, 82.73 31.87, 92.88 41.7" stroke="#1e1e1e" stroke-width="1" fill="none"></path></g></g><mask></mask><g stroke-linecap="round"><g transform="translate(146.5 153.5) rotate(0 1.75 -58.5)"><path d="M-0.25 -0.88 C0.14 -20.48, 2.38 -97.82, 3.06 -117.25 M1.82 1.27 C1.96 -18.18, 1.64 -96.23, 1.87 -115.85" stroke="#1e1e1e" stroke-width="1" fill="none"></path></g><g transform="translate(146.5 153.5) rotate(0 1.75 -58.5)"><path d="M10.36 -92.33 C5.77 -101.54, 3.77 -108.71, 1.87 -115.85 M10.36 -92.33 C8.51 -98.73, 5.69 -103.87, 1.87 -115.85" stroke="#1e1e1e" stroke-width="1" fill="none"></path></g><g transform="translate(146.5 153.5) rotate(0 1.75 -58.5)"><path d="M-6.75 -92.38 C-5.18 -101.54, -1.04 -108.69, 1.87 -115.85 M-6.75 -92.38 C-4.16 -98.62, -2.55 -103.75, 1.87 -115.85" stroke="#1e1e1e" stroke-width="1" fill="none"></path></g></g><mask></mask><g stroke-linecap="round"><g transform="translate(157.5 148) rotate(0 -54.75 4.5)"><path d="M-0.46 -0.71 C-18.43 0.55, -90.76 6.78, -108.83 8.29 M1.5 1.53 C-16.48 2.87, -90.95 8.16, -109.43 9.46" stroke="#1e1e1e" stroke-width="1" fill="none"></path></g><g transform="translate(157.5 148) rotate(0 -54.75 4.5)"><path d="M-86.6 -0.73 C-92.63 2.49, -97.54 4.55, -109.43 9.46 M-86.6 -0.73 C-92.35 2.64, -97.84 3.69, -109.43 9.46" stroke="#1e1e1e" stroke-width="1" fill="none"></path></g><g transform="translate(157.5 148) rotate(0 -54.75 4.5)"><path d="M-85.39 16.33 C-91.78 15.88, -96.95 14.27, -109.43 9.46 M-85.39 16.33 C-91.46 15.49, -97.25 12.33, -109.43 9.46" stroke="#1e1e1e" stroke-width="1" fill="none"></path></g></g><mask></mask><g stroke-linecap="round"><g transform="translate(203.5 94.5) rotate(0 37.75 14)"><path d="M-0.65 -0.24 C11.79 4.6, 62.75 23.92, 75.47 28.54 M1.22 -1.42 C13.41 3.11, 62.2 21.71, 74.51 26.7" stroke="#1e1e1e" stroke-width="1" fill="none"></path></g></g><mask></mask><g stroke-linecap="round"><g transform="translate(205.5 95.5) rotate(0 52.5 -4.5)"><path d="M-0.96 -0.33 C16.58 -1.91, 87.07 -7.84, 104.64 -9.09 M0.74 -1.55 C18.14 -2.97, 86.38 -6.26, 103.5 -7.6" stroke="#1e1e1e" stroke-width="1" fill="none"></path></g></g><mask></mask><g stroke-linecap="round"><g transform="translate(280.16082347370684 124.20989930294456) rotate(0 52.5 -4.5)"><path d="M0.47 -0.38 C17.83 -1.78, 87.92 -6.62, 105.19 -8.19 M-0.74 -1.63 C16.39 -3.38, 86.47 -8.67, 104.34 -9.89" stroke="#1e1e1e" stroke-width="1" fill="none"></path></g></g><mask></mask><g stroke-linecap="round"><g transform="translate(310.5872677531095 86.43865967909801) rotate(0 37.75 14)"><path d="M0.5 -0.56 C12.83 4.04, 61.67 23.05, 74.33 27.75 M-0.7 1.76 C11.96 6.53, 63.61 24.66, 76.43 29.15" stroke="#1e1e1e" stroke-width="1" fill="none"></path></g></g><mask></mask><g stroke-linecap="round"><g transform="translate(206.8124467039945 167.14600055164192) rotate(0 37.75 14)"><path d="M-1.08 0.78 C11.78 5.26, 63.76 22.42, 76.33 26.92 M0.55 0.14 C13.4 4.73, 63.14 23.09, 75.82 27.89" stroke="#1e1e1e" stroke-width="1" fill="none"></path></g></g><mask></mask><g stroke-linecap="round"><g transform="translate(208.8124467039945 167.64600055164192) rotate(0 52.5 -4.5)"><path d="M0.83 -1.08 C18.32 -2.75, 86.34 -7.96, 103.84 -9.25" stroke="#1e1e1e" stroke-width="1.5" fill="none" stroke-dasharray="8 9"></path></g></g><mask></mask><g stroke-linecap="round"><g transform="translate(283.47327017770135 196.85589985458637) rotate(0 52.5 -4.5)"><path d="M-1.16 -0.25 C16.34 -1.55, 88.15 -7.37, 105.84 -8.86 M0.43 -1.43 C17.78 -2.42, 88.04 -6.16, 105.33 -7.25" stroke="#1e1e1e" stroke-width="1" fill="none"></path></g></g><mask></mask><g stroke-linecap="round"><g transform="translate(313.8997144571042 159.08466023073993) rotate(0 37.75 14)"><path d="M0.84 0.14 C13.61 4.81, 63.04 23.26, 75.48 27.79" stroke="#1e1e1e" stroke-width="1.5" fill="none" stroke-dasharray="8 9"></path></g></g><mask></mask><g stroke-linecap="round"><g transform="translate(205 95) rotate(0 -0.25 36.25)"><path d="M0.14 0.85 C-0.03 12.94, -0.37 61.37, -0.49 73.34 M-1.25 0.25 C-1.62 11.93, -1.41 59.35, -1.44 71.67" stroke="#1e1e1e" stroke-width="1" fill="none"></path></g></g><mask></mask><g stroke-linecap="round"><g transform="translate(284.1648366875256 121.70391727010724) rotate(0 -0.25 36.25)"><path d="M-0.22 -1.16 C-0.61 10.74, -1.17 59.88, -1.34 72.09 M-1.8 0.85 C-1.9 12.85, 0.41 61.35, 0.93 73.41" stroke="#1e1e1e" stroke-width="1" fill="none"></path></g></g><mask></mask><g stroke-linecap="round"><g transform="translate(386.4343344456099 119.37281640624622) rotate(0 -0.25 36.25)"><path d="M-0.75 -0.06 C-0.74 11.97, -0.18 59.19, 0.05 71.34 M1.05 -1.13 C0.96 11.06, -0.5 60.29, -0.6 72.27" stroke="#1e1e1e" stroke-width="1" fill="none"></path></g></g><mask></mask><g stroke-linecap="round"><g transform="translate(310.84991784343515 86.9312511535361) rotate(0 -0.25 36.25)"><path d="M-0.82 -0.23 C-0.94 12.22, 0.08 61.56, 0.27 73.53" stroke="#1e1e1e" stroke-width="1.5" fill="none" stroke-dasharray="8 9"></path></g></g><mask></mask><g stroke-linecap="round"><g transform="translate(149.5 149.5) rotate(0 49.5 -4.25)"><path d="M0.94 -1.06 C17.3 -2.32, 81.72 -6.24, 97.98 -7.49 M-0.02 0.99 C16.72 -0.58, 83.91 -7.71, 100.16 -9.08" stroke="#1e1e1e" stroke-width="1" fill="none"></path></g></g><mask></mask><g stroke-linecap="round"><g transform="translate(249.5 141) rotate(0 47.5 -3.75)"><path d="M-0.79 -0.46 C15.18 -1.85, 79.99 -6.45, 95.99 -7.63" stroke="#1e1e1e" stroke-width="1.5" fill="none" stroke-dasharray="8 9"></path></g></g><mask></mask><g transform="translate(149 10) rotate(0 4.689994812011719 12.5)"><text x="0" y="17.52" font-family="Virgil, Segoe UI Emoji" font-size="20px" fill="#1e1e1e" text-anchor="start" style="white-space: pre;" direction="ltr" dominant-baseline="alphabetic">y</text></g><g transform="translate(10 169.5) rotate(0 5.719993591308594 25)"><text x="0" y="17.52" font-family="Virgil, Segoe UI Emoji" font-size="20px" fill="#1e1e1e" text-anchor="start" style="white-space: pre;" direction="ltr" dominant-baseline="alphabetic">z</text><text x="0" y="42.519999999999996" font-family="Virgil, Segoe UI Emoji" font-size="20px" fill="#1e1e1e" text-anchor="start" style="white-space: pre;" direction="ltr" dominant-baseline="alphabetic"></text></g><g transform="translate(236 205) rotate(0 5.6199951171875 12.5)"><text x="0" y="17.52" font-family="Virgil, Segoe UI Emoji" font-size="20px" fill="#1e1e1e" text-anchor="start" style="white-space: pre;" direction="ltr" dominant-baseline="alphabetic">x</text></g><g transform="translate(158.5 117.5) rotate(0 30.39996337890625 12.5)"><text x="0" y="17.52" font-family="Virgil, Segoe UI Emoji" font-size="20px" fill="#1e1e1e" text-anchor="start" style="white-space: pre;" direction="ltr" dominant-baseline="alphabetic">x=left</text></g><g transform="translate(430.10003662109375 201) rotate(0 33.87995910644531 12.5)"><text x="0" y="17.52" font-family="Virgil, Segoe UI Emoji" font-size="20px" fill="#1e1e1e" text-anchor="start" style="white-space: pre;" direction="ltr" dominant-baseline="alphabetic">x=right</text></g><g transform="translate(398 94.5) rotate(0 27.71996307373047 12.5)"><text x="0" y="17.52" font-family="Virgil, Segoe UI Emoji" font-size="20px" fill="#1e1e1e" text-anchor="start" style="white-space: pre;" direction="ltr" dominant-baseline="alphabetic">z=far</text></g><g transform="translate(128 192) rotate(0 32.999961853027344 12.5)"><text x="0" y="17.52" font-family="Virgil, Segoe UI Emoji" font-size="20px" fill="#1e1e1e" text-anchor="start" style="white-space: pre;" direction="ltr" dominant-baseline="alphabetic">z=near</text></g><g stroke-linecap="round"><g transform="translate(240 157.5) rotate(0 -43.25 18)"><path d="M0.31 -0.58 C-8.71 -0.02, -39.27 -1.47, -53.88 4.5 C-68.5 10.48, -82.08 29.84, -87.37 35.27 M-0.99 1.73 C-9.65 2.91, -37.64 -0.23, -51.63 5.52 C-65.62 11.27, -79.39 31.27, -84.93 36.21" stroke="#1e1e1e" stroke-width="1" fill="none"></path></g><g transform="translate(240 157.5) rotate(0 -43.25 18)"><path d="M-76.39 15.23 C-79.86 20.46, -83.28 27.16, -84.93 36.21 M-76.39 15.23 C-78.25 21.23, -80.82 26.22, -84.93 36.21" stroke="#1e1e1e" stroke-width="1" fill="none"></path></g><g transform="translate(240 157.5) rotate(0 -43.25 18)"><path d="M-64.9 25.63 C-72.13 27.58, -79.2 30.97, -84.93 36.21 M-64.9 25.63 C-69.59 29.24, -74.91 31.75, -84.93 36.21" stroke="#1e1e1e" stroke-width="1" fill="none"></path></g></g><mask></mask><g transform="translate(231.5 35) rotate(0 26.979965209960938 12.5)"><text x="0" y="17.52" font-family="Virgil, Segoe UI Emoji" font-size="20px" fill="#1e1e1e" text-anchor="start" style="white-space: pre;" direction="ltr" dominant-baseline="alphabetic">y=top</text></g><g stroke-linecap="round"><g transform="translate(274.5 100.5) rotate(0 -2.75 -16)"><path d="M0.49 0.37 C-0.5 -4.95, -4.47 -26.93, -5.47 -32.26 M0.08 0.08 C-1.02 -5.13, -4.9 -26.27, -5.89 -31.69" stroke="#1e1e1e" stroke-width="1" fill="none"></path></g><g transform="translate(274.5 100.5) rotate(0 -2.75 -16)"><path d="M2.33 -17.69 C-0.22 -22.97, -4.29 -28.36, -5.89 -31.69 M2.33 -17.69 C-0.72 -22.99, -3.8 -28.59, -5.89 -31.69" stroke="#1e1e1e" stroke-width="1" fill="none"></path></g><g transform="translate(274.5 100.5) rotate(0 -2.75 -16)"><path d="M-8.6 -15.68 C-6.96 -21.78, -6.85 -27.94, -5.89 -31.69 M-8.6 -15.68 C-7.52 -21.69, -6.47 -28.05, -5.89 -31.69" stroke="#1e1e1e" stroke-width="1" fill="none"></path></g></g><mask></mask><g stroke-linecap="round"><g transform="translate(342.5 180.5) rotate(0 38.03942887560561 23.410384226734095)"><path d="M0.65 0.42 C5.35 6.41, 15.59 27.8, 28.22 35.4 C40.85 43.01, 68.65 44.14, 76.43 46.07 M-0.47 -0.41 C4.08 5.83, 14.67 28.99, 27.39 36.89 C40.11 44.79, 67.99 45.12, 75.85 47" stroke="#1e1e1e" stroke-width="1" fill="none"></path></g><g transform="translate(342.5 180.5) rotate(0 38.03942887560561 23.410384226734095)"><path d="M51.74 52.34 C59.81 50.95, 66.31 49.54, 75.85 47 M51.74 52.34 C57.4 51.09, 64.18 50.2, 75.85 47" stroke="#1e1e1e" stroke-width="1" fill="none"></path></g><g transform="translate(342.5 180.5) rotate(0 38.03942887560561 23.410384226734095)"><path d="M53.95 35.59 C61.27 39.32, 67.09 43.02, 75.85 47 M53.95 35.59 C58.92 38.33, 65.17 41.42, 75.85 47" stroke="#1e1e1e" stroke-width="1" fill="none"></path></g></g><mask></mask><g transform="translate(245.5 255.5) rotate(0 44.64994812011719 12.5)"><text x="0" y="17.52" font-family="Virgil, Segoe UI Emoji" font-size="20px" fill="#1e1e1e" text-anchor="start" style="white-space: pre;" direction="ltr" dominant-baseline="alphabetic">y=bottom</text></g><g stroke-linecap="round"><g transform="translate(293.5 205) rotate(0 -0.5 26)"><path d="M0.87 -1 C0.87 7.88, 0.35 43.27, -0.04 52.07 M-0.13 1.09 C-0.21 10.28, -0.09 44.99, -0.49 53.65" stroke="#1e1e1e" stroke-width="1" fill="none"></path></g><g transform="translate(293.5 205) rotate(0 -0.5 26)"><path d="M-8.62 30.01 C-8.09 38.59, -3.89 43.22, -0.49 53.65 M-8.62 30.01 C-6.38 36.19, -4.42 44.04, -0.49 53.65" stroke="#1e1e1e" stroke-width="1" fill="none"></path></g><g transform="translate(293.5 205) rotate(0 -0.5 26)"><path d="M8.48 30.31 C3.91 38.93, 3.02 43.46, -0.49 53.65 M8.48 30.31 C5.87 36.26, 2.99 44.02, -0.49 53.65" stroke="#1e1e1e" stroke-width="1" fill="none"></path></g></g><mask></mask><g stroke-linecap="round"><g transform="translate(295 175.5) rotate(0 -0.5 14.25)"><path d="M0.29 0.1 C0.15 4.96, -0.39 24.12, -0.66 28.89" stroke="#1e1e1e" stroke-width="1.5" fill="none" stroke-dasharray="8 9"></path></g></g><mask></mask></svg>