<svg version="1.1" xmlns="http://www.w3.org/2000/svg" viewBox="0 0 235 163.33354335464537" width="235" height="163.33354335464537">
  <!-- svg-source:excalidraw -->
  
  <defs>
    <style class="style-fonts">
      @font-face {
        font-family: "Virgil";
        src: url("https://excalidraw.com/Virgil.woff2");
      }
      @font-face {
        font-family: "Cascadia";
        src: url("https://excalidraw.com/Cascadia.woff2");
      }
      @font-face {
        font-family: "Assistant";
        src: url("https://excalidraw.com/Assistant-Regular.woff2");
      }
    </style>
    
  </defs>
  <rect x="0" y="0" width="235" height="163.33354335464537" fill="#ffffff"></rect><g stroke-linecap="round"><g transform="translate(53.5 142.83354335464537) rotate(0 69 -1.5)"><path d="M1.13 -1.01 C24.43 -1.49, 116.15 -1.49, 138.77 -1.91 M0.26 1.07 C23.56 0.19, 115.08 -2.87, 138.22 -3.46" stroke="#1e1e1e" stroke-width="2" fill="none"></path></g><g transform="translate(53.5 142.83354335464537) rotate(0 69 -1.5)"><path d="M114.99 5.8 C118.21 4.87, 126.69 -0.34, 138.22 -3.46 M114.99 5.8 C120.43 3.16, 126.11 2.08, 138.22 -3.46" stroke="#1e1e1e" stroke-width="2" fill="none"></path></g><g transform="translate(53.5 142.83354335464537) rotate(0 69 -1.5)"><path d="M114.48 -11.3 C117.94 -8.56, 126.53 -10.12, 138.22 -3.46 M114.48 -11.3 C120.12 -9.53, 125.93 -6.22, 138.22 -3.46" stroke="#1e1e1e" stroke-width="2" fill="none"></path></g></g><mask></mask><g stroke-linecap="round"><g transform="translate(52.5 140.83354335464537) rotate(0 -1.25 -65.5)"><path d="M0.95 0.11 C0.63 -21.76, -0.8 -109.07, -1.41 -130.83 M-0.01 -0.88 C-0.44 -22.57, -1.19 -107.26, -1.78 -129.21" stroke="#1e1e1e" stroke-width="2" fill="none"></path></g><g transform="translate(52.5 140.83354335464537) rotate(0 -1.25 -65.5)"><path d="M7.16 -105.86 C4.21 -111.95, 1.25 -122.03, -1.78 -129.21 M7.16 -105.86 C3.87 -113.34, 1.45 -121.3, -1.78 -129.21" stroke="#1e1e1e" stroke-width="2" fill="none"></path></g><g transform="translate(52.5 140.83354335464537) rotate(0 -1.25 -65.5)"><path d="M-9.93 -105.58 C-7.04 -111.89, -4.16 -122.08, -1.78 -129.21 M-9.93 -105.58 C-7.35 -113.25, -3.9 -121.31, -1.78 -129.21" stroke="#1e1e1e" stroke-width="2" fill="none"></path></g></g><mask></mask><g transform="translate(213 137.33354335464537) rotate(0 5.25 5.75)" stroke="none"><path fill="#1e1e1e" d="M 2.53,0.63 Q 2.53,0.63 2.26,1.78 1.99,2.94 1.68,4.40 1.37,5.86 2.28,7.32 3.19,8.78 4.04,7.88 4.90,6.98 5.90,6.54 6.90,6.11 8.30,5.08 9.71,4.05 9.69,6.66 9.67,9.27 8.92,8.14 8.18,7.00 8.50,5.75 8.82,4.50 8.74,3.83 8.66,3.16 8.57,2.74 8.48,2.33 8.49,1.90 8.50,1.48 8.61,1.07 8.73,0.66 8.93,0.28 9.14,-0.08 9.43,-0.39 9.72,-0.70 10.08,-0.93 10.44,-1.17 10.84,-1.31 11.24,-1.45 11.67,-1.49 12.09,-1.53 12.51,-1.46 12.93,-1.40 13.33,-1.24 13.72,-1.08 14.06,-0.83 14.41,-0.58 14.68,-0.25 14.95,0.07 15.14,0.45 15.33,0.83 15.41,1.16 15.49,1.49 15.48,2.06 15.47,2.63 15.28,3.17 15.09,3.71 14.73,4.15 14.38,4.60 13.90,4.91 13.42,5.23 12.87,5.37 12.31,5.51 11.74,5.47 11.17,5.43 10.65,5.21 10.12,4.99 9.69,4.61 9.26,4.23 8.98,3.74 8.69,3.24 8.58,2.68 8.47,2.12 8.54,1.56 8.61,0.99 8.86,0.47 9.11,-0.03 9.51,-0.44 9.91,-0.85 10.42,-1.10 10.93,-1.36 11.49,-1.44 12.06,-1.53 12.62,-1.42 13.18,-1.32 13.68,-1.04 14.18,-0.77 14.57,-0.35 14.95,0.07 15.18,0.59 15.42,1.11 15.47,1.68 15.52,2.25 15.38,2.81 15.25,3.36 14.95,3.85 14.64,4.33 14.20,4.69 13.76,5.05 13.23,5.26 12.69,5.46 12.12,5.48 11.55,5.50 11.00,5.34 10.45,5.17 9.99,4.84 9.52,4.51 9.18,4.05 8.84,3.59 8.75,3.38 8.66,3.16 8.57,2.74 8.48,2.33 8.49,1.90 8.50,1.48 8.61,1.07 8.73,0.66 8.93,0.28 9.14,-0.08 9.43,-0.39 9.72,-0.70 10.08,-0.93 10.44,-1.16 10.84,-1.31 11.24,-1.45 11.66,-1.49 12.09,-1.53 12.51,-1.46 12.93,-1.40 13.32,-1.24 13.72,-1.08 14.06,-0.83 14.41,-0.58 14.68,-0.25 14.95,0.07 15.14,0.45 15.33,0.83 15.17,1.86 15.02,2.90 15.22,3.98 15.43,5.06 14.83,6.10 14.22,7.13 14.09,5.68 13.96,4.22 12.87,7.35 11.78,10.48 10.97,11.21 10.16,11.93 8.79,12.52 7.42,13.11 6.04,13.70 4.66,14.29 2.88,14.40 1.09,14.50 0.06,13.99 -0.96,13.48 -1.88,12.42 -2.79,11.36 -3.42,9.88 -4.04,8.40 -4.18,7.33 -4.32,6.25 -4.06,4.99 -3.79,3.73 -3.46,2.69 -3.14,1.65 -2.83,0.51 -2.53,-0.63 -2.41,-0.92 -2.30,-1.21 -2.12,-1.47 -1.94,-1.73 -1.71,-1.94 -1.47,-2.15 -1.19,-2.29 -0.91,-2.44 -0.61,-2.51 -0.30,-2.59 0.00,-2.58 0.32,-2.58 0.62,-2.51 0.93,-2.43 1.21,-2.28 1.48,-2.14 1.72,-1.93 1.95,-1.72 2.13,-1.46 2.31,-1.20 2.42,-0.90 2.53,-0.61 2.57,-0.30 2.60,0.00 2.56,0.32 2.53,0.63 2.53,0.63 L 2.53,0.63 Z"></path></g><g transform="translate(225 139.83354335464537) rotate(0 -1.25 6.75)" stroke="none"><path fill="#1e1e1e" d="M 2.61,0.37 Q 2.61,0.37 2.49,1.38 2.38,2.39 2.18,3.48 1.99,4.56 1.47,6.27 0.95,7.97 0.75,9.17 0.56,10.36 0.92,10.51 1.28,10.66 1.70,10.94 2.12,11.22 2.43,11.61 2.73,12.01 2.90,12.49 3.06,12.97 3.07,13.47 3.07,13.97 2.92,14.45 2.76,14.93 2.46,15.33 2.16,15.74 1.74,16.02 1.33,16.31 0.84,16.45 0.36,16.59 -0.14,16.57 -0.64,16.54 -1.11,16.36 -1.58,16.18 -1.97,15.85 -2.35,15.53 -2.62,15.10 -2.88,14.67 -2.99,14.18 -3.10,13.69 -3.05,13.19 -3.00,12.69 -2.79,12.23 -2.59,11.77 -2.24,11.40 -1.90,11.03 -1.46,10.79 -1.01,10.55 -0.52,10.47 -0.02,10.38 0.47,10.46 0.97,10.54 1.41,10.77 1.86,11.00 2.21,11.36 2.56,11.73 2.77,12.18 2.99,12.64 3.05,13.14 3.11,13.64 3.00,14.13 2.90,14.62 2.64,15.06 2.38,15.49 2.00,15.82 1.62,16.15 1.16,16.34 0.69,16.53 0.19,16.56 -0.31,16.59 -0.79,16.46 -1.28,16.33 -1.28,16.33 -1.28,16.33 -3.01,14.52 -4.75,12.72 -5.09,11.16 -5.42,9.60 -5.17,8.53 -4.92,7.46 -4.39,6.22 -3.86,4.99 -3.41,3.31 -2.95,1.63 -2.78,0.62 -2.61,-0.37 -2.52,-0.68 -2.44,-0.98 -2.29,-1.26 -2.13,-1.54 -1.92,-1.77 -1.70,-2.01 -1.44,-2.18 -1.17,-2.36 -0.87,-2.46 -0.57,-2.57 -0.26,-2.60 0.05,-2.63 0.37,-2.59 0.68,-2.54 0.97,-2.42 1.27,-2.30 1.53,-2.12 1.79,-1.93 1.99,-1.69 2.20,-1.45 2.34,-1.16 2.48,-0.88 2.55,-0.57 2.62,-0.26 2.61,0.05 2.61,0.37 2.61,0.37 L 2.61,0.37 Z"></path></g><g transform="translate(10.5 12.333543354645371) rotate(0 7.25 5.5)" stroke="none"><path fill="#1e1e1e" d="M 2.61,-0.37 Q 2.61,-0.37 2.78,0.62 2.96,1.62 3.18,3.38 3.41,5.13 3.21,6.63 3.02,8.13 2.81,9.26 2.60,10.38 2.13,9.36 1.67,8.35 2.54,7.52 3.42,6.70 5.31,5.98 7.20,5.25 8.46,4.63 9.72,4.01 11.11,3.19 12.51,2.37 12.37,0.71 12.23,-0.94 12.61,-1.33 13.00,-1.72 13.48,-1.97 13.97,-2.22 14.51,-2.29 15.05,-2.37 15.59,-2.28 16.13,-2.18 16.61,-1.92 17.09,-1.65 17.45,-1.25 17.82,-0.84 18.05,-0.34 18.27,0.15 18.32,0.69 18.37,1.23 18.24,1.77 18.11,2.30 17.82,2.76 17.53,3.23 17.11,3.57 16.69,3.92 16.18,4.11 15.67,4.31 15.12,4.33 14.57,4.35 14.05,4.19 13.52,4.04 13.08,3.72 12.63,3.41 12.31,2.97 11.98,2.53 11.82,2.01 11.65,1.49 11.66,0.94 11.67,0.39 11.85,-0.11 12.04,-0.63 12.37,-1.06 12.71,-1.49 13.17,-1.79 13.63,-2.09 14.16,-2.22 14.69,-2.36 15.23,-2.32 15.78,-2.28 16.28,-2.07 16.79,-1.86 17.20,-1.50 17.61,-1.14 17.88,-0.67 18.16,-0.19 18.26,0.33 18.37,0.87 18.30,1.41 18.24,1.95 18.00,2.45 17.76,2.94 17.76,2.94 17.76,2.94 17.50,4.67 17.25,6.40 16.24,7.36 15.23,8.33 13.87,9.08 12.52,9.82 11.14,10.45 9.77,11.07 8.66,11.58 7.55,12.09 5.80,12.69 4.05,13.30 2.44,13.72 0.83,14.15 -0.62,13.73 -2.07,13.30 -2.79,11.52 -3.51,9.73 -3.16,8.52 -2.81,7.32 -2.52,6.00 -2.24,4.69 -2.31,3.54 -2.38,2.39 -2.50,1.38 -2.61,0.37 -2.62,0.05 -2.62,-0.26 -2.55,-0.57 -2.48,-0.88 -2.34,-1.16 -2.20,-1.45 -1.99,-1.69 -1.79,-1.94 -1.53,-2.12 -1.27,-2.31 -0.98,-2.43 -0.68,-2.55 -0.37,-2.59 -0.05,-2.64 0.26,-2.60 0.57,-2.57 0.87,-2.47 1.17,-2.36 1.44,-2.18 1.71,-2.01 1.92,-1.78 2.14,-1.54 2.29,-1.26 2.45,-0.98 2.53,-0.68 2.61,-0.37 2.61,-0.37 L 2.61,-0.37 Z"></path></g></svg>